<?xml version="1.0" encoding="utf-8" standalone="no"?>
<!DOCTYPE svg PUBLIC "-//W3C//DTD SVG 1.1//EN"
  "http://www.w3.org/Graphics/SVG/1.1/DTD/svg11.dtd">
<svg xmlns:xlink="http://www.w3.org/1999/xlink" width="610.045312pt" height="363.99625pt" viewBox="0 0 610.045312 363.99625" xmlns="http://www.w3.org/2000/svg" version="1.1">
 <metadata>
  <rdf:RDF xmlns:dc="http://purl.org/dc/elements/1.1/" xmlns:cc="http://creativecommons.org/ns#" xmlns:rdf="http://www.w3.org/1999/02/22-rdf-syntax-ns#">
   <cc:Work>
    <dc:type rdf:resource="http://purl.org/dc/dcmitype/StillImage"/>
    <dc:date>2024-09-15T14:55:31.660464</dc:date>
    <dc:format>image/svg+xml</dc:format>
    <dc:creator>
     <cc:Agent>
      <dc:title>Matplotlib v3.9.0, https://matplotlib.org/</dc:title>
     </cc:Agent>
    </dc:creator>
   </cc:Work>
  </rdf:RDF>
 </metadata>
 <defs>
  <style type="text/css">*{stroke-linejoin: round; stroke-linecap: butt}</style>
 </defs>
 <g id="figure_1">
  <g id="patch_1">
   <path d="M 0 363.99625 
L 610.045312 363.99625 
L 610.045312 0 
L 0 0 
z
" style="fill: #ffffff"/>
  </g>
  <g id="axes_1">
   <g id="patch_2">
    <path d="M 44.845313 339.84 
L 602.845312 339.84 
L 602.845312 7.2 
L 44.845313 7.2 
z
" style="fill: #ffffff"/>
   </g>
   <g id="matplotlib.axis_1">
    <g id="xtick_1">
     <g id="line2d_1">
      <defs>
       <path id="md2e127cbd1" d="M 0 0 
L 0 3.5 
" style="stroke: #000000; stroke-width: 0.8"/>
      </defs>
      <g>
       <use xlink:href="#md2e127cbd1" x="70.208949" y="339.84" style="stroke: #000000; stroke-width: 0.8"/>
      </g>
     </g>
     <g id="text_1">
      <!-- weight_0 -->
      <g transform="translate(47.669886 354.438438) scale(0.1 -0.1)">
       <defs>
        <path id="DejaVuSans-77" d="M 269 3500 
L 844 3500 
L 1563 769 
L 2278 3500 
L 2956 3500 
L 3675 769 
L 4391 3500 
L 4966 3500 
L 4050 0 
L 3372 0 
L 2619 2869 
L 1863 0 
L 1184 0 
L 269 3500 
z
" transform="scale(0.015625)"/>
        <path id="DejaVuSans-65" d="M 3597 1894 
L 3597 1613 
L 953 1613 
Q 991 1019 1311 708 
Q 1631 397 2203 397 
Q 2534 397 2845 478 
Q 3156 559 3463 722 
L 3463 178 
Q 3153 47 2828 -22 
Q 2503 -91 2169 -91 
Q 1331 -91 842 396 
Q 353 884 353 1716 
Q 353 2575 817 3079 
Q 1281 3584 2069 3584 
Q 2775 3584 3186 3129 
Q 3597 2675 3597 1894 
z
M 3022 2063 
Q 3016 2534 2758 2815 
Q 2500 3097 2075 3097 
Q 1594 3097 1305 2825 
Q 1016 2553 972 2059 
L 3022 2063 
z
" transform="scale(0.015625)"/>
        <path id="DejaVuSans-69" d="M 603 3500 
L 1178 3500 
L 1178 0 
L 603 0 
L 603 3500 
z
M 603 4863 
L 1178 4863 
L 1178 4134 
L 603 4134 
L 603 4863 
z
" transform="scale(0.015625)"/>
        <path id="DejaVuSans-67" d="M 2906 1791 
Q 2906 2416 2648 2759 
Q 2391 3103 1925 3103 
Q 1463 3103 1205 2759 
Q 947 2416 947 1791 
Q 947 1169 1205 825 
Q 1463 481 1925 481 
Q 2391 481 2648 825 
Q 2906 1169 2906 1791 
z
M 3481 434 
Q 3481 -459 3084 -895 
Q 2688 -1331 1869 -1331 
Q 1566 -1331 1297 -1286 
Q 1028 -1241 775 -1147 
L 775 -588 
Q 1028 -725 1275 -790 
Q 1522 -856 1778 -856 
Q 2344 -856 2625 -561 
Q 2906 -266 2906 331 
L 2906 616 
Q 2728 306 2450 153 
Q 2172 0 1784 0 
Q 1141 0 747 490 
Q 353 981 353 1791 
Q 353 2603 747 3093 
Q 1141 3584 1784 3584 
Q 2172 3584 2450 3431 
Q 2728 3278 2906 2969 
L 2906 3500 
L 3481 3500 
L 3481 434 
z
" transform="scale(0.015625)"/>
        <path id="DejaVuSans-68" d="M 3513 2113 
L 3513 0 
L 2938 0 
L 2938 2094 
Q 2938 2591 2744 2837 
Q 2550 3084 2163 3084 
Q 1697 3084 1428 2787 
Q 1159 2491 1159 1978 
L 1159 0 
L 581 0 
L 581 4863 
L 1159 4863 
L 1159 2956 
Q 1366 3272 1645 3428 
Q 1925 3584 2291 3584 
Q 2894 3584 3203 3211 
Q 3513 2838 3513 2113 
z
" transform="scale(0.015625)"/>
        <path id="DejaVuSans-74" d="M 1172 4494 
L 1172 3500 
L 2356 3500 
L 2356 3053 
L 1172 3053 
L 1172 1153 
Q 1172 725 1289 603 
Q 1406 481 1766 481 
L 2356 481 
L 2356 0 
L 1766 0 
Q 1100 0 847 248 
Q 594 497 594 1153 
L 594 3053 
L 172 3053 
L 172 3500 
L 594 3500 
L 594 4494 
L 1172 4494 
z
" transform="scale(0.015625)"/>
        <path id="DejaVuSans-5f" d="M 3263 -1063 
L 3263 -1509 
L -63 -1509 
L -63 -1063 
L 3263 -1063 
z
" transform="scale(0.015625)"/>
        <path id="DejaVuSans-30" d="M 2034 4250 
Q 1547 4250 1301 3770 
Q 1056 3291 1056 2328 
Q 1056 1369 1301 889 
Q 1547 409 2034 409 
Q 2525 409 2770 889 
Q 3016 1369 3016 2328 
Q 3016 3291 2770 3770 
Q 2525 4250 2034 4250 
z
M 2034 4750 
Q 2819 4750 3233 4129 
Q 3647 3509 3647 2328 
Q 3647 1150 3233 529 
Q 2819 -91 2034 -91 
Q 1250 -91 836 529 
Q 422 1150 422 2328 
Q 422 3509 836 4129 
Q 1250 4750 2034 4750 
z
" transform="scale(0.015625)"/>
       </defs>
       <use xlink:href="#DejaVuSans-77"/>
       <use xlink:href="#DejaVuSans-65" x="81.787109"/>
       <use xlink:href="#DejaVuSans-69" x="143.310547"/>
       <use xlink:href="#DejaVuSans-67" x="171.09375"/>
       <use xlink:href="#DejaVuSans-68" x="234.570312"/>
       <use xlink:href="#DejaVuSans-74" x="297.949219"/>
       <use xlink:href="#DejaVuSans-5f" x="337.158203"/>
       <use xlink:href="#DejaVuSans-30" x="387.158203"/>
      </g>
     </g>
    </g>
    <g id="xtick_2">
     <g id="line2d_2">
      <g>
       <use xlink:href="#md2e127cbd1" x="126.572585" y="339.84" style="stroke: #000000; stroke-width: 0.8"/>
      </g>
     </g>
     <g id="text_2">
      <!-- weight_1 -->
      <g transform="translate(104.033523 354.438438) scale(0.1 -0.1)">
       <defs>
        <path id="DejaVuSans-31" d="M 794 531 
L 1825 531 
L 1825 4091 
L 703 3866 
L 703 4441 
L 1819 4666 
L 2450 4666 
L 2450 531 
L 3481 531 
L 3481 0 
L 794 0 
L 794 531 
z
" transform="scale(0.015625)"/>
       </defs>
       <use xlink:href="#DejaVuSans-77"/>
       <use xlink:href="#DejaVuSans-65" x="81.787109"/>
       <use xlink:href="#DejaVuSans-69" x="143.310547"/>
       <use xlink:href="#DejaVuSans-67" x="171.09375"/>
       <use xlink:href="#DejaVuSans-68" x="234.570312"/>
       <use xlink:href="#DejaVuSans-74" x="297.949219"/>
       <use xlink:href="#DejaVuSans-5f" x="337.158203"/>
       <use xlink:href="#DejaVuSans-31" x="387.158203"/>
      </g>
     </g>
    </g>
    <g id="xtick_3">
     <g id="line2d_3">
      <g>
       <use xlink:href="#md2e127cbd1" x="182.936222" y="339.84" style="stroke: #000000; stroke-width: 0.8"/>
      </g>
     </g>
     <g id="text_3">
      <!-- weight_2 -->
      <g transform="translate(160.397159 354.438438) scale(0.1 -0.1)">
       <defs>
        <path id="DejaVuSans-32" d="M 1228 531 
L 3431 531 
L 3431 0 
L 469 0 
L 469 531 
Q 828 903 1448 1529 
Q 2069 2156 2228 2338 
Q 2531 2678 2651 2914 
Q 2772 3150 2772 3378 
Q 2772 3750 2511 3984 
Q 2250 4219 1831 4219 
Q 1534 4219 1204 4116 
Q 875 4013 500 3803 
L 500 4441 
Q 881 4594 1212 4672 
Q 1544 4750 1819 4750 
Q 2544 4750 2975 4387 
Q 3406 4025 3406 3419 
Q 3406 3131 3298 2873 
Q 3191 2616 2906 2266 
Q 2828 2175 2409 1742 
Q 1991 1309 1228 531 
z
" transform="scale(0.015625)"/>
       </defs>
       <use xlink:href="#DejaVuSans-77"/>
       <use xlink:href="#DejaVuSans-65" x="81.787109"/>
       <use xlink:href="#DejaVuSans-69" x="143.310547"/>
       <use xlink:href="#DejaVuSans-67" x="171.09375"/>
       <use xlink:href="#DejaVuSans-68" x="234.570312"/>
       <use xlink:href="#DejaVuSans-74" x="297.949219"/>
       <use xlink:href="#DejaVuSans-5f" x="337.158203"/>
       <use xlink:href="#DejaVuSans-32" x="387.158203"/>
      </g>
     </g>
    </g>
    <g id="xtick_4">
     <g id="line2d_4">
      <g>
       <use xlink:href="#md2e127cbd1" x="239.299858" y="339.84" style="stroke: #000000; stroke-width: 0.8"/>
      </g>
     </g>
     <g id="text_4">
      <!-- weight_3 -->
      <g transform="translate(216.760795 354.438438) scale(0.1 -0.1)">
       <defs>
        <path id="DejaVuSans-33" d="M 2597 2516 
Q 3050 2419 3304 2112 
Q 3559 1806 3559 1356 
Q 3559 666 3084 287 
Q 2609 -91 1734 -91 
Q 1441 -91 1130 -33 
Q 819 25 488 141 
L 488 750 
Q 750 597 1062 519 
Q 1375 441 1716 441 
Q 2309 441 2620 675 
Q 2931 909 2931 1356 
Q 2931 1769 2642 2001 
Q 2353 2234 1838 2234 
L 1294 2234 
L 1294 2753 
L 1863 2753 
Q 2328 2753 2575 2939 
Q 2822 3125 2822 3475 
Q 2822 3834 2567 4026 
Q 2313 4219 1838 4219 
Q 1578 4219 1281 4162 
Q 984 4106 628 3988 
L 628 4550 
Q 988 4650 1302 4700 
Q 1616 4750 1894 4750 
Q 2613 4750 3031 4423 
Q 3450 4097 3450 3541 
Q 3450 3153 3228 2886 
Q 3006 2619 2597 2516 
z
" transform="scale(0.015625)"/>
       </defs>
       <use xlink:href="#DejaVuSans-77"/>
       <use xlink:href="#DejaVuSans-65" x="81.787109"/>
       <use xlink:href="#DejaVuSans-69" x="143.310547"/>
       <use xlink:href="#DejaVuSans-67" x="171.09375"/>
       <use xlink:href="#DejaVuSans-68" x="234.570312"/>
       <use xlink:href="#DejaVuSans-74" x="297.949219"/>
       <use xlink:href="#DejaVuSans-5f" x="337.158203"/>
       <use xlink:href="#DejaVuSans-33" x="387.158203"/>
      </g>
     </g>
    </g>
    <g id="xtick_5">
     <g id="line2d_5">
      <g>
       <use xlink:href="#md2e127cbd1" x="295.663494" y="339.84" style="stroke: #000000; stroke-width: 0.8"/>
      </g>
     </g>
     <g id="text_5">
      <!-- weight_4 -->
      <g transform="translate(273.124432 354.438438) scale(0.1 -0.1)">
       <defs>
        <path id="DejaVuSans-34" d="M 2419 4116 
L 825 1625 
L 2419 1625 
L 2419 4116 
z
M 2253 4666 
L 3047 4666 
L 3047 1625 
L 3713 1625 
L 3713 1100 
L 3047 1100 
L 3047 0 
L 2419 0 
L 2419 1100 
L 313 1100 
L 313 1709 
L 2253 4666 
z
" transform="scale(0.015625)"/>
       </defs>
       <use xlink:href="#DejaVuSans-77"/>
       <use xlink:href="#DejaVuSans-65" x="81.787109"/>
       <use xlink:href="#DejaVuSans-69" x="143.310547"/>
       <use xlink:href="#DejaVuSans-67" x="171.09375"/>
       <use xlink:href="#DejaVuSans-68" x="234.570312"/>
       <use xlink:href="#DejaVuSans-74" x="297.949219"/>
       <use xlink:href="#DejaVuSans-5f" x="337.158203"/>
       <use xlink:href="#DejaVuSans-34" x="387.158203"/>
      </g>
     </g>
    </g>
    <g id="xtick_6">
     <g id="line2d_6">
      <g>
       <use xlink:href="#md2e127cbd1" x="352.027131" y="339.84" style="stroke: #000000; stroke-width: 0.8"/>
      </g>
     </g>
     <g id="text_6">
      <!-- weight_5 -->
      <g transform="translate(329.488068 354.438438) scale(0.1 -0.1)">
       <defs>
        <path id="DejaVuSans-35" d="M 691 4666 
L 3169 4666 
L 3169 4134 
L 1269 4134 
L 1269 2991 
Q 1406 3038 1543 3061 
Q 1681 3084 1819 3084 
Q 2600 3084 3056 2656 
Q 3513 2228 3513 1497 
Q 3513 744 3044 326 
Q 2575 -91 1722 -91 
Q 1428 -91 1123 -41 
Q 819 9 494 109 
L 494 744 
Q 775 591 1075 516 
Q 1375 441 1709 441 
Q 2250 441 2565 725 
Q 2881 1009 2881 1497 
Q 2881 1984 2565 2268 
Q 2250 2553 1709 2553 
Q 1456 2553 1204 2497 
Q 953 2441 691 2322 
L 691 4666 
z
" transform="scale(0.015625)"/>
       </defs>
       <use xlink:href="#DejaVuSans-77"/>
       <use xlink:href="#DejaVuSans-65" x="81.787109"/>
       <use xlink:href="#DejaVuSans-69" x="143.310547"/>
       <use xlink:href="#DejaVuSans-67" x="171.09375"/>
       <use xlink:href="#DejaVuSans-68" x="234.570312"/>
       <use xlink:href="#DejaVuSans-74" x="297.949219"/>
       <use xlink:href="#DejaVuSans-5f" x="337.158203"/>
       <use xlink:href="#DejaVuSans-35" x="387.158203"/>
      </g>
     </g>
    </g>
    <g id="xtick_7">
     <g id="line2d_7">
      <g>
       <use xlink:href="#md2e127cbd1" x="408.390767" y="339.84" style="stroke: #000000; stroke-width: 0.8"/>
      </g>
     </g>
     <g id="text_7">
      <!-- weight_6 -->
      <g transform="translate(385.851705 354.438438) scale(0.1 -0.1)">
       <defs>
        <path id="DejaVuSans-36" d="M 2113 2584 
Q 1688 2584 1439 2293 
Q 1191 2003 1191 1497 
Q 1191 994 1439 701 
Q 1688 409 2113 409 
Q 2538 409 2786 701 
Q 3034 994 3034 1497 
Q 3034 2003 2786 2293 
Q 2538 2584 2113 2584 
z
M 3366 4563 
L 3366 3988 
Q 3128 4100 2886 4159 
Q 2644 4219 2406 4219 
Q 1781 4219 1451 3797 
Q 1122 3375 1075 2522 
Q 1259 2794 1537 2939 
Q 1816 3084 2150 3084 
Q 2853 3084 3261 2657 
Q 3669 2231 3669 1497 
Q 3669 778 3244 343 
Q 2819 -91 2113 -91 
Q 1303 -91 875 529 
Q 447 1150 447 2328 
Q 447 3434 972 4092 
Q 1497 4750 2381 4750 
Q 2619 4750 2861 4703 
Q 3103 4656 3366 4563 
z
" transform="scale(0.015625)"/>
       </defs>
       <use xlink:href="#DejaVuSans-77"/>
       <use xlink:href="#DejaVuSans-65" x="81.787109"/>
       <use xlink:href="#DejaVuSans-69" x="143.310547"/>
       <use xlink:href="#DejaVuSans-67" x="171.09375"/>
       <use xlink:href="#DejaVuSans-68" x="234.570312"/>
       <use xlink:href="#DejaVuSans-74" x="297.949219"/>
       <use xlink:href="#DejaVuSans-5f" x="337.158203"/>
       <use xlink:href="#DejaVuSans-36" x="387.158203"/>
      </g>
     </g>
    </g>
    <g id="xtick_8">
     <g id="line2d_8">
      <g>
       <use xlink:href="#md2e127cbd1" x="464.754403" y="339.84" style="stroke: #000000; stroke-width: 0.8"/>
      </g>
     </g>
     <g id="text_8">
      <!-- weight_7 -->
      <g transform="translate(442.215341 354.438438) scale(0.1 -0.1)">
       <defs>
        <path id="DejaVuSans-37" d="M 525 4666 
L 3525 4666 
L 3525 4397 
L 1831 0 
L 1172 0 
L 2766 4134 
L 525 4134 
L 525 4666 
z
" transform="scale(0.015625)"/>
       </defs>
       <use xlink:href="#DejaVuSans-77"/>
       <use xlink:href="#DejaVuSans-65" x="81.787109"/>
       <use xlink:href="#DejaVuSans-69" x="143.310547"/>
       <use xlink:href="#DejaVuSans-67" x="171.09375"/>
       <use xlink:href="#DejaVuSans-68" x="234.570312"/>
       <use xlink:href="#DejaVuSans-74" x="297.949219"/>
       <use xlink:href="#DejaVuSans-5f" x="337.158203"/>
       <use xlink:href="#DejaVuSans-37" x="387.158203"/>
      </g>
     </g>
    </g>
    <g id="xtick_9">
     <g id="line2d_9">
      <g>
       <use xlink:href="#md2e127cbd1" x="521.11804" y="339.84" style="stroke: #000000; stroke-width: 0.8"/>
      </g>
     </g>
     <g id="text_9">
      <!-- weight_8 -->
      <g transform="translate(498.578977 354.438438) scale(0.1 -0.1)">
       <defs>
        <path id="DejaVuSans-38" d="M 2034 2216 
Q 1584 2216 1326 1975 
Q 1069 1734 1069 1313 
Q 1069 891 1326 650 
Q 1584 409 2034 409 
Q 2484 409 2743 651 
Q 3003 894 3003 1313 
Q 3003 1734 2745 1975 
Q 2488 2216 2034 2216 
z
M 1403 2484 
Q 997 2584 770 2862 
Q 544 3141 544 3541 
Q 544 4100 942 4425 
Q 1341 4750 2034 4750 
Q 2731 4750 3128 4425 
Q 3525 4100 3525 3541 
Q 3525 3141 3298 2862 
Q 3072 2584 2669 2484 
Q 3125 2378 3379 2068 
Q 3634 1759 3634 1313 
Q 3634 634 3220 271 
Q 2806 -91 2034 -91 
Q 1263 -91 848 271 
Q 434 634 434 1313 
Q 434 1759 690 2068 
Q 947 2378 1403 2484 
z
M 1172 3481 
Q 1172 3119 1398 2916 
Q 1625 2713 2034 2713 
Q 2441 2713 2670 2916 
Q 2900 3119 2900 3481 
Q 2900 3844 2670 4047 
Q 2441 4250 2034 4250 
Q 1625 4250 1398 4047 
Q 1172 3844 1172 3481 
z
" transform="scale(0.015625)"/>
       </defs>
       <use xlink:href="#DejaVuSans-77"/>
       <use xlink:href="#DejaVuSans-65" x="81.787109"/>
       <use xlink:href="#DejaVuSans-69" x="143.310547"/>
       <use xlink:href="#DejaVuSans-67" x="171.09375"/>
       <use xlink:href="#DejaVuSans-68" x="234.570312"/>
       <use xlink:href="#DejaVuSans-74" x="297.949219"/>
       <use xlink:href="#DejaVuSans-5f" x="337.158203"/>
       <use xlink:href="#DejaVuSans-38" x="387.158203"/>
      </g>
     </g>
    </g>
    <g id="xtick_10">
     <g id="line2d_10">
      <g>
       <use xlink:href="#md2e127cbd1" x="577.481676" y="339.84" style="stroke: #000000; stroke-width: 0.8"/>
      </g>
     </g>
     <g id="text_10">
      <!-- weight_9 -->
      <g transform="translate(554.942614 354.438438) scale(0.1 -0.1)">
       <defs>
        <path id="DejaVuSans-39" d="M 703 97 
L 703 672 
Q 941 559 1184 500 
Q 1428 441 1663 441 
Q 2288 441 2617 861 
Q 2947 1281 2994 2138 
Q 2813 1869 2534 1725 
Q 2256 1581 1919 1581 
Q 1219 1581 811 2004 
Q 403 2428 403 3163 
Q 403 3881 828 4315 
Q 1253 4750 1959 4750 
Q 2769 4750 3195 4129 
Q 3622 3509 3622 2328 
Q 3622 1225 3098 567 
Q 2575 -91 1691 -91 
Q 1453 -91 1209 -44 
Q 966 3 703 97 
z
M 1959 2075 
Q 2384 2075 2632 2365 
Q 2881 2656 2881 3163 
Q 2881 3666 2632 3958 
Q 2384 4250 1959 4250 
Q 1534 4250 1286 3958 
Q 1038 3666 1038 3163 
Q 1038 2656 1286 2365 
Q 1534 2075 1959 2075 
z
" transform="scale(0.015625)"/>
       </defs>
       <use xlink:href="#DejaVuSans-77"/>
       <use xlink:href="#DejaVuSans-65" x="81.787109"/>
       <use xlink:href="#DejaVuSans-69" x="143.310547"/>
       <use xlink:href="#DejaVuSans-67" x="171.09375"/>
       <use xlink:href="#DejaVuSans-68" x="234.570312"/>
       <use xlink:href="#DejaVuSans-74" x="297.949219"/>
       <use xlink:href="#DejaVuSans-5f" x="337.158203"/>
       <use xlink:href="#DejaVuSans-39" x="387.158203"/>
      </g>
     </g>
    </g>
   </g>
   <g id="matplotlib.axis_2">
    <g id="ytick_1">
     <g id="line2d_11">
      <defs>
       <path id="mb4184f8c44" d="M 0 0 
L -3.5 0 
" style="stroke: #000000; stroke-width: 0.8"/>
      </defs>
      <g>
       <use xlink:href="#mb4184f8c44" x="44.845313" y="333.762655" style="stroke: #000000; stroke-width: 0.8"/>
      </g>
     </g>
     <g id="text_11">
      <!-- −0.75 -->
      <g transform="translate(7.2 337.561874) scale(0.1 -0.1)">
       <defs>
        <path id="DejaVuSans-2212" d="M 678 2272 
L 4684 2272 
L 4684 1741 
L 678 1741 
L 678 2272 
z
" transform="scale(0.015625)"/>
        <path id="DejaVuSans-2e" d="M 684 794 
L 1344 794 
L 1344 0 
L 684 0 
L 684 794 
z
" transform="scale(0.015625)"/>
       </defs>
       <use xlink:href="#DejaVuSans-2212"/>
       <use xlink:href="#DejaVuSans-30" x="83.789062"/>
       <use xlink:href="#DejaVuSans-2e" x="147.412109"/>
       <use xlink:href="#DejaVuSans-37" x="179.199219"/>
       <use xlink:href="#DejaVuSans-35" x="242.822266"/>
      </g>
     </g>
    </g>
    <g id="ytick_2">
     <g id="line2d_12">
      <g>
       <use xlink:href="#mb4184f8c44" x="44.845313" y="288.288264" style="stroke: #000000; stroke-width: 0.8"/>
      </g>
     </g>
     <g id="text_12">
      <!-- −0.50 -->
      <g transform="translate(7.2 292.087482) scale(0.1 -0.1)">
       <use xlink:href="#DejaVuSans-2212"/>
       <use xlink:href="#DejaVuSans-30" x="83.789062"/>
       <use xlink:href="#DejaVuSans-2e" x="147.412109"/>
       <use xlink:href="#DejaVuSans-35" x="179.199219"/>
       <use xlink:href="#DejaVuSans-30" x="242.822266"/>
      </g>
     </g>
    </g>
    <g id="ytick_3">
     <g id="line2d_13">
      <g>
       <use xlink:href="#mb4184f8c44" x="44.845313" y="242.813872" style="stroke: #000000; stroke-width: 0.8"/>
      </g>
     </g>
     <g id="text_13">
      <!-- −0.25 -->
      <g transform="translate(7.2 246.613091) scale(0.1 -0.1)">
       <use xlink:href="#DejaVuSans-2212"/>
       <use xlink:href="#DejaVuSans-30" x="83.789062"/>
       <use xlink:href="#DejaVuSans-2e" x="147.412109"/>
       <use xlink:href="#DejaVuSans-32" x="179.199219"/>
       <use xlink:href="#DejaVuSans-35" x="242.822266"/>
      </g>
     </g>
    </g>
    <g id="ytick_4">
     <g id="line2d_14">
      <g>
       <use xlink:href="#mb4184f8c44" x="44.845313" y="197.339481" style="stroke: #000000; stroke-width: 0.8"/>
      </g>
     </g>
     <g id="text_14">
      <!-- 0.00 -->
      <g transform="translate(15.579688 201.1387) scale(0.1 -0.1)">
       <use xlink:href="#DejaVuSans-30"/>
       <use xlink:href="#DejaVuSans-2e" x="63.623047"/>
       <use xlink:href="#DejaVuSans-30" x="95.410156"/>
       <use xlink:href="#DejaVuSans-30" x="159.033203"/>
      </g>
     </g>
    </g>
    <g id="ytick_5">
     <g id="line2d_15">
      <g>
       <use xlink:href="#mb4184f8c44" x="44.845313" y="151.86509" style="stroke: #000000; stroke-width: 0.8"/>
      </g>
     </g>
     <g id="text_15">
      <!-- 0.25 -->
      <g transform="translate(15.579688 155.664309) scale(0.1 -0.1)">
       <use xlink:href="#DejaVuSans-30"/>
       <use xlink:href="#DejaVuSans-2e" x="63.623047"/>
       <use xlink:href="#DejaVuSans-32" x="95.410156"/>
       <use xlink:href="#DejaVuSans-35" x="159.033203"/>
      </g>
     </g>
    </g>
    <g id="ytick_6">
     <g id="line2d_16">
      <g>
       <use xlink:href="#mb4184f8c44" x="44.845313" y="106.390699" style="stroke: #000000; stroke-width: 0.8"/>
      </g>
     </g>
     <g id="text_16">
      <!-- 0.50 -->
      <g transform="translate(15.579688 110.189918) scale(0.1 -0.1)">
       <use xlink:href="#DejaVuSans-30"/>
       <use xlink:href="#DejaVuSans-2e" x="63.623047"/>
       <use xlink:href="#DejaVuSans-35" x="95.410156"/>
       <use xlink:href="#DejaVuSans-30" x="159.033203"/>
      </g>
     </g>
    </g>
    <g id="ytick_7">
     <g id="line2d_17">
      <g>
       <use xlink:href="#mb4184f8c44" x="44.845313" y="60.916308" style="stroke: #000000; stroke-width: 0.8"/>
      </g>
     </g>
     <g id="text_17">
      <!-- 0.75 -->
      <g transform="translate(15.579688 64.715527) scale(0.1 -0.1)">
       <use xlink:href="#DejaVuSans-30"/>
       <use xlink:href="#DejaVuSans-2e" x="63.623047"/>
       <use xlink:href="#DejaVuSans-37" x="95.410156"/>
       <use xlink:href="#DejaVuSans-35" x="159.033203"/>
      </g>
     </g>
    </g>
    <g id="ytick_8">
     <g id="line2d_18">
      <g>
       <use xlink:href="#mb4184f8c44" x="44.845313" y="15.441917" style="stroke: #000000; stroke-width: 0.8"/>
      </g>
     </g>
     <g id="text_18">
      <!-- 1.00 -->
      <g transform="translate(15.579688 19.241136) scale(0.1 -0.1)">
       <use xlink:href="#DejaVuSans-31"/>
       <use xlink:href="#DejaVuSans-2e" x="63.623047"/>
       <use xlink:href="#DejaVuSans-30" x="95.410156"/>
       <use xlink:href="#DejaVuSans-30" x="159.033203"/>
      </g>
     </g>
    </g>
   </g>
   <g id="line2d_19">
    <path d="M 70.208949 130.591952 
L 126.572585 84.312054 
L 182.936222 232.85869 
L 239.299858 233.953129 
L 295.663494 136.708996 
L 352.027131 261.321795 
L 408.390767 196.531906 
L 464.754403 217.705225 
L 521.11804 241.931433 
L 577.481676 141.837516 
" clip-path="url(#p273277417a)" style="fill: none; stroke: #1f77b4; stroke-width: 1.5; stroke-linecap: square"/>
   </g>
   <g id="line2d_20">
    <path d="M 70.208949 67.9453 
L 126.572585 185.164661 
L 182.936222 145.999823 
L 239.299858 155.263106 
L 295.663494 188.589402 
L 352.027131 166.235634 
L 408.390767 178.111022 
L 464.754403 179.769492 
L 521.11804 126.078491 
L 577.481676 126.707475 
" clip-path="url(#p273277417a)" style="fill: none; stroke: #ff7f0e; stroke-width: 1.5; stroke-linecap: square"/>
   </g>
   <g id="line2d_21">
    <path d="M 70.208949 123.499752 
L 126.572585 76.157105 
L 182.936222 196.127131 
L 239.299858 169.346528 
L 295.663494 182.412978 
L 352.027131 150.968521 
L 408.390767 210.97191 
L 464.754403 138.510282 
L 521.11804 122.394736 
L 577.481676 174.368263 
" clip-path="url(#p273277417a)" style="fill: none; stroke: #2ca02c; stroke-width: 1.5; stroke-linecap: square"/>
   </g>
   <g id="line2d_22">
    <path d="M 70.208949 72.762938 
L 126.572585 101.709963 
L 182.936222 256.461495 
L 239.299858 172.393094 
L 295.663494 173.898817 
L 352.027131 207.263992 
L 408.390767 178.168407 
L 464.754403 228.51971 
L 521.11804 215.921747 
L 577.481676 152.93597 
" clip-path="url(#p273277417a)" style="fill: none; stroke: #d62728; stroke-width: 1.5; stroke-linecap: square"/>
   </g>
   <g id="line2d_23">
    <path d="M 70.208949 71.539327 
L 126.572585 122.059964 
L 182.936222 216.744952 
L 239.299858 149.048148 
L 295.663494 179.149722 
L 352.027131 145.780138 
L 408.390767 176.387026 
L 464.754403 165.925571 
L 521.11804 130.483598 
L 577.481676 198.135615 
" clip-path="url(#p273277417a)" style="fill: none; stroke: #9467bd; stroke-width: 1.5; stroke-linecap: square"/>
   </g>
   <g id="line2d_24">
    <path d="M 70.208949 90.942843 
L 126.572585 158.020805 
L 182.936222 185.307307 
L 239.299858 146.148472 
L 295.663494 219.942863 
L 352.027131 161.355907 
L 408.390767 129.735797 
L 464.754403 275.364731 
L 521.11804 139.115202 
L 577.481676 157.324077 
" clip-path="url(#p273277417a)" style="fill: none; stroke: #8c564b; stroke-width: 1.5; stroke-linecap: square"/>
   </g>
   <g id="line2d_25">
    <path d="M 70.208949 133.847321 
L 126.572585 213.522161 
L 182.936222 157.92545 
L 239.299858 259.667375 
L 295.663494 110.298926 
L 352.027131 126.303596 
L 408.390767 173.126766 
L 464.754403 235.409635 
L 521.11804 109.812757 
L 577.481676 229.537045 
" clip-path="url(#p273277417a)" style="fill: none; stroke: #e377c2; stroke-width: 1.5; stroke-linecap: square"/>
   </g>
   <g id="line2d_26">
    <path d="M 70.208949 68.031418 
L 126.572585 158.310585 
L 182.936222 312.880537 
L 239.299858 184.40631 
L 295.663494 166.554737 
L 352.027131 203.57979 
L 408.390767 197.21822 
L 464.754403 203.453685 
L 521.11804 214.585748 
L 577.481676 199.441455 
" clip-path="url(#p273277417a)" style="fill: none; stroke: #7f7f7f; stroke-width: 1.5; stroke-linecap: square"/>
   </g>
   <g id="line2d_27">
    <path d="M 70.208949 47.603772 
L 126.572585 184.25863 
L 182.936222 167.67556 
L 239.299858 163.783228 
L 295.663494 195.866995 
L 352.027131 155.480536 
L 408.390767 164.452767 
L 464.754403 154.248954 
L 521.11804 135.729313 
L 577.481676 197.955403 
" clip-path="url(#p273277417a)" style="fill: none; stroke: #bcbd22; stroke-width: 1.5; stroke-linecap: square"/>
   </g>
   <g id="line2d_28">
    <path d="M 70.208949 184.545147 
L 126.572585 205.539901 
L 182.936222 219.055626 
L 239.299858 216.486568 
L 295.663494 186.502658 
L 352.027131 135.977995 
L 408.390767 288.95178 
L 464.754403 92.288978 
L 521.11804 281.650888 
L 577.481676 157.363545 
" clip-path="url(#p273277417a)" style="fill: none; stroke: #17becf; stroke-width: 1.5; stroke-linecap: square"/>
   </g>
   <g id="line2d_29">
    <path d="M 70.208949 188.806525 
L 126.572585 133.194175 
L 182.936222 212.203694 
L 239.299858 146.370075 
L 295.663494 251.370857 
L 352.027131 163.368375 
L 408.390767 104.415558 
L 464.754403 279.373072 
L 521.11804 116.629816 
L 577.481676 185.998118 
" clip-path="url(#p273277417a)" style="fill: none; stroke: #1f77b4; stroke-width: 1.5; stroke-linecap: square"/>
   </g>
   <g id="line2d_30">
    <path d="M 70.208949 39.350963 
L 126.572585 143.935979 
L 182.936222 233.869614 
L 239.299858 220.461116 
L 295.663494 187.288618 
L 352.027131 159.98489 
L 408.390767 234.198802 
L 464.754403 180.817048 
L 521.11804 213.005209 
L 577.481676 191.686541 
" clip-path="url(#p273277417a)" style="fill: none; stroke: #ff7f0e; stroke-width: 1.5; stroke-linecap: square"/>
   </g>
   <g id="line2d_31">
    <path d="M 70.208949 51.880755 
L 126.572585 136.35041 
L 182.936222 229.445249 
L 239.299858 217.466556 
L 295.663494 225.509234 
L 352.027131 164.279222 
L 408.390767 223.411408 
L 464.754403 171.287878 
L 521.11804 138.480228 
L 577.481676 205.312967 
" clip-path="url(#p273277417a)" style="fill: none; stroke: #2ca02c; stroke-width: 1.5; stroke-linecap: square"/>
   </g>
   <g id="line2d_32">
    <path d="M 70.208949 22.32 
L 126.572585 174.937309 
L 182.936222 232.279676 
L 239.299858 197.40434 
L 295.663494 193.299131 
L 352.027131 195.801551 
L 408.390767 190.135562 
L 464.754403 182.743771 
L 521.11804 205.789661 
L 577.481676 177.917808 
" clip-path="url(#p273277417a)" style="fill: none; stroke: #d62728; stroke-width: 1.5; stroke-linecap: square"/>
   </g>
   <g id="line2d_33">
    <path d="M 70.208949 124.646818 
L 126.572585 109.593896 
L 182.936222 186.424224 
L 239.299858 173.018937 
L 295.663494 218.426497 
L 352.027131 118.952962 
L 408.390767 259.288287 
L 464.754403 134.465208 
L 521.11804 158.899894 
L 577.481676 137.883265 
" clip-path="url(#p273277417a)" style="fill: none; stroke: #9467bd; stroke-width: 1.5; stroke-linecap: square"/>
   </g>
   <g id="line2d_34">
    <path d="M 70.208949 89.692193 
L 126.572585 165.752585 
L 182.936222 177.545156 
L 239.299858 170.977188 
L 295.663494 107.84108 
L 352.027131 193.452878 
L 408.390767 116.295234 
L 464.754403 155.868203 
L 521.11804 141.694651 
L 577.481676 199.533436 
" clip-path="url(#p273277417a)" style="fill: none; stroke: #8c564b; stroke-width: 1.5; stroke-linecap: square"/>
   </g>
   <g id="line2d_35">
    <path d="M 70.208949 60.495825 
L 126.572585 200.292015 
L 182.936222 163.023409 
L 239.299858 169.960377 
L 295.663494 176.023276 
L 352.027131 128.84125 
L 408.390767 181.020866 
L 464.754403 202.271009 
L 521.11804 115.327125 
L 577.481676 181.166068 
" clip-path="url(#p273277417a)" style="fill: none; stroke: #e377c2; stroke-width: 1.5; stroke-linecap: square"/>
   </g>
   <g id="line2d_36">
    <path d="M 70.208949 79.310125 
L 126.572585 119.787238 
L 182.936222 167.914202 
L 239.299858 247.552966 
L 295.663494 163.110418 
L 352.027131 272.131404 
L 408.390767 162.072091 
L 464.754403 222.627913 
L 521.11804 197.868152 
L 577.481676 230.583568 
" clip-path="url(#p273277417a)" style="fill: none; stroke: #7f7f7f; stroke-width: 1.5; stroke-linecap: square"/>
   </g>
   <g id="line2d_37">
    <path d="M 70.208949 164.478015 
L 126.572585 177.826767 
L 182.936222 219.375847 
L 239.299858 133.386603 
L 295.663494 173.476586 
L 352.027131 189.603017 
L 408.390767 182.813487 
L 464.754403 307.645604 
L 521.11804 87.783806 
L 577.481676 242.509677 
" clip-path="url(#p273277417a)" style="fill: none; stroke: #bcbd22; stroke-width: 1.5; stroke-linecap: square"/>
   </g>
   <g id="line2d_38">
    <path d="M 70.208949 68.537812 
L 126.572585 205.995677 
L 182.936222 160.539436 
L 239.299858 213.829649 
L 295.663494 160.884858 
L 352.027131 144.004418 
L 408.390767 263.177973 
L 464.754403 158.452401 
L 521.11804 159.310006 
L 577.481676 139.641698 
" clip-path="url(#p273277417a)" style="fill: none; stroke: #17becf; stroke-width: 1.5; stroke-linecap: square"/>
   </g>
   <g id="line2d_39">
    <path d="M 70.208949 96.854996 
L 126.572585 230.012081 
L 182.936222 182.160699 
L 239.299858 178.744841 
L 295.663494 174.182459 
L 352.027131 155.902715 
L 408.390767 85.506424 
L 464.754403 244.454085 
L 521.11804 137.287528 
L 577.481676 169.770887 
" clip-path="url(#p273277417a)" style="fill: none; stroke: #1f77b4; stroke-width: 1.5; stroke-linecap: square"/>
   </g>
   <g id="line2d_40">
    <path d="M 70.208949 149.57292 
L 126.572585 178.911957 
L 182.936222 255.998566 
L 239.299858 95.803404 
L 295.663494 274.843326 
L 352.027131 237.456558 
L 408.390767 280.898154 
L 464.754403 183.90354 
L 521.11804 155.991169 
L 577.481676 182.287599 
" clip-path="url(#p273277417a)" style="fill: none; stroke: #ff7f0e; stroke-width: 1.5; stroke-linecap: square"/>
   </g>
   <g id="line2d_41">
    <path d="M 70.208949 123.674974 
L 126.572585 179.258639 
L 182.936222 306.48982 
L 239.299858 172.209481 
L 295.663494 206.001324 
L 352.027131 250.698131 
L 408.390767 143.586429 
L 464.754403 228.0447 
L 521.11804 282.791834 
L 577.481676 170.292186 
" clip-path="url(#p273277417a)" style="fill: none; stroke: #2ca02c; stroke-width: 1.5; stroke-linecap: square"/>
   </g>
   <g id="line2d_42">
    <path d="M 70.208949 109.994386 
L 126.572585 297.108182 
L 182.936222 106.709918 
L 239.299858 195.493752 
L 295.663494 167.8223 
L 352.027131 198.825446 
L 408.390767 150.637138 
L 464.754403 179.068132 
L 521.11804 136.727222 
L 577.481676 182.360473 
" clip-path="url(#p273277417a)" style="fill: none; stroke: #d62728; stroke-width: 1.5; stroke-linecap: square"/>
   </g>
   <g id="line2d_43">
    <path d="M 70.208949 78.074924 
L 126.572585 157.762116 
L 182.936222 306.850402 
L 239.299858 158.603047 
L 295.663494 187.948293 
L 352.027131 177.74032 
L 408.390767 162.769122 
L 464.754403 188.58276 
L 521.11804 163.366575 
L 577.481676 167.257964 
" clip-path="url(#p273277417a)" style="fill: none; stroke: #9467bd; stroke-width: 1.5; stroke-linecap: square"/>
   </g>
   <g id="line2d_44">
    <path d="M 70.208949 80.608263 
L 126.572585 137.825656 
L 182.936222 187.490112 
L 239.299858 168.998038 
L 295.663494 142.133886 
L 352.027131 156.749108 
L 408.390767 134.7148 
L 464.754403 154.431144 
L 521.11804 173.216287 
L 577.481676 134.266004 
" clip-path="url(#p273277417a)" style="fill: none; stroke: #8c564b; stroke-width: 1.5; stroke-linecap: square"/>
   </g>
   <g id="line2d_45">
    <path d="M 70.208949 76.379386 
L 126.572585 134.04981 
L 182.936222 183.663044 
L 239.299858 140.807575 
L 295.663494 145.25882 
L 352.027131 173.131048 
L 408.390767 169.843964 
L 464.754403 191.136203 
L 521.11804 114.011336 
L 577.481676 191.827006 
" clip-path="url(#p273277417a)" style="fill: none; stroke: #e377c2; stroke-width: 1.5; stroke-linecap: square"/>
   </g>
   <g id="line2d_46">
    <path d="M 70.208949 59.89684 
L 126.572585 175.877993 
L 182.936222 249.794932 
L 239.299858 136.718434 
L 295.663494 190.812941 
L 352.027131 231.344263 
L 408.390767 125.916642 
L 464.754403 194.764251 
L 521.11804 166.62969 
L 577.481676 189.63906 
" clip-path="url(#p273277417a)" style="fill: none; stroke: #7f7f7f; stroke-width: 1.5; stroke-linecap: square"/>
   </g>
   <g id="line2d_47">
    <path d="M 70.208949 50.211302 
L 126.572585 147.360215 
L 182.936222 244.166681 
L 239.299858 140.88272 
L 295.663494 183.022616 
L 352.027131 199.299442 
L 408.390767 146.676458 
L 464.754403 180.64036 
L 521.11804 200.582917 
L 577.481676 175.04584 
" clip-path="url(#p273277417a)" style="fill: none; stroke: #bcbd22; stroke-width: 1.5; stroke-linecap: square"/>
   </g>
   <g id="line2d_48">
    <path d="M 70.208949 195.053521 
L 126.572585 205.75541 
L 182.936222 89.76646 
L 239.299858 295.105816 
L 295.663494 134.304162 
L 352.027131 199.568995 
L 408.390767 196.524715 
L 464.754403 253.807383 
L 521.11804 129.198362 
L 577.481676 205.678393 
" clip-path="url(#p273277417a)" style="fill: none; stroke: #17becf; stroke-width: 1.5; stroke-linecap: square"/>
   </g>
   <g id="line2d_49">
    <path d="M 70.208949 129.282587 
L 126.572585 143.386628 
L 182.936222 257.088771 
L 239.299858 104.989996 
L 295.663494 271.877156 
L 352.027131 165.002781 
L 408.390767 220.93766 
L 464.754403 147.498683 
L 521.11804 244.792787 
L 577.481676 157.952365 
" clip-path="url(#p273277417a)" style="fill: none; stroke: #1f77b4; stroke-width: 1.5; stroke-linecap: square"/>
   </g>
   <g id="line2d_50">
    <path d="M 70.208949 89.323849 
L 126.572585 85.429294 
L 182.936222 233.32402 
L 239.299858 196.002805 
L 295.663494 155.34609 
L 352.027131 200.838001 
L 408.390767 257.736361 
L 464.754403 161.733874 
L 521.11804 223.217617 
L 577.481676 212.76274 
" clip-path="url(#p273277417a)" style="fill: none; stroke: #ff7f0e; stroke-width: 1.5; stroke-linecap: square"/>
   </g>
   <g id="line2d_51">
    <path d="M 70.208949 79.183708 
L 126.572585 120.61463 
L 182.936222 225.446698 
L 239.299858 162.335406 
L 295.663494 161.755926 
L 352.027131 164.688939 
L 408.390767 217.697973 
L 464.754403 142.533389 
L 521.11804 187.248624 
L 577.481676 124.047698 
" clip-path="url(#p273277417a)" style="fill: none; stroke: #2ca02c; stroke-width: 1.5; stroke-linecap: square"/>
   </g>
   <g id="line2d_52">
    <path d="M 70.208949 154.269542 
L 126.572585 110.029362 
L 182.936222 222.698434 
L 239.299858 225.84505 
L 295.663494 164.379871 
L 352.027131 221.872083 
L 408.390767 162.750081 
L 464.754403 224.031754 
L 521.11804 324.72 
L 577.481676 149.068179 
" clip-path="url(#p273277417a)" style="fill: none; stroke: #d62728; stroke-width: 1.5; stroke-linecap: square"/>
   </g>
   <g id="line2d_53">
    <path d="M 70.208949 80.048114 
L 126.572585 158.82529 
L 182.936222 173.187115 
L 239.299858 204.447161 
L 295.663494 175.339404 
L 352.027131 109.324642 
L 408.390767 209.588713 
L 464.754403 117.27998 
L 521.11804 191.077553 
L 577.481676 148.524857 
" clip-path="url(#p273277417a)" style="fill: none; stroke: #9467bd; stroke-width: 1.5; stroke-linecap: square"/>
   </g>
   <g id="line2d_54">
    <path d="M 70.208949 54.280488 
L 126.572585 159.244171 
L 182.936222 289.132244 
L 239.299858 154.56505 
L 295.663494 208.745022 
L 352.027131 209.204732 
L 408.390767 200.296742 
L 464.754403 211.039801 
L 521.11804 203.746351 
L 577.481676 177.198203 
" clip-path="url(#p273277417a)" style="fill: none; stroke: #8c564b; stroke-width: 1.5; stroke-linecap: square"/>
   </g>
   <g id="line2d_55">
    <path d="M 70.208949 80.711023 
L 126.572585 121.823826 
L 182.936222 267.858341 
L 239.299858 172.545028 
L 295.663494 160.043997 
L 352.027131 215.298766 
L 408.390767 233.996746 
L 464.754403 218.215388 
L 521.11804 262.11948 
L 577.481676 174.873019 
" clip-path="url(#p273277417a)" style="fill: none; stroke: #e377c2; stroke-width: 1.5; stroke-linecap: square"/>
   </g>
   <g id="line2d_56">
    <path d="M 70.208949 162.82441 
L 126.572585 120.696872 
L 182.936222 258.636485 
L 239.299858 128.807076 
L 295.663494 271.290227 
L 352.027131 107.189886 
L 408.390767 216.437139 
L 464.754403 186.412565 
L 521.11804 190.31309 
L 577.481676 138.70348 
" clip-path="url(#p273277417a)" style="fill: none; stroke: #7f7f7f; stroke-width: 1.5; stroke-linecap: square"/>
   </g>
   <g id="line2d_57">
    <path d="M 70.208949 41.771795 
L 126.572585 227.802106 
L 182.936222 193.675368 
L 239.299858 220.209661 
L 295.663494 140.801964 
L 352.027131 191.472582 
L 408.390767 170.469203 
L 464.754403 222.860518 
L 521.11804 169.308449 
L 577.481676 152.272959 
" clip-path="url(#p273277417a)" style="fill: none; stroke: #bcbd22; stroke-width: 1.5; stroke-linecap: square"/>
   </g>
   <g id="line2d_58">
    <path d="M 70.208949 79.599171 
L 126.572585 200.985125 
L 182.936222 284.845969 
L 239.299858 128.023193 
L 295.663494 256.308737 
L 352.027131 149.07528 
L 408.390767 189.613676 
L 464.754403 191.609515 
L 521.11804 176.484403 
L 577.481676 176.986159 
" clip-path="url(#p273277417a)" style="fill: none; stroke: #17becf; stroke-width: 1.5; stroke-linecap: square"/>
   </g>
   <g id="line2d_59">
    <path d="M 70.208949 41.780187 
L 126.572585 145.122716 
L 182.936222 258.980392 
L 239.299858 164.482839 
L 295.663494 212.419608 
L 352.027131 188.609225 
L 408.390767 205.683268 
L 464.754403 186.952566 
L 521.11804 214.149452 
L 577.481676 174.567415 
" clip-path="url(#p273277417a)" style="fill: none; stroke: #1f77b4; stroke-width: 1.5; stroke-linecap: square"/>
   </g>
   <g id="line2d_60">
    <path d="M 70.208949 117.726386 
L 126.572585 149.114035 
L 182.936222 156.695288 
L 239.299858 125.515008 
L 295.663494 224.600192 
L 352.027131 136.798784 
L 408.390767 168.249457 
L 464.754403 197.404558 
L 521.11804 90.287806 
L 577.481676 227.297151 
" clip-path="url(#p273277417a)" style="fill: none; stroke: #ff7f0e; stroke-width: 1.5; stroke-linecap: square"/>
   </g>
   <g id="line2d_61">
    <path d="M 70.208949 167.437569 
L 126.572585 105.9543 
L 182.936222 309.692323 
L 239.299858 187.381273 
L 295.663494 132.441809 
L 352.027131 260.085148 
L 408.390767 237.936829 
L 464.754403 191.10763 
L 521.11804 231.819698 
L 577.481676 187.622017 
" clip-path="url(#p273277417a)" style="fill: none; stroke: #2ca02c; stroke-width: 1.5; stroke-linecap: square"/>
   </g>
   <g id="line2d_62">
    <path d="M 70.208949 115.979349 
L 126.572585 166.384608 
L 182.936222 241.207135 
L 239.299858 104.880135 
L 295.663494 241.685967 
L 352.027131 191.5023 
L 408.390767 218.835681 
L 464.754403 95.632242 
L 521.11804 184.849747 
L 577.481676 151.811217 
" clip-path="url(#p273277417a)" style="fill: none; stroke: #d62728; stroke-width: 1.5; stroke-linecap: square"/>
   </g>
   <g id="line2d_63">
    <path d="M 70.208949 45.114755 
L 126.572585 187.003359 
L 182.936222 194.960664 
L 239.299858 202.976352 
L 295.663494 148.999945 
L 352.027131 177.692085 
L 408.390767 180.654422 
L 464.754403 137.058719 
L 521.11804 230.099121 
L 577.481676 151.93022 
" clip-path="url(#p273277417a)" style="fill: none; stroke: #9467bd; stroke-width: 1.5; stroke-linecap: square"/>
   </g>
   <g id="line2d_64">
    <path d="M 70.208949 30.440775 
L 126.572585 150.226944 
L 182.936222 219.586128 
L 239.299858 219.155733 
L 295.663494 197.930886 
L 352.027131 214.693121 
L 408.390767 215.497802 
L 464.754403 210.448711 
L 521.11804 185.47662 
L 577.481676 230.464841 
" clip-path="url(#p273277417a)" style="fill: none; stroke: #8c564b; stroke-width: 1.5; stroke-linecap: square"/>
   </g>
   <g id="line2d_65">
    <path d="M 70.208949 61.411221 
L 126.572585 217.280228 
L 182.936222 178.337631 
L 239.299858 178.95477 
L 295.663494 145.821186 
L 352.027131 261.291368 
L 408.390767 128.260914 
L 464.754403 206.1099 
L 521.11804 165.61541 
L 577.481676 167.101002 
" clip-path="url(#p273277417a)" style="fill: none; stroke: #e377c2; stroke-width: 1.5; stroke-linecap: square"/>
   </g>
   <g id="line2d_66">
    <path d="M 70.208949 38.81471 
L 126.572585 151.629473 
L 182.936222 263.502288 
L 239.299858 191.226269 
L 295.663494 177.19395 
L 352.027131 213.807896 
L 408.390767 222.21526 
L 464.754403 207.890243 
L 521.11804 202.338846 
L 577.481676 192.849364 
" clip-path="url(#p273277417a)" style="fill: none; stroke: #7f7f7f; stroke-width: 1.5; stroke-linecap: square"/>
   </g>
   <g id="line2d_67">
    <path d="M 70.208949 157.89377 
L 126.572585 183.707237 
L 182.936222 210.064631 
L 239.299858 165.243727 
L 295.663494 76.88783 
L 352.027131 233.102181 
L 408.390767 99.433838 
L 464.754403 244.868968 
L 521.11804 169.734914 
L 577.481676 155.402579 
" clip-path="url(#p273277417a)" style="fill: none; stroke: #bcbd22; stroke-width: 1.5; stroke-linecap: square"/>
   </g>
   <g id="line2d_68">
    <path d="M 70.208949 105.229788 
L 126.572585 99.146072 
L 182.936222 261.520132 
L 239.299858 151.847374 
L 295.663494 159.503578 
L 352.027131 184.964214 
L 408.390767 184.625724 
L 464.754403 153.310776 
L 521.11804 225.316424 
L 577.481676 131.732188 
" clip-path="url(#p273277417a)" style="fill: none; stroke: #17becf; stroke-width: 1.5; stroke-linecap: square"/>
   </g>
   <g id="patch_3">
    <path d="M 44.845313 339.84 
L 44.845313 7.2 
" style="fill: none; stroke: #000000; stroke-width: 0.8; stroke-linejoin: miter; stroke-linecap: square"/>
   </g>
   <g id="patch_4">
    <path d="M 602.845312 339.84 
L 602.845312 7.2 
" style="fill: none; stroke: #000000; stroke-width: 0.8; stroke-linejoin: miter; stroke-linecap: square"/>
   </g>
   <g id="patch_5">
    <path d="M 44.845313 339.84 
L 602.845312 339.84 
" style="fill: none; stroke: #000000; stroke-width: 0.8; stroke-linejoin: miter; stroke-linecap: square"/>
   </g>
   <g id="patch_6">
    <path d="M 44.845313 7.2 
L 602.845312 7.2 
" style="fill: none; stroke: #000000; stroke-width: 0.8; stroke-linejoin: miter; stroke-linecap: square"/>
   </g>
  </g>
 </g>
 <defs>
  <clipPath id="p273277417a">
   <rect x="44.845313" y="7.2" width="558" height="332.64"/>
  </clipPath>
 </defs>
</svg>
