<?xml version="1.0" encoding="UTF-8"?>
<svg id="Layer_1" data-name="Layer 1" xmlns="http://www.w3.org/2000/svg" xmlns:xlink="http://www.w3.org/1999/xlink" version="1.1" viewBox="0 0 534.6 324.5">
  <defs>
    <style>
      .cls-1 {
        clip-path: url(#clippath);
      }

      .cls-2, .cls-3, .cls-4, .cls-5, .cls-6, .cls-7 {
        fill: none;
      }

      .cls-2, .cls-8, .cls-9 {
        stroke-width: 0px;
      }

      .cls-10 {
        clip-path: url(#clippath-1);
      }

      .cls-11 {
        clip-path: url(#clippath-4);
      }

      .cls-12 {
        clip-path: url(#clippath-3);
      }

      .cls-13 {
        clip-path: url(#clippath-2);
      }

      .cls-14 {
        clip-path: url(#clippath-7);
      }

      .cls-15 {
        clip-path: url(#clippath-8);
      }

      .cls-16 {
        clip-path: url(#clippath-6);
      }

      .cls-17 {
        clip-path: url(#clippath-5);
      }

      .cls-18 {
        clip-path: url(#clippath-9);
      }

      .cls-3, .cls-19, .cls-20, .cls-21, .cls-4, .cls-5, .cls-7 {
        stroke-linejoin: round;
      }

      .cls-3, .cls-20, .cls-7 {
        stroke: red;
      }

      .cls-3, .cls-4, .cls-5, .cls-7 {
        stroke-width: 1.5px;
      }

      .cls-3, .cls-6 {
        stroke-linecap: square;
      }

      .cls-8, .cls-19, .cls-21 {
        fill: #000;
      }

      .cls-19, .cls-20 {
        fill-opacity: .7;
      }

      .cls-19, .cls-20, .cls-4, .cls-7 {
        stroke-opacity: .7;
      }

      .cls-19, .cls-21, .cls-4, .cls-6 {
        stroke: #000;
      }

      .cls-22 {
        clip-path: url(#clippath-14);
      }

      .cls-23 {
        clip-path: url(#clippath-13);
      }

      .cls-24 {
        clip-path: url(#clippath-12);
      }

      .cls-25 {
        clip-path: url(#clippath-10);
      }

      .cls-26 {
        clip-path: url(#clippath-15);
      }

      .cls-27 {
        clip-path: url(#clippath-11);
      }

      .cls-20 {
        fill: red;
      }

      .cls-21, .cls-6 {
        stroke-width: .8px;
      }

      .cls-4, .cls-5 {
        stroke-dasharray: 0 0 5.6 2.4;
      }

      .cls-5 {
        stroke: orange;
      }

      .cls-9, .cls-28 {
        fill: #fff;
      }

      .cls-28 {
        isolation: isolate;
        opacity: .8;
        stroke: #ccc;
      }
    </style>
    <clipPath id="clippath">
      <rect class="cls-2" x="47.2" y="23.4" width="357.1" height="266.1"/>
    </clipPath>
    <clipPath id="clippath-1">
      <rect class="cls-2" x="47.2" y="23.4" width="357.1" height="266.1"/>
    </clipPath>
    <clipPath id="clippath-2">
      <rect class="cls-2" x="47.2" y="23.4" width="357.1" height="266.1"/>
    </clipPath>
    <clipPath id="clippath-3">
      <rect class="cls-2" x="47.2" y="23.4" width="357.1" height="266.1"/>
    </clipPath>
    <clipPath id="clippath-4">
      <rect class="cls-2" x="47.2" y="23.4" width="357.1" height="266.1"/>
    </clipPath>
    <clipPath id="clippath-5">
      <rect class="cls-2" x="47.2" y="23.4" width="357.1" height="266.1"/>
    </clipPath>
    <clipPath id="clippath-6">
      <rect class="cls-2" x="47.2" y="23.4" width="357.1" height="266.1"/>
    </clipPath>
    <clipPath id="clippath-7">
      <rect class="cls-2" x="47.2" y="23.4" width="357.1" height="266.1"/>
    </clipPath>
    <clipPath id="clippath-8">
      <rect class="cls-2" x="47.2" y="23.4" width="357.1" height="266.1"/>
    </clipPath>
    <clipPath id="clippath-9">
      <rect class="cls-2" x="47.2" y="23.4" width="357.1" height="266.1"/>
    </clipPath>
    <clipPath id="clippath-10">
      <rect class="cls-2" x="47.2" y="23.4" width="357.1" height="266.1"/>
    </clipPath>
    <clipPath id="clippath-11">
      <rect class="cls-2" x="47.2" y="23.4" width="357.1" height="266.1"/>
    </clipPath>
    <clipPath id="clippath-12">
      <rect class="cls-2" x="47.2" y="23.4" width="357.1" height="266.1"/>
    </clipPath>
    <clipPath id="clippath-13">
      <rect class="cls-2" x="47.2" y="23.4" width="357.1" height="266.1"/>
    </clipPath>
    <clipPath id="clippath-14">
      <rect class="cls-2" x="47.2" y="23.4" width="357.1" height="266.1"/>
    </clipPath>
    <clipPath id="clippath-15">
      <rect class="cls-2" x="47.2" y="23.4" width="357.1" height="266.1"/>
    </clipPath>
  </defs>
  <g id="figure_1" data-name="figure 1">
    <g id="patch_1" data-name="patch 1">
      <path class="cls-9" d="M0,326h534.6V1.4H0v324.5Z"/>
    </g>
    <g id="axes_1" data-name="axes 1">
      <g id="patch_2" data-name="patch 2">
        <path class="cls-9" d="M47.2,289.5h357.1V23.4H47.2v266.1Z"/>
      </g>
      <g id="matplotlib.axis_1" data-name="matplotlib.axis 1">
        <g id="xtick_1" data-name="xtick 1">
          <g id="line2d_1" data-name="line2d 1">
            <path id="m775f98e7a4" class="cls-21" d="M388.1,289.5v3.5"/>
          </g>
          <g id="text_1" data-name="text 1">
            <path id="ArialMT-30" class="cls-8" d="M385.7,300.1c0-.8,0-1.5.3-2,.2-.5.4-.9.8-1.2.3-.3.8-.4,1.3-.4s.7,0,1,.2c.3.2.5.4.7.7.2.3.3.6.4,1.1.1.4.2,1,.2,1.7s0,1.5-.3,2c-.2.5-.4.9-.8,1.2-.3.3-.8.4-1.3.4s-1.2-.2-1.6-.7c-.5-.6-.7-1.6-.7-2.9ZM386.6,300.1c0,1.2.1,2,.4,2.3.3.4.6.6,1,.6s.7-.2,1-.6.4-1.2.4-2.3-.1-2-.4-2.3c-.3-.4-.6-.6-1-.6s-.7.2-1,.5c-.3.4-.5,1.2-.5,2.4Z"/>
          </g>
        </g>
        <g id="xtick_2" data-name="xtick 2">
          <g id="line2d_2" data-name="line2d 2">
            <path id="m775f98e7a4-2" data-name="m775f98e7a4" class="cls-21" d="M352,289.5v3.5"/>
          </g>
          <g id="text_2" data-name="text 2">
            <path id="ArialMT-36" class="cls-8" d="M354.2,298.2h-.9c0-.3-.2-.5-.3-.7-.2-.3-.5-.4-.9-.4s-.5,0-.7.2c-.3.2-.5.5-.7.9-.2.4-.2.9-.2,1.7.2-.3.5-.6.8-.7s.6-.2,1-.2c.6,0,1.1.2,1.5.6.4.4.6,1,.6,1.7s0,.9-.3,1.3c-.2.4-.5.7-.8.9-.3.2-.7.3-1.2.3-.7,0-1.3-.3-1.8-.8-.5-.5-.7-1.4-.7-2.7s.3-2.4.8-3c.4-.5,1-.8,1.8-.8s1,.2,1.4.5c.4.3.6.8.6,1.3ZM350.6,301.3c0,.3,0,.6.2.9.1.3.3.5.5.6.2.1.5.2.7.2.4,0,.7-.1,1-.4.3-.3.4-.7.4-1.2s-.1-.9-.4-1.2c-.3-.3-.6-.4-1-.4s-.7.1-1,.4c-.3.3-.4.7-.4,1.1Z"/>
          </g>
        </g>
        <g id="xtick_3" data-name="xtick 3">
          <g id="line2d_3" data-name="line2d 3">
            <path id="m775f98e7a4-3" data-name="m775f98e7a4" class="cls-21" d="M315.9,289.5v3.5"/>
          </g>
          <g id="text_3" data-name="text 3">
            <g>
              <path id="ArialMT-31" class="cls-8" d="M314.1,303.6h-.9v-5.6c-.2.2-.5.4-.8.6s-.7.4-.9.5v-.9c.5-.2.9-.5,1.3-.8.4-.3.6-.6.8-1h.6v7.2Z"/>
              <path id="ArialMT-33" class="cls-8" d="M316.4,301.7h.9c.1.4.3.7.5,1,.2.2.5.3.9.3s.8-.1,1-.4c.3-.3.4-.6.4-1.1s-.1-.7-.4-1c-.3-.3-.6-.4-1-.4s-.4,0-.6,0v-.8c.2,0,.2,0,.2,0,.4,0,.7,0,1-.3.3-.2.5-.5.5-.9s-.1-.6-.3-.8c-.2-.2-.5-.3-.8-.3s-.6.1-.9.3c-.2.2-.4.5-.4,1l-.9-.2c.1-.6.4-1,.7-1.4.4-.3.9-.5,1.4-.5s.8,0,1.1.3c.3.2.6.4.8.7.2.3.3.6.3.9s0,.6-.3.8c-.2.3-.4.5-.7.6.4,0,.8.3,1,.6.2.3.4.7.4,1.2s-.2,1.2-.7,1.6c-.5.4-1,.7-1.7.7s-1.2-.2-1.6-.6c-.4-.4-.7-.9-.7-1.5Z"/>
            </g>
          </g>
        </g>
        <g id="xtick_4" data-name="xtick 4">
          <g id="line2d_4" data-name="line2d 4">
            <path id="m775f98e7a4-4" data-name="m775f98e7a4" class="cls-21" d="M279.9,289.5v3.5"/>
          </g>
          <g id="text_4" data-name="text 4">
            <g>
              <path id="ArialMT-32" class="cls-8" d="M279.3,302.8v.8h-4.7c0-.2,0-.4.1-.6.1-.3.3-.6.6-1,.3-.3.6-.7,1.2-1.1.8-.6,1.3-1.1,1.6-1.5.3-.4.4-.7.4-1.1s-.1-.6-.4-.9c-.2-.2-.6-.4-1-.4s-.8.1-1,.4c-.3.3-.4.6-.4,1.1h-.9c0-.8.3-1.3.7-1.6.4-.4.9-.5,1.6-.5s1.2.2,1.6.6c.4.4.6.9.6,1.4s0,.6-.2.8c-.1.3-.3.6-.6.9s-.7.7-1.4,1.3c-.5.4-.9.7-1,.9-.1.2-.3.3-.4.5h3.5Z"/>
              <path id="ArialMT-30-2" data-name="ArialMT-30" class="cls-8" d="M280.3,300.1c0-.8,0-1.5.3-2,.2-.5.4-.9.8-1.2.3-.3.8-.4,1.3-.4s.7,0,1,.2c.3.2.5.4.7.7.2.3.3.6.4,1.1.1.4.2,1,.2,1.7s0,1.5-.3,2c-.2.5-.4.9-.8,1.2-.3.3-.8.4-1.3.4s-1.2-.2-1.6-.7c-.5-.6-.7-1.6-.7-2.9ZM281.2,300.1c0,1.2.1,2,.4,2.3.3.4.6.6,1,.6s.7-.2,1-.6.4-1.2.4-2.3-.1-2-.4-2.3c-.3-.4-.6-.6-1-.6s-.7.2-1,.5c-.3.4-.5,1.2-.5,2.4Z"/>
            </g>
          </g>
        </g>
        <g id="xtick_5" data-name="xtick 5">
          <g id="line2d_5" data-name="line2d 5">
            <path id="m775f98e7a4-5" data-name="m775f98e7a4" class="cls-21" d="M243.8,289.5v3.5"/>
          </g>
          <g id="text_5" data-name="text 5">
            <g>
              <path id="ArialMT-32-2" data-name="ArialMT-32" class="cls-8" d="M243.3,302.8v.8h-4.7c0-.2,0-.4.1-.6.1-.3.3-.6.6-1,.3-.3.6-.7,1.2-1.1.8-.6,1.3-1.1,1.6-1.5.3-.4.4-.7.4-1.1s-.1-.6-.4-.9c-.2-.2-.6-.4-1-.4s-.8.1-1,.4c-.3.3-.4.6-.4,1.1h-.9c0-.8.3-1.3.7-1.6.4-.4.9-.5,1.6-.5s1.2.2,1.6.6c.4.4.6.9.6,1.4s0,.6-.2.8c-.1.3-.3.6-.6.9s-.7.7-1.4,1.3c-.5.4-.9.7-1,.9-.1.2-.3.3-.4.5h3.5Z"/>
              <path id="ArialMT-36-2" data-name="ArialMT-36" class="cls-8" d="M248.8,298.2h-.9c0-.3-.2-.5-.3-.7-.2-.3-.5-.4-.9-.4s-.5,0-.7.2c-.3.2-.5.5-.7.9-.2.4-.2.9-.2,1.7.2-.3.5-.6.8-.7s.6-.2,1-.2c.6,0,1.1.2,1.5.6.4.4.6,1,.6,1.7s0,.9-.3,1.3c-.2.4-.5.7-.8.9-.3.2-.7.3-1.2.3-.7,0-1.3-.3-1.8-.8-.5-.5-.7-1.4-.7-2.7s.3-2.4.8-3c.4-.5,1-.8,1.8-.8s1,.2,1.4.5c.4.3.6.8.6,1.3ZM245.2,301.3c0,.3,0,.6.2.9.1.3.3.5.5.6.2.1.5.2.7.2.4,0,.7-.1,1-.4.3-.3.4-.7.4-1.2s-.1-.9-.4-1.2c-.3-.3-.6-.4-1-.4s-.7.1-1,.4c-.3.3-.4.7-.4,1.1Z"/>
            </g>
          </g>
        </g>
        <g id="xtick_6" data-name="xtick 6">
          <g id="line2d_6" data-name="line2d 6">
            <path id="m775f98e7a4-6" data-name="m775f98e7a4" class="cls-21" d="M207.7,289.5v3.5"/>
          </g>
          <g id="text_6" data-name="text 6">
            <g>
              <path id="ArialMT-33-2" data-name="ArialMT-33" class="cls-8" d="M202.6,301.7h.9c.1.4.3.7.5,1,.2.2.5.3.9.3s.8-.1,1-.4c.3-.3.4-.6.4-1.1s-.1-.7-.4-1c-.3-.3-.6-.4-1-.4s-.4,0-.6,0v-.8c.2,0,.2,0,.2,0,.4,0,.7,0,1-.3.3-.2.5-.5.5-.9s-.1-.6-.3-.8c-.2-.2-.5-.3-.8-.3s-.6.1-.9.3c-.2.2-.4.5-.4,1l-.9-.2c.1-.6.4-1,.7-1.4.4-.3.9-.5,1.4-.5s.8,0,1.1.3c.3.2.6.4.8.7.2.3.3.6.3.9s0,.6-.3.8c-.2.3-.4.5-.7.6.4,0,.8.3,1,.6.2.3.4.7.4,1.2s-.2,1.2-.7,1.6c-.5.4-1,.7-1.7.7s-1.2-.2-1.6-.6c-.4-.4-.7-.9-.7-1.5Z"/>
              <path id="ArialMT-33-3" data-name="ArialMT-33" class="cls-8" d="M208.1,301.7h.9c.1.4.3.7.5,1,.2.2.5.3.9.3s.8-.1,1-.4c.3-.3.4-.6.4-1.1s-.1-.7-.4-1c-.3-.3-.6-.4-1-.4s-.4,0-.6,0v-.8c.2,0,.2,0,.2,0,.4,0,.7,0,1-.3.3-.2.5-.5.5-.9s-.1-.6-.3-.8c-.2-.2-.5-.3-.8-.3s-.6.1-.9.3c-.2.2-.4.5-.4,1l-.9-.2c.1-.6.4-1,.7-1.4.4-.3.9-.5,1.4-.5s.8,0,1.1.3c.3.2.6.4.8.7.2.3.3.6.3.9s0,.6-.3.8c-.2.3-.4.5-.7.6.4,0,.8.3,1,.6.2.3.4.7.4,1.2s-.2,1.2-.7,1.6c-.5.4-1,.7-1.7.7s-1.2-.2-1.6-.6c-.4-.4-.7-.9-.7-1.5Z"/>
            </g>
          </g>
        </g>
        <g id="xtick_7" data-name="xtick 7">
          <g id="line2d_7" data-name="line2d 7">
            <path id="m775f98e7a4-7" data-name="m775f98e7a4" class="cls-21" d="M171.7,289.5v3.5"/>
          </g>
          <g id="text_7" data-name="text 7">
            <g>
              <path id="ArialMT-34" class="cls-8" d="M169.3,303.6v-1.7h-3.1v-.8l3.3-4.6h.7v4.6h1v.8h-1v1.7h-.9ZM169.3,301.1v-3.2l-2.2,3.2h2.2Z"/>
              <path id="ArialMT-30-3" data-name="ArialMT-30" class="cls-8" d="M172.1,300.1c0-.8,0-1.5.3-2,.2-.5.4-.9.8-1.2.3-.3.8-.4,1.3-.4s.7,0,1,.2c.3.2.5.4.7.7.2.3.3.6.4,1.1.1.4.2,1,.2,1.7s0,1.5-.3,2c-.2.5-.4.9-.8,1.2-.3.3-.8.4-1.3.4s-1.2-.2-1.6-.7c-.5-.6-.7-1.6-.7-2.9ZM173,300.1c0,1.2.1,2,.4,2.3.3.4.6.6,1,.6s.7-.2,1-.6.4-1.2.4-2.3-.1-2-.4-2.3c-.3-.4-.6-.6-1-.6s-.7.2-1,.5c-.3.4-.5,1.2-.5,2.4Z"/>
            </g>
          </g>
        </g>
        <g id="xtick_8" data-name="xtick 8">
          <g id="line2d_8" data-name="line2d 8">
            <path id="m775f98e7a4-8" data-name="m775f98e7a4" class="cls-21" d="M135.6,289.5v3.5"/>
          </g>
          <g id="text_8" data-name="text 8">
            <g>
              <path id="ArialMT-34-2" data-name="ArialMT-34" class="cls-8" d="M133.3,303.6v-1.7h-3.1v-.8l3.3-4.6h.7v4.6h1v.8h-1v1.7h-.9ZM133.3,301.1v-3.2l-2.2,3.2h2.2Z"/>
              <path id="ArialMT-36-3" data-name="ArialMT-36" class="cls-8" d="M140.6,298.2h-.9c0-.3-.2-.5-.3-.7-.2-.3-.5-.4-.9-.4s-.5,0-.7.2c-.3.2-.5.5-.7.9-.2.4-.2.9-.2,1.7.2-.3.5-.6.8-.7s.6-.2,1-.2c.6,0,1.1.2,1.5.6.4.4.6,1,.6,1.7s0,.9-.3,1.3c-.2.4-.5.7-.8.9-.3.2-.7.3-1.2.3-.7,0-1.3-.3-1.8-.8-.5-.5-.7-1.4-.7-2.7s.3-2.4.8-3c.4-.5,1-.8,1.8-.8s1,.2,1.4.5c.4.3.6.8.6,1.3ZM137,301.3c0,.3,0,.6.2.9.1.3.3.5.5.6.2.1.5.2.7.2.4,0,.7-.1,1-.4.3-.3.4-.7.4-1.2s-.1-.9-.4-1.2c-.3-.3-.6-.4-1-.4s-.7.1-1,.4c-.3.3-.4.7-.4,1.1Z"/>
            </g>
          </g>
        </g>
        <g id="xtick_9" data-name="xtick 9">
          <g id="line2d_9" data-name="line2d 9">
            <path id="m775f98e7a4-9" data-name="m775f98e7a4" class="cls-21" d="M99.5,289.5v3.5"/>
          </g>
          <g id="text_9" data-name="text 9">
            <g>
              <path id="ArialMT-35" class="cls-8" d="M94.4,301.8h.9c0,.4.2.7.5.9.2.2.5.3.9.3s.8-.2,1.1-.5c.3-.3.4-.7.4-1.3s-.1-.9-.4-1.2c-.3-.3-.7-.4-1.1-.4s-.5,0-.8.2c-.2.1-.4.3-.5.5h-.8c0-.1.7-3.8.7-3.8h3.6v.8h-2.9l-.4,1.9c.4-.3.9-.5,1.4-.5s1.2.2,1.6.7c.4.4.6,1,.6,1.7s-.2,1.2-.6,1.7c-.5.6-1.1.9-1.9.9s-1.2-.2-1.6-.5c-.4-.4-.6-.8-.7-1.5Z"/>
              <path id="ArialMT-33-4" data-name="ArialMT-33" class="cls-8" d="M99.9,301.7h.9c.1.4.3.7.5,1,.2.2.5.3.9.3s.8-.1,1-.4c.3-.3.4-.6.4-1.1s-.1-.7-.4-1c-.3-.3-.6-.4-1-.4s-.4,0-.6,0v-.8c.2,0,.2,0,.2,0,.4,0,.7,0,1-.3.3-.2.5-.5.5-.9s-.1-.6-.3-.8c-.2-.2-.5-.3-.8-.3s-.6.1-.9.3c-.2.2-.4.5-.4,1l-.9-.2c.1-.6.4-1,.7-1.4.4-.3.9-.5,1.4-.5s.8,0,1.1.3c.3.2.6.4.8.7.2.3.3.6.3.9s0,.6-.3.8c-.2.3-.4.5-.7.6.4,0,.8.3,1,.6.2.3.4.7.4,1.2s-.2,1.2-.7,1.6c-.5.4-1,.7-1.7.7s-1.2-.2-1.6-.6c-.4-.4-.7-.9-.7-1.5Z"/>
            </g>
          </g>
        </g>
        <g id="xtick_10" data-name="xtick 10">
          <g id="line2d_10" data-name="line2d 10">
            <path id="m775f98e7a4-10" data-name="m775f98e7a4" class="cls-21" d="M63.4,289.5v3.5"/>
          </g>
          <g id="text_10" data-name="text 10">
            <g>
              <path id="ArialMT-36-4" data-name="ArialMT-36" class="cls-8" d="M62.8,298.2h-.9c0-.3-.2-.5-.3-.7-.2-.3-.5-.4-.9-.4s-.5,0-.7.2c-.3.2-.5.5-.7.9-.2.4-.2.9-.2,1.7.2-.3.5-.6.8-.7s.6-.2,1-.2c.6,0,1.1.2,1.5.6.4.4.6,1,.6,1.7s0,.9-.3,1.3c-.2.4-.5.7-.8.9-.3.2-.7.3-1.2.3-.7,0-1.3-.3-1.8-.8-.5-.5-.7-1.4-.7-2.7s.3-2.4.8-3c.4-.5,1-.8,1.8-.8s1,.2,1.4.5c.4.3.6.8.6,1.3ZM59.3,301.3c0,.3,0,.6.2.9.1.3.3.5.5.6.2.1.5.2.7.2.4,0,.7-.1,1-.4.3-.3.4-.7.4-1.2s-.1-.9-.4-1.2c-.3-.3-.6-.4-1-.4s-.7.1-1,.4c-.3.3-.4.7-.4,1.1Z"/>
              <path id="ArialMT-30-4" data-name="ArialMT-30" class="cls-8" d="M63.9,300.1c0-.8,0-1.5.3-2,.2-.5.4-.9.8-1.2.3-.3.8-.4,1.3-.4s.7,0,1,.2c.3.2.5.4.7.7.2.3.3.6.4,1.1.1.4.2,1,.2,1.7s0,1.5-.3,2c-.2.5-.4.9-.8,1.2-.3.3-.8.4-1.3.4s-1.2-.2-1.6-.7c-.5-.6-.7-1.6-.7-2.9ZM64.8,300.1c0,1.2.1,2,.4,2.3.3.4.6.6,1,.6s.7-.2,1-.6.4-1.2.4-2.3-.1-2-.4-2.3c-.3-.4-.6-.6-1-.6s-.7.2-1,.5c-.3.4-.5,1.2-.5,2.4Z"/>
            </g>
          </g>
        </g>
        <g id="text_11" data-name="text 11">
          <g>
            <path id="ArialMT-53" class="cls-8" d="M155.3,314.5h.9c0,.3.1.6.3.8.2.2.4.4.7.6.3.1.7.2,1.1.2s.7,0,1-.2c.3-.1.5-.3.6-.4.1-.2.2-.4.2-.6s0-.4-.2-.6-.3-.3-.6-.4c-.2,0-.6-.2-1.3-.3-.7-.2-1.1-.3-1.4-.4-.3-.2-.6-.4-.8-.7-.2-.3-.3-.6-.3-.9s.1-.7.3-1c.2-.3.5-.6.9-.7.4-.2.8-.2,1.3-.2s1,0,1.4.3c.4.2.7.4.9.8.2.3.3.7.4,1.1h-.9c0-.4-.2-.7-.5-1-.3-.2-.7-.3-1.2-.3s-1,.1-1.3.3c-.3.2-.4.5-.4.8s0,.5.3.6c.2.2.7.3,1.4.5.8.2,1.3.3,1.6.5.4.2.7.4.9.7.2.3.3.6.3,1s-.1.7-.3,1.1c-.2.3-.5.6-.9.8-.4.2-.9.3-1.4.3s-1.2,0-1.6-.3c-.4-.2-.8-.5-1-.9-.2-.4-.4-.8-.4-1.3Z"/>
            <path id="ArialMT-65" class="cls-8" d="M165.8,315.1h.9c-.1.6-.4,1.1-.8,1.3-.4.3-.9.4-1.5.4s-1.4-.2-1.8-.7c-.4-.5-.7-1.1-.7-2s.2-1.6.7-2c.5-.5,1-.7,1.7-.7s1.3.2,1.7.7.7,1.1.7,2,0,.1,0,.2h-3.9c0,.6.2,1,.5,1.3.3.3.7.5,1.1.5s.6,0,.8-.3c.2-.2.4-.4.5-.8ZM162.9,313.7h2.9c0-.4-.1-.8-.3-1-.3-.3-.6-.5-1.1-.5s-.7.1-1,.4-.4.6-.5,1.1Z"/>
            <path id="ArialMT-63" class="cls-8" d="M171.2,314.9h.9c0,.7-.3,1.2-.7,1.5-.4.3-.9.5-1.4.5s-1.3-.2-1.7-.7c-.4-.5-.6-1.1-.6-2s0-1,.3-1.5c.2-.4.5-.7.8-.9.4-.2.8-.3,1.2-.3s1,.1,1.4.4c.4.3.6.7.7,1.2h-.9c0-.2-.2-.5-.4-.7-.2-.2-.5-.3-.8-.3-.4,0-.8.2-1.1.5-.3.3-.4.8-.4,1.5s.1,1.2.4,1.5c.3.3.6.5,1,.5s.6-.1.9-.3c.2-.2.4-.5.4-1Z"/>
            <path id="ArialMT-6f" class="cls-8" d="M172.5,314.2c0-1,.3-1.7.8-2.1.4-.4,1-.6,1.6-.6s1.3.2,1.7.7c.5.5.7,1.1.7,1.9s-.1,1.2-.3,1.6c-.2.4-.5.7-.9.9-.4.2-.8.3-1.3.3-.7,0-1.3-.2-1.8-.7-.4-.5-.7-1.1-.7-2ZM173.4,314.2c0,.7.1,1.2.4,1.5.3.3.7.5,1.1.5s.8-.2,1.1-.5c.3-.3.4-.8.4-1.5s-.1-1.1-.4-1.5-.7-.5-1.1-.5-.8.2-1.1.5c-.3.3-.4.8-.4,1.5Z"/>
            <path id="ArialMT-6e" class="cls-8" d="M178.3,316.8v-5.2h.8v.7c.4-.6.9-.9,1.7-.9s.6,0,.9.2.5.3.6.4.2.4.3.6c0,.2,0,.4,0,.9v3.2h-.9v-3.2c0-.4,0-.6-.1-.8,0-.2-.2-.3-.4-.4-.2-.1-.4-.2-.6-.2-.4,0-.7.1-1,.4s-.4.7-.4,1.4v2.8h-.9Z"/>
            <path id="ArialMT-64" class="cls-8" d="M187.3,316.8v-.7c-.3.5-.8.8-1.5.8s-.8-.1-1.1-.3-.6-.5-.8-1c-.2-.4-.3-.9-.3-1.4s0-1,.3-1.4c.2-.4.4-.7.8-1,.3-.2.7-.3,1.2-.3s.6,0,.8.2c.2.1.4.3.6.5v-2.6h.9v7.2h-.8ZM184.5,314.2c0,.7.1,1.2.4,1.5.3.3.6.5,1,.5s.7-.2,1-.5c.3-.3.4-.8.4-1.4s-.1-1.2-.4-1.6c-.3-.3-.6-.5-1-.5s-.7.2-1,.5c-.3.3-.4.8-.4,1.5Z"/>
            <path id="ArialMT-73" class="cls-8" d="M189.1,315.2h.9c0,.2.2.5.4.7.2.2.5.3.9.3s.7,0,.9-.2c.2-.2.3-.4.3-.6s0-.4-.3-.5c-.1,0-.4-.2-.9-.3-.6-.2-1.1-.3-1.3-.4s-.4-.3-.6-.5c-.1-.2-.2-.4-.2-.7s0-.4.2-.6c.1-.2.3-.4.4-.5.1-.1.3-.2.6-.3.2,0,.5-.1.8-.1.4,0,.8,0,1.1.2.3.1.5.3.7.5.1.2.2.5.3.8h-.9c0-.1-.2-.4-.3-.5-.2-.2-.5-.2-.8-.2s-.7,0-.9.2c-.2.1-.3.3-.3.5s0,.2.1.3c0,0,.2.2.3.2,0,0,.3.1.8.2.6.2,1.1.3,1.3.4.2.1.4.3.6.5.1.2.2.5.2.8s0,.6-.3.8c-.2.3-.4.5-.7.6-.3.1-.7.2-1.1.2-.7,0-1.2-.1-1.5-.4-.4-.3-.6-.7-.7-1.2Z"/>
            <path id="ArialMT-20" class="cls-8" d="M193.8,316.8"/>
            <path id="ArialMT-42" class="cls-8" d="M197.3,316.8v-7.2h2.7c.5,0,1,0,1.3.2s.6.4.8.7c.2.3.3.6.3.9s0,.6-.2.9c-.2.3-.4.5-.8.7.4.1.8.3,1,.7.2.3.4.7.4,1.1s0,.6-.2.9c-.1.3-.3.5-.5.7s-.5.3-.8.4c-.3,0-.7.1-1.2.1h-2.7ZM198.3,312.6h1.5c.4,0,.7,0,.9,0,.2,0,.4-.2.5-.4.1-.2.2-.4.2-.6s0-.4-.2-.6c-.1-.2-.3-.3-.5-.4-.2,0-.6-.1-1.1-.1h-1.4v2.2ZM198.3,315.9h1.8c.3,0,.5,0,.6,0,.2,0,.4-.1.5-.2.1,0,.3-.2.4-.4,0-.2.1-.4.1-.6s0-.5-.2-.7c-.1-.2-.3-.3-.6-.4-.2,0-.6-.1-1-.1h-1.7v2.5Z"/>
            <path id="ArialMT-65-2" data-name="ArialMT-65" class="cls-8" d="M207.5,315.1h.9c-.1.6-.4,1.1-.8,1.3-.4.3-.9.4-1.5.4s-1.4-.2-1.8-.7c-.4-.5-.7-1.1-.7-2s.2-1.6.7-2c.5-.5,1-.7,1.7-.7s1.3.2,1.7.7.7,1.1.7,2,0,.1,0,.2h-3.9c0,.6.2,1,.5,1.3.3.3.7.5,1.1.5s.6,0,.8-.3c.2-.2.4-.4.5-.8ZM204.6,313.7h2.9c0-.4-.1-.8-.3-1-.3-.3-.6-.5-1.1-.5s-.7.1-1,.4-.4.6-.5,1.1Z"/>
            <path id="ArialMT-66" class="cls-8" d="M209.7,316.8v-4.5h-.8v-.7h.8v-.6c0-.3,0-.6,0-.8,0-.2.2-.4.4-.6.2-.1.5-.2.9-.2s.5,0,.8,0v.8c-.3,0-.5,0-.7,0-.3,0-.5,0-.6.2-.1.1-.2.3-.2.6v.5h1v.7h-1v4.5h-.9Z"/>
            <path id="ArialMT-6f-2" data-name="ArialMT-6f" class="cls-8" d="M211.9,314.2c0-1,.3-1.7.8-2.1.4-.4,1-.6,1.6-.6s1.3.2,1.7.7c.5.5.7,1.1.7,1.9s-.1,1.2-.3,1.6c-.2.4-.5.7-.9.9-.4.2-.8.3-1.3.3-.7,0-1.3-.2-1.8-.7-.4-.5-.7-1.1-.7-2ZM212.8,314.2c0,.7.1,1.2.4,1.5.3.3.7.5,1.1.5s.8-.2,1.1-.5c.3-.3.4-.8.4-1.5s-.1-1.1-.4-1.5-.7-.5-1.1-.5-.8.2-1.1.5c-.3.3-.4.8-.4,1.5Z"/>
            <path id="ArialMT-72" class="cls-8" d="M217.8,316.8v-5.2h.8v.8c.2-.4.4-.6.6-.7.2-.1.4-.2.6-.2.3,0,.6,0,.9.3l-.3.8c-.2-.1-.4-.2-.6-.2s-.4,0-.5.2-.3.3-.3.5c0,.3-.1.7-.1,1v2.7h-.9Z"/>
            <path id="ArialMT-65-3" data-name="ArialMT-65" class="cls-8" d="M224.7,315.1h.9c-.1.6-.4,1.1-.8,1.3-.4.3-.9.4-1.5.4s-1.4-.2-1.8-.7c-.4-.5-.7-1.1-.7-2s.2-1.6.7-2c.5-.5,1-.7,1.7-.7s1.3.2,1.7.7.7,1.1.7,2,0,.1,0,.2h-3.9c0,.6.2,1,.5,1.3.3.3.7.5,1.1.5s.6,0,.8-.3c.2-.2.4-.4.5-.8ZM221.8,313.7h2.9c0-.4-.1-.8-.3-1-.3-.3-.6-.5-1.1-.5s-.7.1-1,.4-.4.6-.5,1.1Z"/>
            <path id="ArialMT-20-2" data-name="ArialMT-20" class="cls-8" d="M226.1,316.8"/>
            <path id="ArialMT-53-2" data-name="ArialMT-53" class="cls-8" d="M229.3,314.5h.9c0,.3.1.6.3.8.2.2.4.4.7.6.3.1.7.2,1.1.2s.7,0,1-.2c.3-.1.5-.3.6-.4.1-.2.2-.4.2-.6s0-.4-.2-.6-.3-.3-.6-.4c-.2,0-.6-.2-1.3-.3-.7-.2-1.1-.3-1.4-.4-.3-.2-.6-.4-.8-.7-.2-.3-.3-.6-.3-.9s.1-.7.3-1c.2-.3.5-.6.9-.7.4-.2.8-.2,1.3-.2s1,0,1.4.3c.4.2.7.4.9.8.2.3.3.7.4,1.1h-.9c0-.4-.2-.7-.5-1-.3-.2-.7-.3-1.2-.3s-1,.1-1.3.3c-.3.2-.4.5-.4.8s0,.5.3.6c.2.2.7.3,1.4.5.8.2,1.3.3,1.6.5.4.2.7.4.9.7.2.3.3.6.3,1s-.1.7-.3,1.1c-.2.3-.5.6-.9.8-.4.2-.9.3-1.4.3s-1.2,0-1.6-.3c-.4-.2-.8-.5-1-.9-.2-.4-.4-.8-.4-1.3Z"/>
            <path id="ArialMT-74" class="cls-8" d="M238.1,316v.8c-.1,0-.3,0-.5,0-.3,0-.6,0-.7-.2-.2-.1-.3-.2-.4-.4,0-.2-.1-.5-.1-1v-3h-.6v-.7h.6v-1.3l.9-.5v1.8h.9v.7h-.9v3c0,.3,0,.4,0,.5,0,0,0,.1.2.2,0,0,.2,0,.3,0s.2,0,.4,0Z"/>
            <path id="ArialMT-69" class="cls-8" d="M238.9,310.6v-1h.9v1h-.9ZM238.9,316.8v-5.2h.9v5.2h-.9Z"/>
            <path id="ArialMT-6d" class="cls-8" d="M241.2,316.8v-5.2h.8v.7c.2-.3.4-.5.6-.6.3-.2.6-.2.9-.2s.7,0,.9.2.4.4.5.7c.4-.6.9-.9,1.6-.9s.9.1,1.2.4c.3.3.4.7.4,1.3v3.6h-.9v-3.3c0-.4,0-.6,0-.8,0-.2-.2-.3-.3-.4-.1,0-.3-.1-.5-.1-.4,0-.7.1-.9.4-.2.2-.4.6-.4,1.2v3h-.9v-3.4c0-.4,0-.7-.2-.9-.1-.2-.4-.3-.7-.3s-.5,0-.7.2c-.2.1-.4.3-.5.6,0,.3-.1.6-.1,1.1v2.7h-.9Z"/>
            <path id="ArialMT-75" class="cls-8" d="M252.9,316.8v-.8c-.4.6-1,.9-1.6.9s-.6,0-.9-.2c-.3-.1-.5-.3-.6-.4-.1-.2-.2-.4-.3-.7,0-.2,0-.4,0-.8v-3.2h.9v2.9c0,.5,0,.8,0,.9,0,.2.2.4.4.5.2.1.4.2.7.2s.5,0,.7-.2c.2-.1.4-.3.5-.6,0-.2.1-.6.1-1v-2.8h.9v5.2h-.8Z"/>
            <path id="ArialMT-6c" class="cls-8" d="M255,316.8v-7.2h.9v7.2h-.9Z"/>
            <path id="ArialMT-75-2" data-name="ArialMT-75" class="cls-8" d="M260.7,316.8v-.8c-.4.6-1,.9-1.6.9s-.6,0-.9-.2c-.3-.1-.5-.3-.6-.4-.1-.2-.2-.4-.3-.7,0-.2,0-.4,0-.8v-3.2h.9v2.9c0,.5,0,.8,0,.9,0,.2.2.4.4.5.2.1.4.2.7.2s.5,0,.7-.2c.2-.1.4-.3.5-.6,0-.2.1-.6.1-1v-2.8h.9v5.2h-.8Z"/>
            <path id="ArialMT-73-2" data-name="ArialMT-73" class="cls-8" d="M262.5,315.2h.9c0,.2.2.5.4.7.2.2.5.3.9.3s.7,0,.9-.2c.2-.2.3-.4.3-.6s0-.4-.3-.5c-.1,0-.4-.2-.9-.3-.6-.2-1.1-.3-1.3-.4s-.4-.3-.6-.5c-.1-.2-.2-.4-.2-.7s0-.4.2-.6c.1-.2.3-.4.4-.5.1-.1.3-.2.6-.3.2,0,.5-.1.8-.1.4,0,.8,0,1.1.2.3.1.5.3.7.5.1.2.2.5.3.8h-.9c0-.1-.2-.4-.3-.5-.2-.2-.5-.2-.8-.2s-.7,0-.9.2c-.2.1-.3.3-.3.5s0,.2.1.3c0,0,.2.2.3.2,0,0,.3.1.8.2.6.2,1.1.3,1.3.4.2.1.4.3.6.5.1.2.2.5.2.8s0,.6-.3.8c-.2.3-.4.5-.7.6-.3.1-.7.2-1.1.2-.7,0-1.2-.1-1.5-.4-.4-.3-.6-.7-.7-1.2Z"/>
            <path id="ArialMT-20-3" data-name="ArialMT-20" class="cls-8" d="M267.2,316.8"/>
            <path id="ArialMT-4f" class="cls-8" d="M270.4,313.3c0-1.2.3-2.1,1-2.8.6-.7,1.5-1,2.5-1s1.3.2,1.8.5c.5.3.9.8,1.2,1.3.3.6.4,1.2.4,1.9s-.1,1.4-.4,1.9c-.3.6-.7,1-1.2,1.3-.5.3-1.1.4-1.7.4s-1.3-.2-1.8-.5c-.5-.3-.9-.8-1.2-1.3-.3-.6-.4-1.2-.4-1.8ZM271.4,313.3c0,.9.2,1.5.7,2,.5.5,1,.7,1.7.7s1.3-.3,1.8-.8c.5-.5.7-1.2.7-2.1s0-1.1-.3-1.5-.5-.8-.9-1c-.4-.2-.8-.4-1.3-.4-.7,0-1.2.2-1.7.7-.5.5-.7,1.2-.7,2.3Z"/>
            <path id="ArialMT-6e-2" data-name="ArialMT-6e" class="cls-8" d="M278.4,316.8v-5.2h.8v.7c.4-.6.9-.9,1.7-.9s.6,0,.9.2.5.3.6.4.2.4.3.6c0,.2,0,.4,0,.9v3.2h-.9v-3.2c0-.4,0-.6-.1-.8,0-.2-.2-.3-.4-.4-.2-.1-.4-.2-.6-.2-.4,0-.7.1-1,.4s-.4.7-.4,1.4v2.8h-.9Z"/>
            <path id="ArialMT-73-3" data-name="ArialMT-73" class="cls-8" d="M283.6,315.2h.9c0,.2.2.5.4.7.2.2.5.3.9.3s.7,0,.9-.2c.2-.2.3-.4.3-.6s0-.4-.3-.5c-.1,0-.4-.2-.9-.3-.6-.2-1.1-.3-1.3-.4s-.4-.3-.6-.5c-.1-.2-.2-.4-.2-.7s0-.4.2-.6c.1-.2.3-.4.4-.5.1-.1.3-.2.6-.3.2,0,.5-.1.8-.1.4,0,.8,0,1.1.2.3.1.5.3.7.5.1.2.2.5.3.8h-.9c0-.1-.2-.4-.3-.5-.2-.2-.5-.2-.8-.2s-.7,0-.9.2c-.2.1-.3.3-.3.5s0,.2.1.3c0,0,.2.2.3.2,0,0,.3.1.8.2.6.2,1.1.3,1.3.4.2.1.4.3.6.5.1.2.2.5.2.8s0,.6-.3.8c-.2.3-.4.5-.7.6-.3.1-.7.2-1.1.2-.7,0-1.2-.1-1.5-.4-.4-.3-.6-.7-.7-1.2Z"/>
            <path id="ArialMT-65-4" data-name="ArialMT-65" class="cls-8" d="M292.5,315.1h.9c-.1.6-.4,1.1-.8,1.3-.4.3-.9.4-1.5.4s-1.4-.2-1.8-.7c-.4-.5-.7-1.1-.7-2s.2-1.6.7-2c.5-.5,1-.7,1.7-.7s1.3.2,1.7.7.7,1.1.7,2,0,.1,0,.2h-3.9c0,.6.2,1,.5,1.3.3.3.7.5,1.1.5s.6,0,.8-.3c.2-.2.4-.4.5-.8ZM289.6,313.7h2.9c0-.4-.1-.8-.3-1-.3-.3-.6-.5-1.1-.5s-.7.1-1,.4-.4.6-.5,1.1Z"/>
            <path id="ArialMT-74-2" data-name="ArialMT-74" class="cls-8" d="M296.4,316v.8c-.1,0-.3,0-.5,0-.3,0-.6,0-.7-.2-.2-.1-.3-.2-.4-.4,0-.2-.1-.5-.1-1v-3h-.6v-.7h.6v-1.3l.9-.5v1.8h.9v.7h-.9v3c0,.3,0,.4,0,.5,0,0,0,.1.2.2,0,0,.2,0,.3,0s.2,0,.4,0Z"/>
          </g>
        </g>
      </g>
      <g id="matplotlib.axis_2" data-name="matplotlib.axis 2">
        <g id="ytick_1" data-name="ytick 1">
          <g id="line2d_11" data-name="line2d 11">
            <path id="m71416fbc0f" class="cls-21" d="M47.2,286.2h-3.5"/>
          </g>
          <g id="text_12" data-name="text 12">
            <g>
              <path id="ArialMT-2212" class="cls-8" d="M25.7,286.6h-4.7v-.8h4.7v.8Z"/>
              <path id="ArialMT-30-5" data-name="ArialMT-30" class="cls-8" d="M26.7,286.2c0-.8,0-1.5.3-2,.2-.5.4-.9.8-1.2.3-.3.8-.4,1.3-.4s.7,0,1,.2c.3.2.5.4.7.7.2.3.3.6.4,1.1.1.4.2,1,.2,1.7s0,1.5-.3,2c-.2.5-.4.9-.8,1.2-.3.3-.8.4-1.3.4s-1.2-.2-1.6-.7c-.5-.6-.7-1.6-.7-2.9ZM27.6,286.2c0,1.2.1,2,.4,2.3.3.4.6.6,1,.6s.7-.2,1-.6.4-1.2.4-2.3-.1-2-.4-2.3c-.3-.4-.6-.6-1-.6s-.7.2-1,.5c-.3.4-.5,1.2-.5,2.4Z"/>
              <path id="ArialMT-2e" class="cls-8" d="M32.8,289.8v-1h1v1h-1Z"/>
              <path id="ArialMT-34-3" data-name="ArialMT-34" class="cls-8" d="M37.9,289.8v-1.7h-3.1v-.8l3.3-4.6h.7v4.6h1v.8h-1v1.7h-.9ZM37.9,287.2v-3.2l-2.2,3.2h2.2Z"/>
            </g>
          </g>
        </g>
        <g id="ytick_2" data-name="ytick 2">
          <g id="line2d_12" data-name="line2d 12">
            <path id="m71416fbc0f-2" data-name="m71416fbc0f" class="cls-21" d="M47.2,249.3h-3.5"/>
          </g>
          <g id="text_13" data-name="text 13">
            <g>
              <path id="ArialMT-2212-2" data-name="ArialMT-2212" class="cls-8" d="M25.7,249.7h-4.7v-.8h4.7v.8Z"/>
              <path id="ArialMT-30-6" data-name="ArialMT-30" class="cls-8" d="M26.7,249.3c0-.8,0-1.5.3-2,.2-.5.4-.9.8-1.2.3-.3.8-.4,1.3-.4s.7,0,1,.2c.3.2.5.4.7.7.2.3.3.6.4,1.1.1.4.2,1,.2,1.7s0,1.5-.3,2c-.2.5-.4.9-.8,1.2-.3.3-.8.4-1.3.4s-1.2-.2-1.6-.7c-.5-.6-.7-1.6-.7-2.9ZM27.6,249.3c0,1.2.1,2,.4,2.3.3.4.6.6,1,.6s.7-.2,1-.6.4-1.2.4-2.3-.1-2-.4-2.3c-.3-.4-.6-.6-1-.6s-.7.2-1,.5c-.3.4-.5,1.2-.5,2.4Z"/>
              <path id="ArialMT-2e-2" data-name="ArialMT-2e" class="cls-8" d="M32.8,252.9v-1h1v1h-1Z"/>
              <path id="ArialMT-32-3" data-name="ArialMT-32" class="cls-8" d="M39.7,252v.8h-4.7c0-.2,0-.4.1-.6.1-.3.3-.6.6-1,.3-.3.6-.7,1.2-1.1.8-.6,1.3-1.1,1.6-1.5.3-.4.4-.7.4-1.1s-.1-.6-.4-.9c-.2-.2-.6-.4-1-.4s-.8.1-1,.4c-.3.3-.4.6-.4,1.1h-.9c0-.8.3-1.3.7-1.6.4-.4.9-.5,1.6-.5s1.2.2,1.6.6c.4.4.6.9.6,1.4s0,.6-.2.8c-.1.3-.3.6-.6.9s-.7.7-1.4,1.3c-.5.4-.9.7-1,.9-.1.2-.3.3-.4.5h3.5Z"/>
            </g>
          </g>
        </g>
        <g id="ytick_3" data-name="ytick 3">
          <g id="line2d_13" data-name="line2d 13">
            <path id="m71416fbc0f-3" data-name="m71416fbc0f" class="cls-21" d="M47.2,212.4h-3.5"/>
          </g>
          <g id="text_14" data-name="text 14">
            <g>
              <path id="ArialMT-30-7" data-name="ArialMT-30" class="cls-8" d="M26.7,212.4c0-.8,0-1.5.3-2,.2-.5.4-.9.8-1.2.3-.3.8-.4,1.3-.4s.7,0,1,.2c.3.2.5.4.7.7.2.3.3.6.4,1.1.1.4.2,1,.2,1.7s0,1.5-.3,2c-.2.5-.4.9-.8,1.2-.3.3-.8.4-1.3.4s-1.2-.2-1.6-.7c-.5-.6-.7-1.6-.7-2.9ZM27.6,212.4c0,1.2.1,2,.4,2.3.3.4.6.6,1,.6s.7-.2,1-.6.4-1.2.4-2.3-.1-2-.4-2.3c-.3-.4-.6-.6-1-.6s-.7.2-1,.5c-.3.4-.5,1.2-.5,2.4Z"/>
              <path id="ArialMT-2e-3" data-name="ArialMT-2e" class="cls-8" d="M32.8,215.9v-1h1v1h-1Z"/>
              <path id="ArialMT-30-8" data-name="ArialMT-30" class="cls-8" d="M35.1,212.4c0-.8,0-1.5.3-2,.2-.5.4-.9.8-1.2.3-.3.8-.4,1.3-.4s.7,0,1,.2c.3.2.5.4.7.7.2.3.3.6.4,1.1.1.4.2,1,.2,1.7s0,1.5-.3,2c-.2.5-.4.9-.8,1.2-.3.3-.8.4-1.3.4s-1.2-.2-1.6-.7c-.5-.6-.7-1.6-.7-2.9ZM36,212.4c0,1.2.1,2,.4,2.3.3.4.6.6,1,.6s.7-.2,1-.6.4-1.2.4-2.3-.1-2-.4-2.3c-.3-.4-.6-.6-1-.6s-.7.2-1,.5c-.3.4-.5,1.2-.5,2.4Z"/>
            </g>
          </g>
        </g>
        <g id="ytick_4" data-name="ytick 4">
          <g id="line2d_14" data-name="line2d 14">
            <path id="m71416fbc0f-4" data-name="m71416fbc0f" class="cls-21" d="M47.2,175.4h-3.5"/>
          </g>
          <g id="text_15" data-name="text 15">
            <g>
              <path id="ArialMT-30-9" data-name="ArialMT-30" class="cls-8" d="M26.7,175.5c0-.8,0-1.5.3-2,.2-.5.4-.9.8-1.2.3-.3.8-.4,1.3-.4s.7,0,1,.2c.3.2.5.4.7.7.2.3.3.6.4,1.1.1.4.2,1,.2,1.7s0,1.5-.3,2c-.2.5-.4.9-.8,1.2-.3.3-.8.4-1.3.4s-1.2-.2-1.6-.7c-.5-.6-.7-1.6-.7-2.9ZM27.6,175.5c0,1.2.1,2,.4,2.3.3.4.6.6,1,.6s.7-.2,1-.6.4-1.2.4-2.3-.1-2-.4-2.3c-.3-.4-.6-.6-1-.6s-.7.2-1,.5c-.3.4-.5,1.2-.5,2.4Z"/>
              <path id="ArialMT-2e-4" data-name="ArialMT-2e" class="cls-8" d="M32.8,179v-1h1v1h-1Z"/>
              <path id="ArialMT-32-4" data-name="ArialMT-32" class="cls-8" d="M39.7,178.2v.8h-4.7c0-.2,0-.4.1-.6.1-.3.3-.6.6-1,.3-.3.6-.7,1.2-1.1.8-.6,1.3-1.1,1.6-1.5.3-.4.4-.7.4-1.1s-.1-.6-.4-.9c-.2-.2-.6-.4-1-.4s-.8.1-1,.4c-.3.3-.4.6-.4,1.1h-.9c0-.8.3-1.3.7-1.6.4-.4.9-.5,1.6-.5s1.2.2,1.6.6c.4.4.6.9.6,1.4s0,.6-.2.8c-.1.3-.3.6-.6.9s-.7.7-1.4,1.3c-.5.4-.9.7-1,.9-.1.2-.3.3-.4.5h3.5Z"/>
            </g>
          </g>
        </g>
        <g id="ytick_5" data-name="ytick 5">
          <g id="line2d_15" data-name="line2d 15">
            <path id="m71416fbc0f-5" data-name="m71416fbc0f" class="cls-21" d="M47.2,138.5h-3.5"/>
          </g>
          <g id="text_16" data-name="text 16">
            <g>
              <path id="ArialMT-30-10" data-name="ArialMT-30" class="cls-8" d="M26.7,138.6c0-.8,0-1.5.3-2,.2-.5.4-.9.8-1.2.3-.3.8-.4,1.3-.4s.7,0,1,.2c.3.2.5.4.7.7.2.3.3.6.4,1.1.1.4.2,1,.2,1.7s0,1.5-.3,2c-.2.5-.4.9-.8,1.2-.3.3-.8.4-1.3.4s-1.2-.2-1.6-.7c-.5-.6-.7-1.6-.7-2.9ZM27.6,138.6c0,1.2.1,2,.4,2.3.3.4.6.6,1,.6s.7-.2,1-.6.4-1.2.4-2.3-.1-2-.4-2.3c-.3-.4-.6-.6-1-.6s-.7.2-1,.5c-.3.4-.5,1.2-.5,2.4Z"/>
              <path id="ArialMT-2e-5" data-name="ArialMT-2e" class="cls-8" d="M32.8,142.1v-1h1v1h-1Z"/>
              <path id="ArialMT-34-4" data-name="ArialMT-34" class="cls-8" d="M37.9,142.1v-1.7h-3.1v-.8l3.3-4.6h.7v4.6h1v.8h-1v1.7h-.9ZM37.9,139.6v-3.2l-2.2,3.2h2.2Z"/>
            </g>
          </g>
        </g>
        <g id="ytick_6" data-name="ytick 6">
          <g id="line2d_16" data-name="line2d 16">
            <path id="m71416fbc0f-6" data-name="m71416fbc0f" class="cls-21" d="M47.2,101.6h-3.5"/>
          </g>
          <g id="text_17" data-name="text 17">
            <g>
              <path id="ArialMT-30-11" data-name="ArialMT-30" class="cls-8" d="M26.7,101.7c0-.8,0-1.5.3-2,.2-.5.4-.9.8-1.2.3-.3.8-.4,1.3-.4s.7,0,1,.2c.3.2.5.4.7.7.2.3.3.6.4,1.1.1.4.2,1,.2,1.7s0,1.5-.3,2c-.2.5-.4.9-.8,1.2-.3.3-.8.4-1.3.4s-1.2-.2-1.6-.7c-.5-.6-.7-1.6-.7-2.9ZM27.6,101.7c0,1.2.1,2,.4,2.3.3.4.6.6,1,.6s.7-.2,1-.6.4-1.2.4-2.3-.1-2-.4-2.3c-.3-.4-.6-.6-1-.6s-.7.2-1,.5c-.3.4-.5,1.2-.5,2.4Z"/>
              <path id="ArialMT-2e-6" data-name="ArialMT-2e" class="cls-8" d="M32.8,105.2v-1h1v1h-1Z"/>
              <path id="ArialMT-36-5" data-name="ArialMT-36" class="cls-8" d="M39.6,99.8h-.9c0-.3-.2-.5-.3-.7-.2-.3-.5-.4-.9-.4s-.5,0-.7.2c-.3.2-.5.5-.7.9-.2.4-.2.9-.2,1.7.2-.3.5-.6.8-.7s.6-.2,1-.2c.6,0,1.1.2,1.5.6.4.4.6,1,.6,1.7s0,.9-.3,1.3c-.2.4-.5.7-.8.9-.3.2-.7.3-1.2.3-.7,0-1.3-.3-1.8-.8-.5-.5-.7-1.4-.7-2.7s.3-2.4.8-3c.4-.5,1-.8,1.8-.8s1,.2,1.4.5c.4.3.6.8.6,1.3ZM36,102.9c0,.3,0,.6.2.9.1.3.3.5.5.6.2.1.5.2.7.2.4,0,.7-.1,1-.4.3-.3.4-.7.4-1.2s-.1-.9-.4-1.2c-.3-.3-.6-.4-1-.4s-.7.1-1,.4c-.3.3-.4.7-.4,1.1Z"/>
            </g>
          </g>
        </g>
        <g id="ytick_7" data-name="ytick 7">
          <g id="line2d_17" data-name="line2d 17">
            <path id="m71416fbc0f-7" data-name="m71416fbc0f" class="cls-21" d="M47.2,64.7h-3.5"/>
          </g>
          <g id="text_18" data-name="text 18">
            <g>
              <path id="ArialMT-30-12" data-name="ArialMT-30" class="cls-8" d="M26.7,64.8c0-.8,0-1.5.3-2,.2-.5.4-.9.8-1.2.3-.3.8-.4,1.3-.4s.7,0,1,.2c.3.2.5.4.7.7.2.3.3.6.4,1.1.1.4.2,1,.2,1.7s0,1.5-.3,2c-.2.5-.4.9-.8,1.2-.3.3-.8.4-1.3.4s-1.2-.2-1.6-.7c-.5-.6-.7-1.6-.7-2.9ZM27.6,64.8c0,1.2.1,2,.4,2.3.3.4.6.6,1,.6s.7-.2,1-.6.4-1.2.4-2.3-.1-2-.4-2.3c-.3-.4-.6-.6-1-.6s-.7.2-1,.5c-.3.4-.5,1.2-.5,2.4Z"/>
              <path id="ArialMT-2e-7" data-name="ArialMT-2e" class="cls-8" d="M32.8,68.3v-1h1v1h-1Z"/>
              <path id="ArialMT-38" class="cls-8" d="M36.4,64.4c-.4-.1-.6-.3-.8-.6-.2-.2-.3-.5-.3-.9,0-.5.2-1,.6-1.3.4-.4.9-.5,1.5-.5s1.1.2,1.5.5c.4.4.6.8.6,1.3s0,.6-.3.9c-.2.2-.4.4-.8.6.4.1.8.4,1,.7.2.3.3.7.3,1.1s-.2,1.1-.7,1.5c-.4.4-1,.6-1.7.6s-1.3-.2-1.7-.6c-.4-.4-.7-.9-.7-1.6s.1-.9.4-1.2c.2-.3.6-.5,1-.6ZM36.2,62.9c0,.3.1.6.3.8.2.2.5.3.9.3s.6-.1.8-.3c.2-.2.3-.5.3-.8s-.1-.6-.3-.8c-.2-.2-.5-.3-.8-.3s-.6.1-.8.3c-.2.2-.3.5-.3.8ZM36,66.2c0,.3,0,.5.2.7s.3.4.5.5c.2.1.5.2.8.2.4,0,.8-.1,1-.4.3-.3.4-.6.4-1s-.1-.8-.4-1.1c-.3-.3-.6-.4-1.1-.4s-.8.1-1,.4c-.3.3-.4.6-.4,1Z"/>
            </g>
          </g>
        </g>
        <g id="ytick_8" data-name="ytick 8">
          <g id="line2d_18" data-name="line2d 18">
            <path id="m71416fbc0f-8" data-name="m71416fbc0f" class="cls-21" d="M47.2,27.8h-3.5"/>
          </g>
          <g id="text_19" data-name="text 19">
            <g>
              <path id="ArialMT-31-2" data-name="ArialMT-31" class="cls-8" d="M30,31.4h-.9v-5.6c-.2.2-.5.4-.8.6s-.7.4-.9.5v-.9c.5-.2.9-.5,1.3-.8.4-.3.6-.6.8-1h.6v7.2Z"/>
              <path id="ArialMT-2e-8" data-name="ArialMT-2e" class="cls-8" d="M32.8,31.4v-1h1v1h-1Z"/>
              <path id="ArialMT-30-13" data-name="ArialMT-30" class="cls-8" d="M35.1,27.8c0-.8,0-1.5.3-2,.2-.5.4-.9.8-1.2.3-.3.8-.4,1.3-.4s.7,0,1,.2c.3.2.5.4.7.7.2.3.3.6.4,1.1.1.4.2,1,.2,1.7s0,1.5-.3,2c-.2.5-.4.9-.8,1.2-.3.3-.8.4-1.3.4s-1.2-.2-1.6-.7c-.5-.6-.7-1.6-.7-2.9ZM36,27.8c0,1.2.1,2,.4,2.3.3.4.6.6,1,.6s.7-.2,1-.6.4-1.2.4-2.3-.1-2-.4-2.3c-.3-.4-.6-.6-1-.6s-.7.2-1,.5c-.3.4-.5,1.2-.5,2.4Z"/>
            </g>
          </g>
        </g>
        <g id="text_20" data-name="text 20">
          <g>
            <path id="ArialMT-57" class="cls-8" d="M14.4,172.4l-7.2,1.9v-1l4.7-1.1c.5-.1,1-.2,1.5-.3-.8-.2-1.2-.3-1.3-.3l-4.8-1.4v-1.1l3.6-1c.9-.3,1.7-.4,2.5-.6-.5,0-1-.2-1.6-.4l-4.6-1.1v-1l7.2,2v.9l-5.5,1.5c-.5.1-.7.2-.8.2.3,0,.6.1.8.2l5.5,1.5v1Z"/>
            <path id="ArialMT-65-5" data-name="ArialMT-65" class="cls-8" d="M12.7,160.9v-.9c.6.1,1.1.4,1.3.8.3.4.4.9.4,1.5s-.2,1.4-.7,1.8c-.5.4-1.1.7-2,.7s-1.6-.2-2-.7c-.5-.5-.7-1-.7-1.7s.2-1.3.7-1.7,1.1-.7,2-.7.1,0,.2,0v3.9c.6,0,1-.2,1.3-.5.3-.3.5-.7.5-1.1s0-.6-.3-.8c-.2-.2-.4-.4-.8-.5ZM11.3,163.8v-2.9c-.4,0-.8.1-1,.3-.3.3-.5.6-.5,1.1s.1.7.4,1,.6.4,1.1.5Z"/>
            <path id="ArialMT-69-2" data-name="ArialMT-69" class="cls-8" d="M8.2,158.9h-1v-.9h1v.9ZM14.4,158.9h-5.2v-.9h5.2v.9Z"/>
            <path id="ArialMT-67" class="cls-8" d="M14.8,156.8v-.9c.4,0,.6-.1.7-.3.2-.2.2-.5.2-.9s0-.7-.2-.9c-.2-.2-.4-.4-.7-.5-.2,0-.6,0-1.1,0,.5.4.7.9.7,1.4s-.3,1.3-.8,1.7c-.5.4-1.1.6-1.9.6s-1,0-1.4-.3c-.4-.2-.7-.4-1-.8-.2-.3-.3-.7-.3-1.2s.2-1.1.7-1.5h-.6v-.8h4.5c.8,0,1.4,0,1.7.2.3.2.6.4.8.8.2.4.3.8.3,1.3s-.1,1.1-.4,1.5-.7.6-1.3.6ZM11.7,156.1c.7,0,1.2-.1,1.5-.4.3-.3.5-.6.5-1s-.2-.7-.5-1c-.3-.3-.8-.4-1.5-.4s-1.1.1-1.4.4c-.3.3-.5.6-.5,1s.2.7.5,1c.3.3.8.4,1.4.4Z"/>
            <path id="ArialMT-68" class="cls-8" d="M14.4,151.1h-7.2v-.9h2.6c-.5-.4-.7-.9-.7-1.6s0-.7.2-1c.2-.3.4-.5.6-.6s.7-.2,1.2-.2h3.3v.9h-3.3c-.4,0-.8,0-1,.3s-.3.5-.3.8,0,.5.2.7c.1.2.3.4.5.5.2,0,.6.1,1,.1h2.8v.9Z"/>
            <path id="ArialMT-74-3" data-name="ArialMT-74" class="cls-8" d="M13.6,143.6h.8c0,.1,0,.3,0,.5,0,.3,0,.6-.2.7-.1.2-.2.3-.4.4-.2,0-.5.1-1,.1h-3v.6h-.7v-.6h-1.3l-.5-.9h1.8v-.9h.7v.9h3c.3,0,.4,0,.5,0,0,0,.1,0,.2-.2,0,0,0-.2,0-.3s0-.2,0-.4Z"/>
            <path id="ArialMT-73-4" data-name="ArialMT-73" class="cls-8" d="M12.8,143.1v-.9c.2,0,.5-.2.7-.4.2-.2.3-.5.3-.9s0-.7-.2-.9c-.2-.2-.4-.3-.6-.3s-.4,0-.5.3c0,.1-.2.4-.3.9-.2.6-.3,1.1-.4,1.3s-.3.4-.5.6c-.2.1-.4.2-.7.2s-.4,0-.6-.2c-.2-.1-.4-.3-.5-.4-.1-.1-.2-.3-.3-.6,0-.2-.1-.5-.1-.8,0-.4,0-.8.2-1.1.1-.3.3-.5.5-.7.2-.1.5-.2.8-.3v.9c-.1,0-.4.2-.5.3-.2.2-.2.5-.2.8s0,.7.2.9c.1.2.3.3.5.3s.2,0,.3-.1c0,0,.2-.2.2-.3,0,0,.1-.3.2-.8.2-.6.3-1.1.4-1.3.1-.2.3-.4.5-.6.2-.1.5-.2.8-.2s.6,0,.8.3c.3.2.5.4.6.7.1.3.2.7.2,1.1,0,.7-.1,1.2-.4,1.5-.3.4-.7.6-1.2.7Z"/>
          </g>
        </g>
      </g>
      <g id="LineCollection_1" data-name="LineCollection 1">
        <g class="cls-1">
          <path class="cls-7" d="M388.1,48.4v-13"/>
        </g>
        <g class="cls-10">
          <path class="cls-7" d="M352,209.8v-12.5"/>
        </g>
        <g class="cls-13">
          <path class="cls-7" d="M315.9,277.4v-14.5"/>
        </g>
        <g class="cls-12">
          <path class="cls-7" d="M279.9,220.6v-11.6"/>
        </g>
        <g class="cls-11">
          <path class="cls-7" d="M243.8,229.4v-12.1"/>
        </g>
        <g class="cls-17">
          <path class="cls-7" d="M207.7,219.5v-11.7"/>
        </g>
        <g class="cls-16">
          <path class="cls-7" d="M171.7,199.9v-13.2"/>
        </g>
        <g class="cls-14">
          <path class="cls-7" d="M135.6,245v-12.7"/>
        </g>
        <g class="cls-15">
          <path class="cls-7" d="M99.5,200.5v-14.9"/>
        </g>
        <g class="cls-18">
          <path class="cls-7" d="M63.4,209.2v-8.4"/>
        </g>
      </g>
      <g id="line2d_19" data-name="line2d 19">
        <g class="cls-25">
          <g>
            <path id="m658d7bace8" class="cls-20" d="M393.1,48.4h-10"/>
            <path id="m658d7bace8-2" data-name="m658d7bace8" class="cls-20" d="M357,209.8h-10"/>
            <path id="m658d7bace8-3" data-name="m658d7bace8" class="cls-20" d="M320.9,277.4h-10"/>
            <path id="m658d7bace8-4" data-name="m658d7bace8" class="cls-20" d="M284.9,220.6h-10"/>
            <path id="m658d7bace8-5" data-name="m658d7bace8" class="cls-20" d="M248.8,229.4h-10"/>
            <path id="m658d7bace8-6" data-name="m658d7bace8" class="cls-20" d="M212.7,219.5h-10"/>
            <path id="m658d7bace8-7" data-name="m658d7bace8" class="cls-20" d="M176.7,199.9h-10"/>
            <path id="m658d7bace8-8" data-name="m658d7bace8" class="cls-20" d="M140.6,245h-10"/>
            <path id="m658d7bace8-9" data-name="m658d7bace8" class="cls-20" d="M104.5,200.5h-10"/>
            <path id="m658d7bace8-10" data-name="m658d7bace8" class="cls-20" d="M68.4,209.2h-10"/>
          </g>
        </g>
      </g>
      <g id="line2d_20" data-name="line2d 20">
        <g class="cls-27">
          <g>
            <path id="m658d7bace8-11" data-name="m658d7bace8" class="cls-20" d="M393.1,35.5h-10"/>
            <path id="m658d7bace8-12" data-name="m658d7bace8" class="cls-20" d="M357,197.3h-10"/>
            <path id="m658d7bace8-13" data-name="m658d7bace8" class="cls-20" d="M320.9,262.9h-10"/>
            <path id="m658d7bace8-14" data-name="m658d7bace8" class="cls-20" d="M284.9,209h-10"/>
            <path id="m658d7bace8-15" data-name="m658d7bace8" class="cls-20" d="M248.8,217.3h-10"/>
            <path id="m658d7bace8-16" data-name="m658d7bace8" class="cls-20" d="M212.7,207.8h-10"/>
            <path id="m658d7bace8-17" data-name="m658d7bace8" class="cls-20" d="M176.7,186.8h-10"/>
            <path id="m658d7bace8-18" data-name="m658d7bace8" class="cls-20" d="M140.6,232.3h-10"/>
            <path id="m658d7bace8-19" data-name="m658d7bace8" class="cls-20" d="M104.5,185.6h-10"/>
            <path id="m658d7bace8-20" data-name="m658d7bace8" class="cls-20" d="M68.4,200.8h-10"/>
          </g>
        </g>
      </g>
      <g id="line2d_21" data-name="line2d 21">
        <g class="cls-24">
          <path class="cls-3" d="M47.2,212.4h357.1"/>
        </g>
      </g>
      <g id="line2d_22" data-name="line2d 22">
        <g class="cls-23">
          <path class="cls-5" d="M47.2,212.4h357.1"/>
        </g>
      </g>
      <g id="line2d_23" data-name="line2d 23">
        <g class="cls-22">
          <path class="cls-4" d="M388.1,41.9l-36.1,161.6-36.1,66.6-36.1-55.3-36.1,8.5-36.1-9.7-36.1-20.3-36.1,45.3-36.1-45.6-36.1,12"/>
        </g>
        <g class="cls-26">
          <g>
            <path id="m1a1c3ff6b4" class="cls-19" d="M388.1,43.9c.5,0,1-.2,1.4-.6.4-.4.6-.9.6-1.4s-.2-1-.6-1.4c-.4-.4-.9-.6-1.4-.6s-1,.2-1.4.6c-.4.4-.6.9-.6,1.4s.2,1,.6,1.4c.4.4.9.6,1.4.6Z"/>
            <path id="m1a1c3ff6b4-2" data-name="m1a1c3ff6b4" class="cls-19" d="M352,205.5c.5,0,1-.2,1.4-.6.4-.4.6-.9.6-1.4s-.2-1-.6-1.4c-.4-.4-.9-.6-1.4-.6s-1,.2-1.4.6c-.4.4-.6.9-.6,1.4s.2,1,.6,1.4c.4.4.9.6,1.4.6Z"/>
            <path id="m1a1c3ff6b4-3" data-name="m1a1c3ff6b4" class="cls-19" d="M315.9,272.1c.5,0,1-.2,1.4-.6.4-.4.6-.9.6-1.4s-.2-1-.6-1.4c-.4-.4-.9-.6-1.4-.6s-1,.2-1.4.6c-.4.4-.6.9-.6,1.4s.2,1,.6,1.4c.4.4.9.6,1.4.6Z"/>
            <path id="m1a1c3ff6b4-4" data-name="m1a1c3ff6b4" class="cls-19" d="M279.9,216.8c.5,0,1-.2,1.4-.6.4-.4.6-.9.6-1.4s-.2-1-.6-1.4c-.4-.4-.9-.6-1.4-.6s-1,.2-1.4.6c-.4.4-.6.9-.6,1.4s.2,1,.6,1.4c.4.4.9.6,1.4.6Z"/>
            <path id="m1a1c3ff6b4-5" data-name="m1a1c3ff6b4" class="cls-19" d="M243.8,225.4c.5,0,1-.2,1.4-.6.4-.4.6-.9.6-1.4s-.2-1-.6-1.4c-.4-.4-.9-.6-1.4-.6s-1,.2-1.4.6c-.4.4-.6.9-.6,1.4s.2,1,.6,1.4c.4.4.9.6,1.4.6Z"/>
            <path id="m1a1c3ff6b4-6" data-name="m1a1c3ff6b4" class="cls-19" d="M207.7,215.7c.5,0,1-.2,1.4-.6.4-.4.6-.9.6-1.4s-.2-1-.6-1.4c-.4-.4-.9-.6-1.4-.6s-1,.2-1.4.6c-.4.4-.6.9-.6,1.4s.2,1,.6,1.4c.4.4.9.6,1.4.6Z"/>
            <path id="m1a1c3ff6b4-7" data-name="m1a1c3ff6b4" class="cls-19" d="M171.7,195.4c.5,0,1-.2,1.4-.6.4-.4.6-.9.6-1.4s-.2-1-.6-1.4c-.4-.4-.9-.6-1.4-.6s-1,.2-1.4.6c-.4.4-.6.9-.6,1.4s.2,1,.6,1.4c.4.4.9.6,1.4.6Z"/>
            <path id="m1a1c3ff6b4-8" data-name="m1a1c3ff6b4" class="cls-19" d="M135.6,240.6c.5,0,1-.2,1.4-.6.4-.4.6-.9.6-1.4s-.2-1-.6-1.4c-.4-.4-.9-.6-1.4-.6s-1,.2-1.4.6c-.4.4-.6.9-.6,1.4s.2,1,.6,1.4c.4.4.9.6,1.4.6Z"/>
            <path id="m1a1c3ff6b4-9" data-name="m1a1c3ff6b4" class="cls-19" d="M99.5,195c.5,0,1-.2,1.4-.6.4-.4.6-.9.6-1.4s-.2-1-.6-1.4c-.4-.4-.9-.6-1.4-.6s-1,.2-1.4.6c-.4.4-.6.9-.6,1.4s.2,1,.6,1.4c.4.4.9.6,1.4.6Z"/>
            <path id="m1a1c3ff6b4-10" data-name="m1a1c3ff6b4" class="cls-19" d="M63.4,207c.5,0,1-.2,1.4-.6.4-.4.6-.9.6-1.4s-.2-1-.6-1.4c-.4-.4-.9-.6-1.4-.6s-1,.2-1.4.6c-.4.4-.6.9-.6,1.4s.2,1,.6,1.4c.4.4.9.6,1.4.6Z"/>
          </g>
        </g>
      </g>
      <g id="patch_3" data-name="patch 3">
        <path class="cls-6" d="M47.2,289.5V23.4"/>
      </g>
      <g id="patch_4" data-name="patch 4">
        <path class="cls-6" d="M404.3,289.5V23.4"/>
      </g>
      <g id="patch_5" data-name="patch 5">
        <path class="cls-6" d="M47.2,289.5h357.1"/>
      </g>
      <g id="patch_6" data-name="patch 6">
        <path class="cls-6" d="M47.2,23.4h357.1"/>
      </g>
      <g id="text_21" data-name="text 21">
        <g>
          <path id="ArialMT-54" class="cls-8" d="M89.2,17.4v-7.6h-2.8v-1h6.8v1h-2.8v7.6h-1.1Z"/>
          <path id="ArialMT-6f-3" data-name="ArialMT-6f" class="cls-8" d="M92.4,14.3c0-1.2.3-2,1-2.6.5-.5,1.2-.7,2-.7s1.6.3,2.1.8c.5.6.8,1.3.8,2.3s-.1,1.4-.4,1.9c-.2.5-.6.8-1,1.1-.5.3-1,.4-1.5.4-.9,0-1.6-.3-2.1-.8-.5-.6-.8-1.4-.8-2.4ZM93.5,14.3c0,.8.2,1.4.5,1.8.3.4.8.6,1.3.6s1-.2,1.3-.6c.3-.4.5-1,.5-1.8s-.2-1.4-.5-1.7-.8-.6-1.3-.6-1,.2-1.3.6c-.3.4-.5,1-.5,1.8Z"/>
          <path id="ArialMT-70" class="cls-8" d="M99.5,19.7v-8.6h1v.8c.2-.3.5-.6.8-.7.3-.2.6-.2,1-.2s1,.1,1.4.4.7.7.9,1.2c.2.5.3,1,.3,1.6s-.1,1.2-.3,1.7c-.2.5-.6.9-1,1.2-.4.3-.9.4-1.4.4s-.7,0-.9-.2c-.3-.1-.5-.3-.7-.6v3h-1.1ZM100.5,14.3c0,.8.2,1.4.5,1.8.3.4.7.6,1.2.6s.9-.2,1.2-.6c.3-.4.5-1,.5-1.8s-.2-1.4-.5-1.8c-.3-.4-.7-.6-1.2-.6s-.8.2-1.2.6c-.3.4-.5,1-.5,1.8Z"/>
          <path id="ArialMT-20-4" data-name="ArialMT-20" class="cls-8" d="M105.4,17.4"/>
          <path id="ArialMT-45" class="cls-8" d="M109.7,17.4v-8.6h6.2v1h-5.1v2.6h4.8v1h-4.8v2.9h5.3v1h-6.4Z"/>
          <path id="ArialMT-69-3" data-name="ArialMT-69" class="cls-8" d="M117.5,10v-1.2h1.1v1.2h-1.1ZM117.5,17.4v-6.2h1.1v6.2h-1.1Z"/>
          <path id="ArialMT-67-2" data-name="ArialMT-67" class="cls-8" d="M120,17.9l1,.2c0,.3.2.5.4.7.3.2.6.3,1.1.3s.9,0,1.1-.3c.3-.2.4-.5.5-.8,0-.2,0-.7,0-1.4-.5.5-1,.8-1.7.8s-1.5-.3-2-.9c-.5-.6-.7-1.4-.7-2.2s.1-1.1.3-1.6c.2-.5.5-.9.9-1.2.4-.3.9-.4,1.4-.4s1.3.3,1.8.9v-.7h1v5.4c0,1,0,1.7-.3,2.1-.2.4-.5.7-.9,1-.4.2-1,.4-1.6.4s-1.3-.2-1.8-.5-.7-.8-.7-1.5ZM120.9,14.1c0,.8.2,1.4.5,1.8.3.4.7.6,1.2.6s.9-.2,1.2-.6c.3-.4.5-1,.5-1.8s-.2-1.3-.5-1.7c-.3-.4-.7-.6-1.2-.6s-.9.2-1.2.6c-.3.4-.5.9-.5,1.7Z"/>
          <path id="ArialMT-65-6" data-name="ArialMT-65" class="cls-8" d="M131.1,15.4h1.1c-.2.8-.5,1.3-1,1.6-.5.4-1.1.5-1.8.5s-1.6-.3-2.2-.8c-.5-.6-.8-1.3-.8-2.4s.3-1.9.8-2.4c.5-.6,1.2-.9,2.1-.9s1.5.3,2,.8.8,1.4.8,2.4,0,.2,0,.3h-4.6c0,.7.2,1.2.6,1.6.3.4.8.5,1.3.5s.7-.1,1-.3c.3-.2.5-.5.7-1ZM127.7,13.7h3.5c0-.5-.2-.9-.4-1.2-.3-.4-.8-.6-1.3-.6s-.9.2-1.2.5-.5.8-.5,1.3Z"/>
          <path id="ArialMT-6e-3" data-name="ArialMT-6e" class="cls-8" d="M133.5,17.4v-6.2h.9v.9c.5-.7,1.1-1,2-1s.7,0,1,.2.6.3.7.5.3.5.3.8c0,.2,0,.5,0,1v3.8h-1.1v-3.8c0-.4,0-.8-.1-1,0-.2-.2-.4-.4-.5-.2-.1-.5-.2-.7-.2-.4,0-.8.1-1.2.4s-.5.8-.5,1.6v3.4h-1.1Z"/>
          <path id="ArialMT-76" class="cls-8" d="M141.9,17.4l-2.4-6.2h1.1l1.3,3.7c.1.4.3.8.4,1.3,0-.3.2-.7.4-1.2l1.4-3.8h1.1l-2.4,6.2h-1Z"/>
          <path id="ArialMT-65-7" data-name="ArialMT-65" class="cls-8" d="M150.5,15.4h1.1c-.2.8-.5,1.3-1,1.6-.5.4-1.1.5-1.8.5s-1.6-.3-2.2-.8c-.5-.6-.8-1.3-.8-2.4s.3-1.9.8-2.4c.5-.6,1.2-.9,2.1-.9s1.5.3,2,.8.8,1.4.8,2.4,0,.2,0,.3h-4.6c0,.7.2,1.2.6,1.6.3.4.8.5,1.3.5s.7-.1,1-.3c.3-.2.5-.5.7-1ZM147,13.7h3.5c0-.5-.2-.9-.4-1.2-.3-.4-.8-.6-1.3-.6s-.9.2-1.2.5-.5.8-.5,1.3Z"/>
          <path id="ArialMT-63-2" data-name="ArialMT-63" class="cls-8" d="M156.9,15.1h1c-.1.8-.4,1.4-.9,1.8-.5.4-1,.6-1.7.6s-1.5-.3-2.1-.8c-.5-.6-.8-1.4-.8-2.4s.1-1.3.3-1.8c.2-.5.6-.9,1-1.1.5-.3,1-.4,1.5-.4s1.2.2,1.7.5c.4.3.7.8.8,1.5l-1,.2c0-.4-.3-.7-.5-.9-.2-.2-.5-.3-.9-.3-.5,0-1,.2-1.3.6-.3.4-.5,1-.5,1.8s.2,1.4.5,1.8c.3.4.7.6,1.3.6s.8-.1,1-.4c.3-.3.5-.6.5-1.2Z"/>
          <path id="ArialMT-74-4" data-name="ArialMT-74" class="cls-8" d="M161.2,16.4l.2.9c-.3,0-.6,0-.8,0-.4,0-.7,0-.9-.2-.2-.1-.4-.3-.4-.5,0-.2-.1-.6-.1-1.2v-3.6h-.8v-.8h.8v-1.5l1-.6v2.2h1.1v.8h-1.1v3.6c0,.3,0,.5,0,.6,0,0,0,.2.2.2,0,0,.2,0,.4,0s.3,0,.5,0Z"/>
          <path id="ArialMT-6f-4" data-name="ArialMT-6f" class="cls-8" d="M161.8,14.3c0-1.2.3-2,1-2.6.5-.5,1.2-.7,2-.7s1.6.3,2.1.8c.5.6.8,1.3.8,2.3s-.1,1.4-.4,1.9c-.2.5-.6.8-1,1.1-.5.3-1,.4-1.5.4-.9,0-1.6-.3-2.1-.8-.5-.6-.8-1.4-.8-2.4ZM162.9,14.3c0,.8.2,1.4.5,1.8.3.4.8.6,1.3.6s1-.2,1.3-.6c.3-.4.5-1,.5-1.8s-.2-1.4-.5-1.7-.8-.6-1.3-.6-1,.2-1.3.6c-.3.4-.5,1-.5,1.8Z"/>
          <path id="ArialMT-72-2" data-name="ArialMT-72" class="cls-8" d="M168.9,17.4v-6.2h.9v.9c.2-.4.5-.7.7-.9.2-.1.4-.2.7-.2.4,0,.7.1,1.1.3l-.4,1c-.3-.2-.5-.2-.8-.2s-.4,0-.6.2-.3.3-.4.6c-.1.4-.2.8-.2,1.2v3.3h-1.1Z"/>
          <path id="ArialMT-20-5" data-name="ArialMT-20" class="cls-8" d="M172.1,17.4"/>
          <path id="ArialMT-4f-2" data-name="ArialMT-4f" class="cls-8" d="M176,13.2c0-1.4.4-2.5,1.1-3.3.8-.8,1.8-1.2,3-1.2s1.5.2,2.1.6c.6.4,1.1.9,1.5,1.6.3.7.5,1.4.5,2.3s-.2,1.6-.5,2.3c-.4.7-.8,1.2-1.5,1.6-.6.4-1.3.5-2.1.5s-1.5-.2-2.2-.6c-.6-.4-1.1-.9-1.4-1.6-.3-.7-.5-1.4-.5-2.1ZM177.2,13.2c0,1,.3,1.9.8,2.4.6.6,1.3.9,2.1.9s1.6-.3,2.1-.9c.6-.6.8-1.5.8-2.6s-.1-1.3-.4-1.8-.6-.9-1-1.2c-.5-.3-1-.4-1.5-.4-.8,0-1.5.3-2.1.8-.6.6-.9,1.5-.9,2.8Z"/>
          <path id="ArialMT-4e" class="cls-8" d="M185.7,17.4v-8.6h1.2l4.5,6.7v-6.7h1.1v8.6h-1.2l-4.5-6.7v6.7h-1.1Z"/>
          <path id="ArialMT-20-6" data-name="ArialMT-20" class="cls-8" d="M193.4,17.4"/>
          <path id="ArialMT-53-3" data-name="ArialMT-53" class="cls-8" d="M197.3,14.6h1.1c0,.3.2.7.4,1,.2.3.5.5.9.7.4.2.8.3,1.3.3s.8,0,1.1-.2c.3-.1.6-.3.7-.5.2-.2.2-.5.2-.7s0-.5-.2-.7-.4-.4-.8-.5c-.2,0-.7-.2-1.5-.4-.8-.2-1.3-.4-1.7-.5-.4-.2-.7-.5-.9-.8-.2-.3-.3-.7-.3-1.1s.1-.8.4-1.2c.2-.4.6-.7,1.1-.9.5-.2,1-.3,1.6-.3s1.2.1,1.7.3c.5.2.9.5,1.1.9.3.4.4.8.4,1.4h-1.1c0-.5-.3-.9-.6-1.1-.3-.3-.8-.4-1.5-.4s-1.2.1-1.5.4c-.3.3-.5.6-.5.9s.1.6.3.8c.2.2.8.4,1.7.6.9.2,1.6.4,1.9.5.5.2.9.5,1.1.9.2.4.4.8.4,1.2s-.1.9-.4,1.3c-.3.4-.6.7-1.1.9-.5.2-1,.3-1.7.3s-1.4-.1-2-.3c-.5-.2-.9-.6-1.2-1-.3-.5-.5-1-.5-1.5Z"/>
          <path id="ArialMT-65-8" data-name="ArialMT-65" class="cls-8" d="M209.8,15.4h1.1c-.2.8-.5,1.3-1,1.6-.5.4-1.1.5-1.8.5s-1.6-.3-2.2-.8c-.5-.6-.8-1.3-.8-2.4s.3-1.9.8-2.4c.5-.6,1.2-.9,2.1-.9s1.5.3,2,.8.8,1.4.8,2.4,0,.2,0,.3h-4.6c0,.7.2,1.2.6,1.6.3.4.8.5,1.3.5s.7-.1,1-.3c.3-.2.5-.5.7-1ZM206.4,13.7h3.5c0-.5-.2-.9-.4-1.2-.3-.4-.8-.6-1.3-.6s-.9.2-1.2.5-.5.8-.5,1.3Z"/>
          <path id="ArialMT-6e-4" data-name="ArialMT-6e" class="cls-8" d="M212.2,17.4v-6.2h.9v.9c.5-.7,1.1-1,2-1s.7,0,1,.2.6.3.7.5.3.5.3.8c0,.2,0,.5,0,1v3.8h-1.1v-3.8c0-.4,0-.8-.1-1,0-.2-.2-.4-.4-.5-.2-.1-.5-.2-.7-.2-.4,0-.8.1-1.2.4s-.5.8-.5,1.6v3.4h-1.1Z"/>
          <path id="ArialMT-73-5" data-name="ArialMT-73" class="cls-8" d="M218.5,15.5l1-.2c0,.4.2.7.5,1,.3.2.6.3,1.1.3s.8,0,1.1-.3c.2-.2.4-.4.4-.7s-.1-.4-.3-.6c-.1,0-.5-.2-1.1-.4-.8-.2-1.3-.4-1.6-.5s-.5-.3-.7-.6c-.2-.3-.2-.5-.2-.8s0-.5.2-.8c.1-.2.3-.4.5-.6.2-.1.4-.2.7-.3.3,0,.6-.1.9-.1.5,0,.9,0,1.3.2.4.1.6.3.8.6.2.2.3.6.4,1h-1c0-.2-.2-.4-.4-.6-.2-.2-.5-.3-1-.3s-.8,0-1,.2c-.2.2-.3.3-.3.6s0,.3.1.4c0,.1.2.2.4.3.1,0,.4.1.9.3.7.2,1.3.4,1.6.5.3.1.5.3.7.6.2.2.3.5.3.9s-.1.7-.3,1c-.2.3-.5.5-.9.7-.4.2-.8.3-1.3.3-.8,0-1.4-.2-1.8-.5-.4-.3-.7-.8-.8-1.5Z"/>
          <path id="ArialMT-6f-5" data-name="ArialMT-6f" class="cls-8" d="M224.5,14.3c0-1.2.3-2,1-2.6.5-.5,1.2-.7,2-.7s1.6.3,2.1.8c.5.6.8,1.3.8,2.3s-.1,1.4-.4,1.9c-.2.5-.6.8-1,1.1-.5.3-1,.4-1.5.4-.9,0-1.6-.3-2.1-.8-.5-.6-.8-1.4-.8-2.4ZM225.6,14.3c0,.8.2,1.4.5,1.8.3.4.8.6,1.3.6s1-.2,1.3-.6c.3-.4.5-1,.5-1.8s-.2-1.4-.5-1.7-.8-.6-1.3-.6-1,.2-1.3.6c-.3.4-.5,1-.5,1.8Z"/>
          <path id="ArialMT-72-3" data-name="ArialMT-72" class="cls-8" d="M231.6,17.4v-6.2h.9v.9c.2-.4.5-.7.7-.9.2-.1.4-.2.7-.2.4,0,.7.1,1.1.3l-.4,1c-.3-.2-.5-.2-.8-.2s-.4,0-.6.2-.3.3-.4.6c-.1.4-.2.8-.2,1.2v3.3h-1.1Z"/>
          <path id="ArialMT-79" class="cls-8" d="M235.5,19.8v-1c.1,0,.3,0,.5,0s.4,0,.6-.1c.1,0,.3-.2.3-.3,0-.1.2-.4.3-.8,0,0,0-.1,0-.3l-2.4-6.2h1.1l1.3,3.6c.2.5.3.9.5,1.4.1-.5.3-1,.4-1.4l1.3-3.6h1.1l-2.4,6.3c-.3.7-.5,1.2-.6,1.4-.2.3-.4.6-.6.8-.2.2-.5.2-.9.2s-.4,0-.7-.1Z"/>
          <path id="ArialMT-3a" class="cls-8" d="M241.9,12.3v-1.2h1.2v1.2h-1.2ZM241.9,17.4v-1.2h1.2v1.2h-1.2Z"/>
          <path id="ArialMT-20-7" data-name="ArialMT-20" class="cls-8" d="M244.1,17.4"/>
          <path id="ArialMT-4d" class="cls-8" d="M248.3,17.4v-8.6h1.7l2,6.1c.2.6.3,1,.4,1.3,0-.3.2-.8.5-1.4l2.1-6h1.5v8.6h-1.1v-7.2l-2.5,7.2h-1l-2.5-7.3v7.3h-1.1Z"/>
          <path id="ArialMT-4e-2" data-name="ArialMT-4e" class="cls-8" d="M258.4,17.4v-8.6h1.2l4.5,6.7v-6.7h1.1v8.6h-1.2l-4.5-6.7v6.7h-1.1Z"/>
          <path id="ArialMT-45-2" data-name="ArialMT-45" class="cls-8" d="M267.1,17.4v-8.6h6.2v1h-5.1v2.6h4.8v1h-4.8v2.9h5.3v1h-6.4Z"/>
          <path id="ArialMT-20-8" data-name="ArialMT-20" class="cls-8" d="M274.1,17.4"/>
          <path id="ArialMT-51" class="cls-8" d="M284.9,16.4c.5.4,1,.6,1.5.8l-.3.8c-.6-.2-1.2-.6-1.8-1.1-.6.4-1.3.5-2.1.5s-1.5-.2-2.1-.6c-.6-.4-1.1-.9-1.5-1.6-.3-.7-.5-1.4-.5-2.3s.2-1.6.5-2.3c.3-.7.8-1.2,1.5-1.6.6-.4,1.3-.5,2.1-.5s1.5.2,2.1.6c.6.4,1.1.9,1.5,1.6s.5,1.4.5,2.3-.1,1.3-.3,1.9c-.2.6-.5,1.1-1,1.5ZM282.4,15c.7.2,1.2.5,1.6.8.7-.6,1-1.5,1-2.7s-.1-1.3-.4-1.8c-.2-.5-.6-.9-1-1.2s-1-.4-1.5-.4c-.8,0-1.6.3-2.1.9s-.8,1.4-.8,2.6.3,2,.8,2.6c.6.6,1.3.9,2.1.9s.8,0,1.1-.2c-.4-.2-.7-.4-1.1-.5l.3-.8Z"/>
          <path id="ArialMT-75-3" data-name="ArialMT-75" class="cls-8" d="M291.7,17.4v-.9c-.5.7-1.1,1.1-2,1.1s-.7,0-1-.2c-.3-.1-.6-.3-.7-.5-.2-.2-.3-.5-.3-.8,0-.2,0-.5,0-1v-3.9h1.1v3.5c0,.6,0,.9,0,1.1,0,.3.2.5.4.7.2.2.5.2.8.2s.6,0,.9-.2c.3-.2.5-.4.6-.7.1-.3.2-.7.2-1.2v-3.3h1.1v6.2h-.9Z"/>
          <path id="ArialMT-61" class="cls-8" d="M298.3,16.6c-.4.3-.8.6-1.1.7-.4.1-.7.2-1.2.2-.7,0-1.2-.2-1.6-.5s-.6-.8-.6-1.3,0-.6.2-.8c.1-.3.3-.5.5-.6s.5-.3.8-.3c.2,0,.5-.1.9-.2.9-.1,1.5-.2,1.9-.4,0-.1,0-.2,0-.3,0-.4,0-.7-.3-.9-.3-.2-.7-.4-1.2-.4s-.9,0-1.1.3-.4.5-.5.9h-1c0-.6.2-.9.5-1.2.2-.3.5-.5.9-.6.4-.1.9-.2,1.4-.2s1,0,1.3.2c.3.1.6.3.7.5.2.2.3.4.3.7,0,.2,0,.5,0,1v1.4c0,1,0,1.6,0,1.9,0,.3.1.5.3.7h-1.1c-.1-.2-.2-.5-.2-.8ZM298.2,14.2c-.4.2-1,.3-1.7.4-.4,0-.7.1-.9.2-.2,0-.3.2-.4.3,0,.1-.1.3-.1.5,0,.3.1.5.3.7.2.2.5.3.9.3s.8,0,1.1-.3c.3-.2.5-.4.7-.7.1-.2.2-.6.2-1.1v-.4Z"/>
          <path id="ArialMT-64-2" data-name="ArialMT-64" class="cls-8" d="M305,17.4v-.8c-.4.6-1,.9-1.7.9s-1-.1-1.4-.4-.7-.7-1-1.1c-.2-.5-.3-1.1-.3-1.7s.1-1.2.3-1.7c.2-.5.5-.9.9-1.2.4-.3.9-.4,1.4-.4s.7,0,1,.2c.3.2.5.4.7.6v-3.1h1v8.6h-1ZM301.6,14.3c0,.8.2,1.4.5,1.8.3.4.7.6,1.2.6s.9-.2,1.2-.6c.3-.4.5-1,.5-1.7s-.2-1.5-.5-1.9c-.3-.4-.7-.6-1.2-.6s-.9.2-1.2.6c-.3.4-.5,1-.5,1.8Z"/>
          <path id="ArialMT-72-4" data-name="ArialMT-72" class="cls-8" d="M307.6,17.4v-6.2h.9v.9c.2-.4.5-.7.7-.9.2-.1.4-.2.7-.2.4,0,.7.1,1.1.3l-.4,1c-.3-.2-.5-.2-.8-.2s-.4,0-.6.2-.3.3-.4.6c-.1.4-.2.8-.2,1.2v3.3h-1.1Z"/>
          <path id="ArialMT-61-2" data-name="ArialMT-61" class="cls-8" d="M315.7,16.6c-.4.3-.8.6-1.1.7-.4.1-.7.2-1.2.2-.7,0-1.2-.2-1.6-.5s-.6-.8-.6-1.3,0-.6.2-.8c.1-.3.3-.5.5-.6s.5-.3.8-.3c.2,0,.5-.1.9-.2.9-.1,1.5-.2,1.9-.4,0-.1,0-.2,0-.3,0-.4,0-.7-.3-.9-.3-.2-.7-.4-1.2-.4s-.9,0-1.1.3-.4.5-.5.9h-1c0-.6.2-.9.5-1.2.2-.3.5-.5.9-.6.4-.1.9-.2,1.4-.2s1,0,1.3.2c.3.1.6.3.7.5.2.2.3.4.3.7,0,.2,0,.5,0,1v1.4c0,1,0,1.6,0,1.9,0,.3.1.5.3.7h-1.1c-.1-.2-.2-.5-.2-.8ZM315.6,14.2c-.4.2-1,.3-1.7.4-.4,0-.7.1-.9.2-.2,0-.3.2-.4.3,0,.1-.1.3-.1.5,0,.3.1.5.3.7.2.2.5.3.9.3s.8,0,1.1-.3c.3-.2.5-.4.7-.7.1-.2.2-.6.2-1.1v-.4Z"/>
          <path id="ArialMT-74-5" data-name="ArialMT-74" class="cls-8" d="M320.6,16.4l.2.9c-.3,0-.6,0-.8,0-.4,0-.7,0-.9-.2-.2-.1-.4-.3-.4-.5,0-.2-.1-.6-.1-1.2v-3.6h-.8v-.8h.8v-1.5l1-.6v2.2h1.1v.8h-1.1v3.6c0,.3,0,.5,0,.6,0,0,0,.2.2.2,0,0,.2,0,.4,0s.3,0,.5,0Z"/>
          <path id="ArialMT-69-4" data-name="ArialMT-69" class="cls-8" d="M321.6,10v-1.2h1.1v1.2h-1.1ZM321.6,17.4v-6.2h1.1v6.2h-1.1Z"/>
          <path id="ArialMT-63-3" data-name="ArialMT-63" class="cls-8" d="M328.3,15.1h1c-.1.8-.4,1.4-.9,1.8-.5.4-1,.6-1.7.6s-1.5-.3-2.1-.8c-.5-.6-.8-1.4-.8-2.4s.1-1.3.3-1.8c.2-.5.6-.9,1-1.1.5-.3,1-.4,1.5-.4s1.2.2,1.7.5c.4.3.7.8.8,1.5l-1,.2c0-.4-.3-.7-.5-.9-.2-.2-.5-.3-.9-.3-.5,0-1,.2-1.3.6-.3.4-.5,1-.5,1.8s.2,1.4.5,1.8c.3.4.7.6,1.3.6s.8-.1,1-.4c.3-.3.5-.6.5-1.2Z"/>
          <path id="ArialMT-20-9" data-name="ArialMT-20" class="cls-8" d="M329.5,17.4"/>
          <path id="ArialMT-4d-2" data-name="ArialMT-4d" class="cls-8" d="M333.7,17.4v-8.6h1.7l2,6.1c.2.6.3,1,.4,1.3,0-.3.2-.8.5-1.4l2.1-6h1.5v8.6h-1.1v-7.2l-2.5,7.2h-1l-2.5-7.3v7.3h-1.1Z"/>
          <path id="ArialMT-6f-6" data-name="ArialMT-6f" class="cls-8" d="M343.2,14.3c0-1.2.3-2,1-2.6.5-.5,1.2-.7,2-.7s1.6.3,2.1.8c.5.6.8,1.3.8,2.3s-.1,1.4-.4,1.9c-.2.5-.6.8-1,1.1-.5.3-1,.4-1.5.4-.9,0-1.6-.3-2.1-.8-.5-.6-.8-1.4-.8-2.4ZM344.3,14.3c0,.8.2,1.4.5,1.8.3.4.8.6,1.3.6s1-.2,1.3-.6c.3-.4.5-1,.5-1.8s-.2-1.4-.5-1.7-.8-.6-1.3-.6-1,.2-1.3.6c-.3.4-.5,1-.5,1.8Z"/>
          <path id="ArialMT-64-3" data-name="ArialMT-64" class="cls-8" d="M354.3,17.4v-.8c-.4.6-1,.9-1.7.9s-1-.1-1.4-.4-.7-.7-1-1.1c-.2-.5-.3-1.1-.3-1.7s.1-1.2.3-1.7c.2-.5.5-.9.9-1.2.4-.3.9-.4,1.4-.4s.7,0,1,.2c.3.2.5.4.7.6v-3.1h1v8.6h-1ZM351,14.3c0,.8.2,1.4.5,1.8.3.4.7.6,1.2.6s.9-.2,1.2-.6c.3-.4.5-1,.5-1.7s-.2-1.5-.5-1.9c-.3-.4-.7-.6-1.2-.6s-.9.2-1.2.6c-.3.4-.5,1-.5,1.8Z"/>
          <path id="ArialMT-65-9" data-name="ArialMT-65" class="cls-8" d="M361.2,15.4h1.1c-.2.8-.5,1.3-1,1.6-.5.4-1.1.5-1.8.5s-1.6-.3-2.2-.8c-.5-.6-.8-1.3-.8-2.4s.3-1.9.8-2.4c.5-.6,1.2-.9,2.1-.9s1.5.3,2,.8.8,1.4.8,2.4,0,.2,0,.3h-4.6c0,.7.2,1.2.6,1.6.3.4.8.5,1.3.5s.7-.1,1-.3c.3-.2.5-.5.7-1ZM357.7,13.7h3.5c0-.5-.2-.9-.4-1.2-.3-.4-.8-.6-1.3-.6s-.9.2-1.2.5-.5.8-.5,1.3Z"/>
          <path id="ArialMT-6c-2" data-name="ArialMT-6c" class="cls-8" d="M363.6,17.4v-8.6h1.1v8.6h-1.1Z"/>
        </g>
      </g>
      <g id="legend_1" data-name="legend 1">
        <g id="patch_7" data-name="patch 7">
          <path class="cls-28" d="M411.3,165.1h114.1c1.3,0,2-.7,2-2v-13.4c0-1.3-.7-2-2-2h-114.1c-1.3,0-2,.7-2,2v13.4c0,1.3.7,2,2,2Z"/>
        </g>
        <g id="LineCollection_2" data-name="LineCollection 2">
          <path class="cls-7" d="M423.3,160.5v-10"/>
        </g>
        <g id="line2d_24" data-name="line2d 24">
          <path id="m658d7bace8-21" data-name="m658d7bace8" class="cls-20" d="M428.3,160.5h-10"/>
        </g>
        <g id="line2d_25" data-name="line2d 25">
          <path id="m658d7bace8-22" data-name="m658d7bace8" class="cls-20" d="M428.3,150.5h-10"/>
        </g>
        <g id="line2d_26" data-name="line2d 26">
          <path class="cls-4" d="M413.3,155.5h20"/>
        </g>
        <g id="line2d_27" data-name="line2d 27">
          <path id="m1a1c3ff6b4-11" data-name="m1a1c3ff6b4" class="cls-19" d="M423.3,157.5c.5,0,1-.2,1.4-.6.4-.4.6-.9.6-1.4s-.2-1-.6-1.4c-.4-.4-.9-.6-1.4-.6s-1,.2-1.4.6c-.4.4-.6.9-.6,1.4s.2,1,.6,1.4c.4.4.9.6,1.4.6Z"/>
        </g>
        <g id="text_22" data-name="text 22">
          <g>
            <path id="ArialMT-41" class="cls-8" d="M441.3,159l2.7-7.2h1l2.9,7.2h-1.1l-.8-2.2h-3l-.8,2.2h-1ZM443.4,156.1h2.4l-.7-2c-.2-.6-.4-1.1-.5-1.5,0,.5-.2.9-.4,1.4l-.8,2.1Z"/>
            <path id="ArialMT-76-2" data-name="ArialMT-76" class="cls-8" d="M449.9,159l-2-5.2h.9l1.1,3.1c.1.3.2.7.3,1,0-.3.2-.6.3-1l1.2-3.2h.9l-2,5.2h-.8Z"/>
            <path id="ArialMT-65-10" data-name="ArialMT-65" class="cls-8" d="M457,157.3h.9c-.1.6-.4,1.1-.8,1.3-.4.3-.9.4-1.5.4s-1.4-.2-1.8-.7c-.4-.5-.7-1.1-.7-2s.2-1.6.7-2c.5-.5,1-.7,1.7-.7s1.3.2,1.7.7.7,1.1.7,2,0,.1,0,.2h-3.9c0,.6.2,1,.5,1.3.3.3.7.5,1.1.5s.6,0,.8-.3c.2-.2.4-.4.5-.8ZM454.1,155.9h2.9c0-.4-.1-.8-.3-1-.3-.3-.6-.5-1.1-.5s-.7.1-1,.4-.4.6-.5,1.1Z"/>
            <path id="ArialMT-72-5" data-name="ArialMT-72" class="cls-8" d="M459,159v-5.2h.8v.8c.2-.4.4-.6.6-.7.2-.1.4-.2.6-.2.3,0,.6,0,.9.3l-.3.8c-.2-.1-.4-.2-.6-.2s-.4,0-.5.2-.3.3-.3.5c0,.3-.1.7-.1,1v2.7h-.9Z"/>
            <path id="ArialMT-61-3" data-name="ArialMT-61" class="cls-8" d="M465.8,158.4c-.3.3-.6.5-.9.6-.3.1-.6.2-1,.2-.6,0-1-.1-1.3-.4s-.5-.6-.5-1.1,0-.5.2-.7c.1-.2.3-.4.5-.5s.4-.2.6-.3c.2,0,.4,0,.8-.1.7,0,1.2-.2,1.6-.3,0-.1,0-.2,0-.2,0-.4,0-.6-.3-.8-.2-.2-.6-.3-1-.3s-.7,0-.9.2-.3.4-.4.8h-.9c0-.5.2-.8.4-1,.2-.2.4-.4.8-.5.3-.1.7-.2,1.2-.2s.8,0,1.1.2c.3.1.5.2.6.4.1.2.2.4.3.6,0,.1,0,.4,0,.8v1.2c0,.8,0,1.3,0,1.6,0,.2.1.4.2.6h-.9c0-.2-.1-.4-.2-.6ZM465.7,156.4c-.3.1-.8.2-1.4.3-.4,0-.6.1-.8.2-.1,0-.3.2-.3.3,0,.1-.1.3-.1.4,0,.2,0,.4.3.6.2.2.4.2.8.2s.6,0,.9-.2c.3-.1.5-.4.6-.6,0-.2.1-.5.1-.9v-.3Z"/>
            <path id="ArialMT-67-3" data-name="ArialMT-67" class="cls-8" d="M467.8,159.4h.9c0,.4.1.6.3.7.2.2.5.2.9.2s.7,0,.9-.2c.2-.2.4-.4.5-.7,0-.2,0-.6,0-1.1-.4.5-.9.7-1.4.7s-1.3-.3-1.7-.8c-.4-.5-.6-1.1-.6-1.9s0-1,.3-1.4c.2-.4.4-.7.8-1,.3-.2.7-.3,1.2-.3s1.1.2,1.5.7v-.6h.8v4.5c0,.8,0,1.4-.2,1.7-.2.3-.4.6-.8.8-.4.2-.8.3-1.3.3s-1.1-.1-1.5-.4-.6-.7-.6-1.3ZM468.5,156.3c0,.7.1,1.2.4,1.5.3.3.6.5,1,.5s.7-.2,1-.5c.3-.3.4-.8.4-1.5s-.1-1.1-.4-1.4c-.3-.3-.6-.5-1-.5s-.7.2-1,.5c-.3.3-.4.8-.4,1.4Z"/>
            <path id="ArialMT-65-11" data-name="ArialMT-65" class="cls-8" d="M477,157.3h.9c-.1.6-.4,1.1-.8,1.3-.4.3-.9.4-1.5.4s-1.4-.2-1.8-.7c-.4-.5-.7-1.1-.7-2s.2-1.6.7-2c.5-.5,1-.7,1.7-.7s1.3.2,1.7.7.7,1.1.7,2,0,.1,0,.2h-3.9c0,.6.2,1,.5,1.3.3.3.7.5,1.1.5s.6,0,.8-.3c.2-.2.4-.4.5-.8ZM474.2,155.9h2.9c0-.4-.1-.8-.3-1-.3-.3-.6-.5-1.1-.5s-.7.1-1,.4-.4.6-.5,1.1Z"/>
            <path id="ArialMT-20-10" data-name="ArialMT-20" class="cls-8" d="M478.4,159"/>
            <path id="ArialMT-77" class="cls-8" d="M482.8,159l-1.6-5.2h.9l.8,3,.3,1.1c0,0,.1-.4.3-1.1l.8-3h.9l.8,3,.3,1,.3-1,.9-3h.9l-1.6,5.2h-.9l-.8-3.1-.2-.9-1.1,4h-.9Z"/>
            <path id="ArialMT-69-5" data-name="ArialMT-69" class="cls-8" d="M489.1,152.9v-1h.9v1h-.9ZM489.1,159v-5.2h.9v5.2h-.9Z"/>
            <path id="ArialMT-74-6" data-name="ArialMT-74" class="cls-8" d="M493.2,158.2v.8c-.1,0-.3,0-.5,0-.3,0-.6,0-.7-.2-.2-.1-.3-.2-.4-.4,0-.2-.1-.5-.1-1v-3h-.6v-.7h.6v-1.3l.9-.5v1.8h.9v.7h-.9v3c0,.3,0,.4,0,.5,0,0,0,.1.2.2,0,0,.2,0,.3,0s.2,0,.4,0Z"/>
            <path id="ArialMT-68-2" data-name="ArialMT-68" class="cls-8" d="M494.1,159v-7.2h.9v2.6c.4-.5.9-.7,1.6-.7s.7,0,1,.2c.3.2.5.4.6.6s.2.7.2,1.2v3.3h-.9v-3.3c0-.4,0-.8-.3-1s-.5-.3-.8-.3-.5,0-.7.2c-.2.1-.4.3-.5.5,0,.2-.1.6-.1,1v2.8h-.9Z"/>
            <path id="ArialMT-20-11" data-name="ArialMT-20" class="cls-8" d="M499,159"/>
            <path id="ArialMT-53-4" data-name="ArialMT-53" class="cls-8" d="M502.2,156.7h.9c0,.3.1.6.3.8.2.2.4.4.7.6.3.1.7.2,1.1.2s.7,0,1-.2c.3-.1.5-.3.6-.4.1-.2.2-.4.2-.6s0-.4-.2-.6-.3-.3-.6-.4c-.2,0-.6-.2-1.3-.3-.7-.2-1.1-.3-1.4-.4-.3-.2-.6-.4-.8-.7-.2-.3-.3-.6-.3-.9s.1-.7.3-1c.2-.3.5-.6.9-.7.4-.2.8-.2,1.3-.2s1,0,1.4.3c.4.2.7.4.9.8.2.3.3.7.4,1.1h-.9c0-.4-.2-.7-.5-1-.3-.2-.7-.3-1.2-.3s-1,.1-1.3.3c-.3.2-.4.5-.4.8s0,.5.3.6c.2.2.7.3,1.4.5.8.2,1.3.3,1.6.5.4.2.7.4.9.7.2.3.3.6.3,1s-.1.7-.3,1.1c-.2.3-.5.6-.9.8-.4.2-.9.3-1.4.3s-1.2,0-1.6-.3c-.4-.2-.8-.5-1-.9-.2-.4-.4-.8-.4-1.3Z"/>
            <path id="ArialMT-45-3" data-name="ArialMT-45" class="cls-8" d="M509.2,159v-7.2h5.2v.8h-4.2v2.2h4v.8h-4v2.4h4.4v.8h-5.3Z"/>
            <path id="ArialMT-4d-3" data-name="ArialMT-4d" class="cls-8" d="M515.8,159v-7.2h1.4l1.7,5.1c.2.5.3.8.3,1.1,0-.3.2-.6.4-1.1l1.7-5h1.3v7.2h-.9v-6l-2.1,6h-.9l-2.1-6.1v6.1h-.9Z"/>
          </g>
        </g>
      </g>
    </g>
  </g>
</svg>