<?xml version="1.0" encoding="utf-8" standalone="no"?>
<!DOCTYPE svg PUBLIC "-//W3C//DTD SVG 1.1//EN"
  "http://www.w3.org/Graphics/SVG/1.1/DTD/svg11.dtd">
<svg xmlns:xlink="http://www.w3.org/1999/xlink" width="856.5375pt" height="244.025pt" viewBox="0 0 856.5375 244.025" xmlns="http://www.w3.org/2000/svg" version="1.1">
 <metadata>
  <rdf:RDF xmlns:dc="http://purl.org/dc/elements/1.1/" xmlns:cc="http://creativecommons.org/ns#" xmlns:rdf="http://www.w3.org/1999/02/22-rdf-syntax-ns#">
   <cc:Work>
    <dc:type rdf:resource="http://purl.org/dc/dcmitype/StillImage"/>
    <dc:date>2024-12-12T10:01:36.060193</dc:date>
    <dc:format>image/svg+xml</dc:format>
    <dc:creator>
     <cc:Agent>
      <dc:title>Matplotlib v3.9.0, https://matplotlib.org/</dc:title>
     </cc:Agent>
    </dc:creator>
   </cc:Work>
  </rdf:RDF>
 </metadata>
 <defs>
  <style type="text/css">*{stroke-linejoin: round; stroke-linecap: butt}</style>
 </defs>
 <g id="figure_1">
  <g id="patch_1">
   <path d="M 0 244.025 
L 856.5375 244.025 
L 856.5375 0 
L 0 0 
z
" style="fill: #ffffff"/>
  </g>
  <g id="axes_1">
   <g id="patch_2">
    <path d="M 52.3675 194.576875 
L 419.25 194.576875 
L 419.25 22.318125 
L 52.3675 22.318125 
z
" style="fill: #ffffff"/>
   </g>
   <g id="matplotlib.axis_1">
    <g id="xtick_1">
     <g id="line2d_1">
      <defs>
       <path id="m556ec32e38" d="M 0 0 
L 0 3.5 
" style="stroke: #000000; stroke-width: 0.8"/>
      </defs>
      <g>
       <use xlink:href="#m556ec32e38" x="93.132222" y="194.576875" style="stroke: #000000; stroke-width: 0.8"/>
      </g>
     </g>
     <g id="text_1">
      <!-- −2 -->
      <g transform="translate(76.915816 218.293437) scale(0.22 -0.22)">
       <defs>
        <path id="DejaVuSans-2212" d="M 678 2272 
L 4684 2272 
L 4684 1741 
L 678 1741 
L 678 2272 
z
" transform="scale(0.015625)"/>
        <path id="DejaVuSans-32" d="M 1228 531 
L 3431 531 
L 3431 0 
L 469 0 
L 469 531 
Q 828 903 1448 1529 
Q 2069 2156 2228 2338 
Q 2531 2678 2651 2914 
Q 2772 3150 2772 3378 
Q 2772 3750 2511 3984 
Q 2250 4219 1831 4219 
Q 1534 4219 1204 4116 
Q 875 4013 500 3803 
L 500 4441 
Q 881 4594 1212 4672 
Q 1544 4750 1819 4750 
Q 2544 4750 2975 4387 
Q 3406 4025 3406 3419 
Q 3406 3131 3298 2873 
Q 3191 2616 2906 2266 
Q 2828 2175 2409 1742 
Q 1991 1309 1228 531 
z
" transform="scale(0.015625)"/>
       </defs>
       <use xlink:href="#DejaVuSans-2212"/>
       <use xlink:href="#DejaVuSans-32" x="83.789062"/>
      </g>
     </g>
    </g>
    <g id="xtick_2">
     <g id="line2d_2">
      <g>
       <use xlink:href="#m556ec32e38" x="174.661667" y="194.576875" style="stroke: #000000; stroke-width: 0.8"/>
      </g>
     </g>
     <g id="text_2">
      <!-- −1 -->
      <g transform="translate(158.44526 218.293437) scale(0.22 -0.22)">
       <defs>
        <path id="DejaVuSans-31" d="M 794 531 
L 1825 531 
L 1825 4091 
L 703 3866 
L 703 4441 
L 1819 4666 
L 2450 4666 
L 2450 531 
L 3481 531 
L 3481 0 
L 794 0 
L 794 531 
z
" transform="scale(0.015625)"/>
       </defs>
       <use xlink:href="#DejaVuSans-2212"/>
       <use xlink:href="#DejaVuSans-31" x="83.789062"/>
      </g>
     </g>
    </g>
    <g id="xtick_3">
     <g id="line2d_3">
      <g>
       <use xlink:href="#m556ec32e38" x="256.191111" y="194.576875" style="stroke: #000000; stroke-width: 0.8"/>
      </g>
     </g>
     <g id="text_3">
      <!-- 0 -->
      <g transform="translate(249.192361 218.293437) scale(0.22 -0.22)">
       <defs>
        <path id="DejaVuSans-30" d="M 2034 4250 
Q 1547 4250 1301 3770 
Q 1056 3291 1056 2328 
Q 1056 1369 1301 889 
Q 1547 409 2034 409 
Q 2525 409 2770 889 
Q 3016 1369 3016 2328 
Q 3016 3291 2770 3770 
Q 2525 4250 2034 4250 
z
M 2034 4750 
Q 2819 4750 3233 4129 
Q 3647 3509 3647 2328 
Q 3647 1150 3233 529 
Q 2819 -91 2034 -91 
Q 1250 -91 836 529 
Q 422 1150 422 2328 
Q 422 3509 836 4129 
Q 1250 4750 2034 4750 
z
" transform="scale(0.015625)"/>
       </defs>
       <use xlink:href="#DejaVuSans-30"/>
      </g>
     </g>
    </g>
    <g id="xtick_4">
     <g id="line2d_4">
      <g>
       <use xlink:href="#m556ec32e38" x="337.720556" y="194.576875" style="stroke: #000000; stroke-width: 0.8"/>
      </g>
     </g>
     <g id="text_4">
      <!-- 1 -->
      <g transform="translate(330.721806 218.293437) scale(0.22 -0.22)">
       <use xlink:href="#DejaVuSans-31"/>
      </g>
     </g>
    </g>
    <g id="xtick_5">
     <g id="line2d_5">
      <g>
       <use xlink:href="#m556ec32e38" x="419.25" y="194.576875" style="stroke: #000000; stroke-width: 0.8"/>
      </g>
     </g>
     <g id="text_5">
      <!-- 2 -->
      <g transform="translate(412.25125 218.293437) scale(0.22 -0.22)">
       <use xlink:href="#DejaVuSans-32"/>
      </g>
     </g>
    </g>
    <g id="text_6">
     <!-- Normalized X -->
     <g transform="translate(202.439219 234.467187) scale(0.1 -0.1)">
      <defs>
       <path id="DejaVuSans-4e" d="M 628 4666 
L 1478 4666 
L 3547 763 
L 3547 4666 
L 4159 4666 
L 4159 0 
L 3309 0 
L 1241 3903 
L 1241 0 
L 628 0 
L 628 4666 
z
" transform="scale(0.015625)"/>
       <path id="DejaVuSans-6f" d="M 1959 3097 
Q 1497 3097 1228 2736 
Q 959 2375 959 1747 
Q 959 1119 1226 758 
Q 1494 397 1959 397 
Q 2419 397 2687 759 
Q 2956 1122 2956 1747 
Q 2956 2369 2687 2733 
Q 2419 3097 1959 3097 
z
M 1959 3584 
Q 2709 3584 3137 3096 
Q 3566 2609 3566 1747 
Q 3566 888 3137 398 
Q 2709 -91 1959 -91 
Q 1206 -91 779 398 
Q 353 888 353 1747 
Q 353 2609 779 3096 
Q 1206 3584 1959 3584 
z
" transform="scale(0.015625)"/>
       <path id="DejaVuSans-72" d="M 2631 2963 
Q 2534 3019 2420 3045 
Q 2306 3072 2169 3072 
Q 1681 3072 1420 2755 
Q 1159 2438 1159 1844 
L 1159 0 
L 581 0 
L 581 3500 
L 1159 3500 
L 1159 2956 
Q 1341 3275 1631 3429 
Q 1922 3584 2338 3584 
Q 2397 3584 2469 3576 
Q 2541 3569 2628 3553 
L 2631 2963 
z
" transform="scale(0.015625)"/>
       <path id="DejaVuSans-6d" d="M 3328 2828 
Q 3544 3216 3844 3400 
Q 4144 3584 4550 3584 
Q 5097 3584 5394 3201 
Q 5691 2819 5691 2113 
L 5691 0 
L 5113 0 
L 5113 2094 
Q 5113 2597 4934 2840 
Q 4756 3084 4391 3084 
Q 3944 3084 3684 2787 
Q 3425 2491 3425 1978 
L 3425 0 
L 2847 0 
L 2847 2094 
Q 2847 2600 2669 2842 
Q 2491 3084 2119 3084 
Q 1678 3084 1418 2786 
Q 1159 2488 1159 1978 
L 1159 0 
L 581 0 
L 581 3500 
L 1159 3500 
L 1159 2956 
Q 1356 3278 1631 3431 
Q 1906 3584 2284 3584 
Q 2666 3584 2933 3390 
Q 3200 3197 3328 2828 
z
" transform="scale(0.015625)"/>
       <path id="DejaVuSans-61" d="M 2194 1759 
Q 1497 1759 1228 1600 
Q 959 1441 959 1056 
Q 959 750 1161 570 
Q 1363 391 1709 391 
Q 2188 391 2477 730 
Q 2766 1069 2766 1631 
L 2766 1759 
L 2194 1759 
z
M 3341 1997 
L 3341 0 
L 2766 0 
L 2766 531 
Q 2569 213 2275 61 
Q 1981 -91 1556 -91 
Q 1019 -91 701 211 
Q 384 513 384 1019 
Q 384 1609 779 1909 
Q 1175 2209 1959 2209 
L 2766 2209 
L 2766 2266 
Q 2766 2663 2505 2880 
Q 2244 3097 1772 3097 
Q 1472 3097 1187 3025 
Q 903 2953 641 2809 
L 641 3341 
Q 956 3463 1253 3523 
Q 1550 3584 1831 3584 
Q 2591 3584 2966 3190 
Q 3341 2797 3341 1997 
z
" transform="scale(0.015625)"/>
       <path id="DejaVuSans-6c" d="M 603 4863 
L 1178 4863 
L 1178 0 
L 603 0 
L 603 4863 
z
" transform="scale(0.015625)"/>
       <path id="DejaVuSans-69" d="M 603 3500 
L 1178 3500 
L 1178 0 
L 603 0 
L 603 3500 
z
M 603 4863 
L 1178 4863 
L 1178 4134 
L 603 4134 
L 603 4863 
z
" transform="scale(0.015625)"/>
       <path id="DejaVuSans-7a" d="M 353 3500 
L 3084 3500 
L 3084 2975 
L 922 459 
L 3084 459 
L 3084 0 
L 275 0 
L 275 525 
L 2438 3041 
L 353 3041 
L 353 3500 
z
" transform="scale(0.015625)"/>
       <path id="DejaVuSans-65" d="M 3597 1894 
L 3597 1613 
L 953 1613 
Q 991 1019 1311 708 
Q 1631 397 2203 397 
Q 2534 397 2845 478 
Q 3156 559 3463 722 
L 3463 178 
Q 3153 47 2828 -22 
Q 2503 -91 2169 -91 
Q 1331 -91 842 396 
Q 353 884 353 1716 
Q 353 2575 817 3079 
Q 1281 3584 2069 3584 
Q 2775 3584 3186 3129 
Q 3597 2675 3597 1894 
z
M 3022 2063 
Q 3016 2534 2758 2815 
Q 2500 3097 2075 3097 
Q 1594 3097 1305 2825 
Q 1016 2553 972 2059 
L 3022 2063 
z
" transform="scale(0.015625)"/>
       <path id="DejaVuSans-64" d="M 2906 2969 
L 2906 4863 
L 3481 4863 
L 3481 0 
L 2906 0 
L 2906 525 
Q 2725 213 2448 61 
Q 2172 -91 1784 -91 
Q 1150 -91 751 415 
Q 353 922 353 1747 
Q 353 2572 751 3078 
Q 1150 3584 1784 3584 
Q 2172 3584 2448 3432 
Q 2725 3281 2906 2969 
z
M 947 1747 
Q 947 1113 1208 752 
Q 1469 391 1925 391 
Q 2381 391 2643 752 
Q 2906 1113 2906 1747 
Q 2906 2381 2643 2742 
Q 2381 3103 1925 3103 
Q 1469 3103 1208 2742 
Q 947 2381 947 1747 
z
" transform="scale(0.015625)"/>
       <path id="DejaVuSans-20" transform="scale(0.015625)"/>
       <path id="DejaVuSans-58" d="M 403 4666 
L 1081 4666 
L 2241 2931 
L 3406 4666 
L 4084 4666 
L 2584 2425 
L 4184 0 
L 3506 0 
L 2194 1984 
L 872 0 
L 191 0 
L 1856 2491 
L 403 4666 
z
" transform="scale(0.015625)"/>
      </defs>
      <use xlink:href="#DejaVuSans-4e"/>
      <use xlink:href="#DejaVuSans-6f" x="74.804688"/>
      <use xlink:href="#DejaVuSans-72" x="135.986328"/>
      <use xlink:href="#DejaVuSans-6d" x="175.349609"/>
      <use xlink:href="#DejaVuSans-61" x="272.761719"/>
      <use xlink:href="#DejaVuSans-6c" x="334.041016"/>
      <use xlink:href="#DejaVuSans-69" x="361.824219"/>
      <use xlink:href="#DejaVuSans-7a" x="389.607422"/>
      <use xlink:href="#DejaVuSans-65" x="442.097656"/>
      <use xlink:href="#DejaVuSans-64" x="503.621094"/>
      <use xlink:href="#DejaVuSans-20" x="567.097656"/>
      <use xlink:href="#DejaVuSans-58" x="598.884766"/>
     </g>
    </g>
   </g>
   <g id="matplotlib.axis_2">
    <g id="ytick_1">
     <g id="line2d_6">
      <defs>
       <path id="ma5b50043f0" d="M 0 0 
L -3.5 0 
" style="stroke: #000000; stroke-width: 0.8"/>
      </defs>
      <g>
       <use xlink:href="#ma5b50043f0" x="52.3675" y="163.859723" style="stroke: #000000; stroke-width: 0.8"/>
      </g>
     </g>
     <g id="text_7">
      <!-- 0.2 -->
      <g transform="translate(7.2 172.977848) scale(0.24 -0.24)">
       <defs>
        <path id="DejaVuSans-2e" d="M 684 794 
L 1344 794 
L 1344 0 
L 684 0 
L 684 794 
z
" transform="scale(0.015625)"/>
       </defs>
       <use xlink:href="#DejaVuSans-30"/>
       <use xlink:href="#DejaVuSans-2e" x="63.623047"/>
       <use xlink:href="#DejaVuSans-32" x="95.410156"/>
      </g>
     </g>
    </g>
    <g id="ytick_2">
     <g id="line2d_7">
      <g>
       <use xlink:href="#ma5b50043f0" x="52.3675" y="94.846387" style="stroke: #000000; stroke-width: 0.8"/>
      </g>
     </g>
     <g id="text_8">
      <!-- 0.4 -->
      <g transform="translate(7.2 103.964512) scale(0.24 -0.24)">
       <defs>
        <path id="DejaVuSans-34" d="M 2419 4116 
L 825 1625 
L 2419 1625 
L 2419 4116 
z
M 2253 4666 
L 3047 4666 
L 3047 1625 
L 3713 1625 
L 3713 1100 
L 3047 1100 
L 3047 0 
L 2419 0 
L 2419 1100 
L 313 1100 
L 313 1709 
L 2253 4666 
z
" transform="scale(0.015625)"/>
       </defs>
       <use xlink:href="#DejaVuSans-30"/>
       <use xlink:href="#DejaVuSans-2e" x="63.623047"/>
       <use xlink:href="#DejaVuSans-34" x="95.410156"/>
      </g>
     </g>
    </g>
    <g id="ytick_3">
     <g id="line2d_8">
      <g>
       <use xlink:href="#ma5b50043f0" x="52.3675" y="25.833051" style="stroke: #000000; stroke-width: 0.8"/>
      </g>
     </g>
     <g id="text_9">
      <!-- 0.6 -->
      <g transform="translate(7.2 34.951176) scale(0.24 -0.24)">
       <defs>
        <path id="DejaVuSans-36" d="M 2113 2584 
Q 1688 2584 1439 2293 
Q 1191 2003 1191 1497 
Q 1191 994 1439 701 
Q 1688 409 2113 409 
Q 2538 409 2786 701 
Q 3034 994 3034 1497 
Q 3034 2003 2786 2293 
Q 2538 2584 2113 2584 
z
M 3366 4563 
L 3366 3988 
Q 3128 4100 2886 4159 
Q 2644 4219 2406 4219 
Q 1781 4219 1451 3797 
Q 1122 3375 1075 2522 
Q 1259 2794 1537 2939 
Q 1816 3084 2150 3084 
Q 2853 3084 3261 2657 
Q 3669 2231 3669 1497 
Q 3669 778 3244 343 
Q 2819 -91 2113 -91 
Q 1303 -91 875 529 
Q 447 1150 447 2328 
Q 447 3434 972 4092 
Q 1497 4750 2381 4750 
Q 2619 4750 2861 4703 
Q 3103 4656 3366 4563 
z
" transform="scale(0.015625)"/>
       </defs>
       <use xlink:href="#DejaVuSans-30"/>
       <use xlink:href="#DejaVuSans-2e" x="63.623047"/>
       <use xlink:href="#DejaVuSans-36" x="95.410156"/>
      </g>
     </g>
    </g>
   </g>
   <g id="LineCollection_1">
    <path d="M 74.491319 61.481778 
L 74.491319 30.148068 
" clip-path="url(#p462939e691)" style="fill: none; stroke: #000000; stroke-width: 1.5"/>
    <path d="M 120.482255 92.038485 
L 120.482255 84.169678 
" clip-path="url(#p462939e691)" style="fill: none; stroke: #000000; stroke-width: 1.5"/>
    <path d="M 166.473192 124.770916 
L 166.473192 114.417273 
" clip-path="url(#p462939e691)" style="fill: none; stroke: #000000; stroke-width: 1.5"/>
    <path d="M 212.464128 186.746932 
L 212.464128 177.422031 
" clip-path="url(#p462939e691)" style="fill: none; stroke: #000000; stroke-width: 1.5"/>
    <path d="M 258.455065 170.29908 
L 258.455065 163.530985 
" clip-path="url(#p462939e691)" style="fill: none; stroke: #000000; stroke-width: 1.5"/>
    <path d="M 304.446001 131.379813 
L 304.446001 126.023082 
" clip-path="url(#p462939e691)" style="fill: none; stroke: #000000; stroke-width: 1.5"/>
    <path d="M 350.436938 111.375683 
L 350.436938 104.259825 
" clip-path="url(#p462939e691)" style="fill: none; stroke: #000000; stroke-width: 1.5"/>
    <path d="M 396.427874 144.091561 
L 396.427874 126.894177 
" clip-path="url(#p462939e691)" style="fill: none; stroke: #000000; stroke-width: 1.5"/>
   </g>
   <g id="line2d_9">
    <defs>
     <path id="m97a6b3de86" d="M 5 0 
L -5 -0 
" style="stroke: #000000"/>
    </defs>
    <g clip-path="url(#p462939e691)">
     <use xlink:href="#m97a6b3de86" x="74.491319" y="61.481778" style="stroke: #000000"/>
     <use xlink:href="#m97a6b3de86" x="120.482255" y="92.038485" style="stroke: #000000"/>
     <use xlink:href="#m97a6b3de86" x="166.473192" y="124.770916" style="stroke: #000000"/>
     <use xlink:href="#m97a6b3de86" x="212.464128" y="186.746932" style="stroke: #000000"/>
     <use xlink:href="#m97a6b3de86" x="258.455065" y="170.29908" style="stroke: #000000"/>
     <use xlink:href="#m97a6b3de86" x="304.446001" y="131.379813" style="stroke: #000000"/>
     <use xlink:href="#m97a6b3de86" x="350.436938" y="111.375683" style="stroke: #000000"/>
     <use xlink:href="#m97a6b3de86" x="396.427874" y="144.091561" style="stroke: #000000"/>
    </g>
   </g>
   <g id="line2d_10">
    <g clip-path="url(#p462939e691)">
     <use xlink:href="#m97a6b3de86" x="74.491319" y="30.148068" style="stroke: #000000"/>
     <use xlink:href="#m97a6b3de86" x="120.482255" y="84.169678" style="stroke: #000000"/>
     <use xlink:href="#m97a6b3de86" x="166.473192" y="114.417273" style="stroke: #000000"/>
     <use xlink:href="#m97a6b3de86" x="212.464128" y="177.422031" style="stroke: #000000"/>
     <use xlink:href="#m97a6b3de86" x="258.455065" y="163.530985" style="stroke: #000000"/>
     <use xlink:href="#m97a6b3de86" x="304.446001" y="126.023082" style="stroke: #000000"/>
     <use xlink:href="#m97a6b3de86" x="350.436938" y="104.259825" style="stroke: #000000"/>
     <use xlink:href="#m97a6b3de86" x="396.427874" y="126.894177" style="stroke: #000000"/>
    </g>
   </g>
   <g id="line2d_11">
    <path d="M 74.491319 34.798322 
L 120.482255 103.41415 
L 166.473192 140.476318 
L 212.464128 153.726253 
L 258.455065 150.905383 
L 304.446001 139.755132 
L 350.436938 128.016928 
L 396.427874 123.432197 
" clip-path="url(#p462939e691)" style="fill: none; stroke-dasharray: 18.5,8; stroke-dashoffset: 0; stroke: #a9a9a9; stroke-width: 5"/>
   </g>
   <g id="line2d_12">
    <path d="M 74.491319 45.814923 
L 120.482255 88.104082 
L 166.473192 119.594095 
L 212.464128 182.084481 
L 258.455065 166.915033 
L 304.446001 128.701447 
L 350.436938 107.817754 
L 396.427874 135.492869 
" clip-path="url(#p462939e691)" style="fill: none; stroke: #000000; stroke-width: 1.5; stroke-linecap: square"/>
    <defs>
     <path id="m00b4aed894" d="M 0 3 
C 0.795609 3 1.55874 2.683901 2.12132 2.12132 
C 2.683901 1.55874 3 0.795609 3 0 
C 3 -0.795609 2.683901 -1.55874 2.12132 -2.12132 
C 1.55874 -2.683901 0.795609 -3 0 -3 
C -0.795609 -3 -1.55874 -2.683901 -2.12132 -2.12132 
C -2.683901 -1.55874 -3 -0.795609 -3 0 
C -3 0.795609 -2.683901 1.55874 -2.12132 2.12132 
C -1.55874 2.683901 -0.795609 3 0 3 
z
" style="stroke: #000000"/>
    </defs>
    <g clip-path="url(#p462939e691)">
     <use xlink:href="#m00b4aed894" x="74.491319" y="45.814923" style="stroke: #000000"/>
     <use xlink:href="#m00b4aed894" x="120.482255" y="88.104082" style="stroke: #000000"/>
     <use xlink:href="#m00b4aed894" x="166.473192" y="119.594095" style="stroke: #000000"/>
     <use xlink:href="#m00b4aed894" x="212.464128" y="182.084481" style="stroke: #000000"/>
     <use xlink:href="#m00b4aed894" x="258.455065" y="166.915033" style="stroke: #000000"/>
     <use xlink:href="#m00b4aed894" x="304.446001" y="128.701447" style="stroke: #000000"/>
     <use xlink:href="#m00b4aed894" x="350.436938" y="107.817754" style="stroke: #000000"/>
     <use xlink:href="#m00b4aed894" x="396.427874" y="135.492869" style="stroke: #000000"/>
    </g>
   </g>
   <g id="patch_3">
    <path d="M 52.3675 194.576875 
L 52.3675 22.318125 
" style="fill: none; stroke: #000000; stroke-width: 0.8; stroke-linejoin: miter; stroke-linecap: square"/>
   </g>
   <g id="patch_4">
    <path d="M 419.25 194.576875 
L 419.25 22.318125 
" style="fill: none; stroke: #000000; stroke-width: 0.8; stroke-linejoin: miter; stroke-linecap: square"/>
   </g>
   <g id="patch_5">
    <path d="M 52.3675 194.576875 
L 419.25 194.576875 
" style="fill: none; stroke: #000000; stroke-width: 0.8; stroke-linejoin: miter; stroke-linecap: square"/>
   </g>
   <g id="patch_6">
    <path d="M 52.3675 22.318125 
L 419.25 22.318125 
" style="fill: none; stroke: #000000; stroke-width: 0.8; stroke-linejoin: miter; stroke-linecap: square"/>
   </g>
   <g id="text_10">
    <!-- AVA Neuron: Dimension 1 -->
    <g transform="translate(159.020938 16.318125) scale(0.12 -0.12)">
     <defs>
      <path id="DejaVuSans-41" d="M 2188 4044 
L 1331 1722 
L 3047 1722 
L 2188 4044 
z
M 1831 4666 
L 2547 4666 
L 4325 0 
L 3669 0 
L 3244 1197 
L 1141 1197 
L 716 0 
L 50 0 
L 1831 4666 
z
" transform="scale(0.015625)"/>
      <path id="DejaVuSans-56" d="M 1831 0 
L 50 4666 
L 709 4666 
L 2188 738 
L 3669 4666 
L 4325 4666 
L 2547 0 
L 1831 0 
z
" transform="scale(0.015625)"/>
      <path id="DejaVuSans-75" d="M 544 1381 
L 544 3500 
L 1119 3500 
L 1119 1403 
Q 1119 906 1312 657 
Q 1506 409 1894 409 
Q 2359 409 2629 706 
Q 2900 1003 2900 1516 
L 2900 3500 
L 3475 3500 
L 3475 0 
L 2900 0 
L 2900 538 
Q 2691 219 2414 64 
Q 2138 -91 1772 -91 
Q 1169 -91 856 284 
Q 544 659 544 1381 
z
M 1991 3584 
L 1991 3584 
z
" transform="scale(0.015625)"/>
      <path id="DejaVuSans-6e" d="M 3513 2113 
L 3513 0 
L 2938 0 
L 2938 2094 
Q 2938 2591 2744 2837 
Q 2550 3084 2163 3084 
Q 1697 3084 1428 2787 
Q 1159 2491 1159 1978 
L 1159 0 
L 581 0 
L 581 3500 
L 1159 3500 
L 1159 2956 
Q 1366 3272 1645 3428 
Q 1925 3584 2291 3584 
Q 2894 3584 3203 3211 
Q 3513 2838 3513 2113 
z
" transform="scale(0.015625)"/>
      <path id="DejaVuSans-3a" d="M 750 794 
L 1409 794 
L 1409 0 
L 750 0 
L 750 794 
z
M 750 3309 
L 1409 3309 
L 1409 2516 
L 750 2516 
L 750 3309 
z
" transform="scale(0.015625)"/>
      <path id="DejaVuSans-44" d="M 1259 4147 
L 1259 519 
L 2022 519 
Q 2988 519 3436 956 
Q 3884 1394 3884 2338 
Q 3884 3275 3436 3711 
Q 2988 4147 2022 4147 
L 1259 4147 
z
M 628 4666 
L 1925 4666 
Q 3281 4666 3915 4102 
Q 4550 3538 4550 2338 
Q 4550 1131 3912 565 
Q 3275 0 1925 0 
L 628 0 
L 628 4666 
z
" transform="scale(0.015625)"/>
      <path id="DejaVuSans-73" d="M 2834 3397 
L 2834 2853 
Q 2591 2978 2328 3040 
Q 2066 3103 1784 3103 
Q 1356 3103 1142 2972 
Q 928 2841 928 2578 
Q 928 2378 1081 2264 
Q 1234 2150 1697 2047 
L 1894 2003 
Q 2506 1872 2764 1633 
Q 3022 1394 3022 966 
Q 3022 478 2636 193 
Q 2250 -91 1575 -91 
Q 1294 -91 989 -36 
Q 684 19 347 128 
L 347 722 
Q 666 556 975 473 
Q 1284 391 1588 391 
Q 1994 391 2212 530 
Q 2431 669 2431 922 
Q 2431 1156 2273 1281 
Q 2116 1406 1581 1522 
L 1381 1569 
Q 847 1681 609 1914 
Q 372 2147 372 2553 
Q 372 3047 722 3315 
Q 1072 3584 1716 3584 
Q 2034 3584 2315 3537 
Q 2597 3491 2834 3397 
z
" transform="scale(0.015625)"/>
     </defs>
     <use xlink:href="#DejaVuSans-41"/>
     <use xlink:href="#DejaVuSans-56" x="62.033203"/>
     <use xlink:href="#DejaVuSans-41" x="124.066406"/>
     <use xlink:href="#DejaVuSans-20" x="192.474609"/>
     <use xlink:href="#DejaVuSans-4e" x="224.261719"/>
     <use xlink:href="#DejaVuSans-65" x="299.066406"/>
     <use xlink:href="#DejaVuSans-75" x="360.589844"/>
     <use xlink:href="#DejaVuSans-72" x="423.96875"/>
     <use xlink:href="#DejaVuSans-6f" x="462.832031"/>
     <use xlink:href="#DejaVuSans-6e" x="524.013672"/>
     <use xlink:href="#DejaVuSans-3a" x="587.392578"/>
     <use xlink:href="#DejaVuSans-20" x="621.083984"/>
     <use xlink:href="#DejaVuSans-44" x="652.871094"/>
     <use xlink:href="#DejaVuSans-69" x="729.873047"/>
     <use xlink:href="#DejaVuSans-6d" x="757.65625"/>
     <use xlink:href="#DejaVuSans-65" x="855.068359"/>
     <use xlink:href="#DejaVuSans-6e" x="916.591797"/>
     <use xlink:href="#DejaVuSans-73" x="979.970703"/>
     <use xlink:href="#DejaVuSans-69" x="1032.070312"/>
     <use xlink:href="#DejaVuSans-6f" x="1059.853516"/>
     <use xlink:href="#DejaVuSans-6e" x="1121.035156"/>
     <use xlink:href="#DejaVuSans-20" x="1184.414062"/>
     <use xlink:href="#DejaVuSans-31" x="1216.201172"/>
    </g>
   </g>
  </g>
  <g id="axes_2">
   <g id="patch_7">
    <path d="M 482.455 194.576875 
L 849.3375 194.576875 
L 849.3375 22.318125 
L 482.455 22.318125 
z
" style="fill: #ffffff"/>
   </g>
   <g id="matplotlib.axis_3">
    <g id="xtick_6">
     <g id="line2d_13">
      <g>
       <use xlink:href="#m556ec32e38" x="551.210889" y="194.576875" style="stroke: #000000; stroke-width: 0.8"/>
      </g>
     </g>
     <g id="text_11">
      <!-- −2 -->
      <g transform="translate(534.994482 218.293437) scale(0.22 -0.22)">
       <use xlink:href="#DejaVuSans-2212"/>
       <use xlink:href="#DejaVuSans-32" x="83.789062"/>
      </g>
     </g>
    </g>
    <g id="xtick_7">
     <g id="line2d_14">
      <g>
       <use xlink:href="#m556ec32e38" x="616.906148" y="194.576875" style="stroke: #000000; stroke-width: 0.8"/>
      </g>
     </g>
     <g id="text_12">
      <!-- −1 -->
      <g transform="translate(600.689742 218.293437) scale(0.22 -0.22)">
       <use xlink:href="#DejaVuSans-2212"/>
       <use xlink:href="#DejaVuSans-31" x="83.789062"/>
      </g>
     </g>
    </g>
    <g id="xtick_8">
     <g id="line2d_15">
      <g>
       <use xlink:href="#m556ec32e38" x="682.601408" y="194.576875" style="stroke: #000000; stroke-width: 0.8"/>
      </g>
     </g>
     <g id="text_13">
      <!-- 0 -->
      <g transform="translate(675.602658 218.293437) scale(0.22 -0.22)">
       <use xlink:href="#DejaVuSans-30"/>
      </g>
     </g>
    </g>
    <g id="xtick_9">
     <g id="line2d_16">
      <g>
       <use xlink:href="#m556ec32e38" x="748.296667" y="194.576875" style="stroke: #000000; stroke-width: 0.8"/>
      </g>
     </g>
     <g id="text_14">
      <!-- 1 -->
      <g transform="translate(741.297917 218.293437) scale(0.22 -0.22)">
       <use xlink:href="#DejaVuSans-31"/>
      </g>
     </g>
    </g>
    <g id="xtick_10">
     <g id="line2d_17">
      <g>
       <use xlink:href="#m556ec32e38" x="813.991927" y="194.576875" style="stroke: #000000; stroke-width: 0.8"/>
      </g>
     </g>
     <g id="text_15">
      <!-- 2 -->
      <g transform="translate(806.993177 218.293437) scale(0.22 -0.22)">
       <use xlink:href="#DejaVuSans-32"/>
      </g>
     </g>
    </g>
    <g id="text_16">
     <!-- Normalized X_1 -->
     <g transform="translate(626.845469 234.467187) scale(0.1 -0.1)">
      <defs>
       <path id="DejaVuSans-5f" d="M 3263 -1063 
L 3263 -1509 
L -63 -1509 
L -63 -1063 
L 3263 -1063 
z
" transform="scale(0.015625)"/>
      </defs>
      <use xlink:href="#DejaVuSans-4e"/>
      <use xlink:href="#DejaVuSans-6f" x="74.804688"/>
      <use xlink:href="#DejaVuSans-72" x="135.986328"/>
      <use xlink:href="#DejaVuSans-6d" x="175.349609"/>
      <use xlink:href="#DejaVuSans-61" x="272.761719"/>
      <use xlink:href="#DejaVuSans-6c" x="334.041016"/>
      <use xlink:href="#DejaVuSans-69" x="361.824219"/>
      <use xlink:href="#DejaVuSans-7a" x="389.607422"/>
      <use xlink:href="#DejaVuSans-65" x="442.097656"/>
      <use xlink:href="#DejaVuSans-64" x="503.621094"/>
      <use xlink:href="#DejaVuSans-20" x="567.097656"/>
      <use xlink:href="#DejaVuSans-58" x="598.884766"/>
      <use xlink:href="#DejaVuSans-5f" x="667.390625"/>
      <use xlink:href="#DejaVuSans-31" x="717.390625"/>
     </g>
    </g>
   </g>
   <g id="matplotlib.axis_4">
    <g id="ytick_4">
     <g id="line2d_18">
      <g>
       <use xlink:href="#ma5b50043f0" x="482.455" y="146.571873" style="stroke: #000000; stroke-width: 0.8"/>
      </g>
     </g>
     <g id="text_17">
      <!-- 0.2 -->
      <g transform="translate(437.2875 155.689998) scale(0.24 -0.24)">
       <use xlink:href="#DejaVuSans-30"/>
       <use xlink:href="#DejaVuSans-2e" x="63.623047"/>
       <use xlink:href="#DejaVuSans-32" x="95.410156"/>
      </g>
     </g>
    </g>
    <g id="ytick_5">
     <g id="line2d_19">
      <g>
       <use xlink:href="#ma5b50043f0" x="482.455" y="88.012524" style="stroke: #000000; stroke-width: 0.8"/>
      </g>
     </g>
     <g id="text_18">
      <!-- 0.3 -->
      <g transform="translate(437.2875 97.130649) scale(0.24 -0.24)">
       <defs>
        <path id="DejaVuSans-33" d="M 2597 2516 
Q 3050 2419 3304 2112 
Q 3559 1806 3559 1356 
Q 3559 666 3084 287 
Q 2609 -91 1734 -91 
Q 1441 -91 1130 -33 
Q 819 25 488 141 
L 488 750 
Q 750 597 1062 519 
Q 1375 441 1716 441 
Q 2309 441 2620 675 
Q 2931 909 2931 1356 
Q 2931 1769 2642 2001 
Q 2353 2234 1838 2234 
L 1294 2234 
L 1294 2753 
L 1863 2753 
Q 2328 2753 2575 2939 
Q 2822 3125 2822 3475 
Q 2822 3834 2567 4026 
Q 2313 4219 1838 4219 
Q 1578 4219 1281 4162 
Q 984 4106 628 3988 
L 628 4550 
Q 988 4650 1302 4700 
Q 1616 4750 1894 4750 
Q 2613 4750 3031 4423 
Q 3450 4097 3450 3541 
Q 3450 3153 3228 2886 
Q 3006 2619 2597 2516 
z
" transform="scale(0.015625)"/>
       </defs>
       <use xlink:href="#DejaVuSans-30"/>
       <use xlink:href="#DejaVuSans-2e" x="63.623047"/>
       <use xlink:href="#DejaVuSans-33" x="95.410156"/>
      </g>
     </g>
    </g>
    <g id="ytick_6">
     <g id="line2d_20">
      <g>
       <use xlink:href="#ma5b50043f0" x="482.455" y="29.453175" style="stroke: #000000; stroke-width: 0.8"/>
      </g>
     </g>
     <g id="text_19">
      <!-- 0.4 -->
      <g transform="translate(437.2875 38.5713) scale(0.24 -0.24)">
       <use xlink:href="#DejaVuSans-30"/>
       <use xlink:href="#DejaVuSans-2e" x="63.623047"/>
       <use xlink:href="#DejaVuSans-34" x="95.410156"/>
      </g>
     </g>
    </g>
   </g>
   <g id="LineCollection_2">
    <path d="M 499.131477 186.746932 
L 499.131477 151.041483 
" clip-path="url(#p4f870dc995)" style="fill: none; stroke: #000000; stroke-width: 1.5"/>
    <path d="M 536.190316 156.850945 
L 536.190316 117.155677 
" clip-path="url(#p4f870dc995)" style="fill: none; stroke: #000000; stroke-width: 1.5"/>
    <path d="M 573.249154 112.679083 
L 573.249154 88.629448 
" clip-path="url(#p4f870dc995)" style="fill: none; stroke: #000000; stroke-width: 1.5"/>
    <path d="M 610.307992 110.979471 
L 610.307992 95.566161 
" clip-path="url(#p4f870dc995)" style="fill: none; stroke: #000000; stroke-width: 1.5"/>
    <path d="M 647.366831 86.289808 
L 647.366831 73.825956 
" clip-path="url(#p4f870dc995)" style="fill: none; stroke: #000000; stroke-width: 1.5"/>
    <path d="M 684.425669 90.542877 
L 684.425669 79.90897 
" clip-path="url(#p4f870dc995)" style="fill: none; stroke: #000000; stroke-width: 1.5"/>
    <path d="M 721.484508 86.745613 
L 721.484508 73.977053 
" clip-path="url(#p4f870dc995)" style="fill: none; stroke: #000000; stroke-width: 1.5"/>
    <path d="M 758.543346 62.720331 
L 758.543346 48.62468 
" clip-path="url(#p4f870dc995)" style="fill: none; stroke: #000000; stroke-width: 1.5"/>
    <path d="M 795.602184 106.265534 
L 795.602184 85.360002 
" clip-path="url(#p4f870dc995)" style="fill: none; stroke: #000000; stroke-width: 1.5"/>
    <path d="M 832.661023 67.384851 
L 832.661023 30.148068 
" clip-path="url(#p4f870dc995)" style="fill: none; stroke: #000000; stroke-width: 1.5"/>
   </g>
   <g id="line2d_21">
    <g clip-path="url(#p4f870dc995)">
     <use xlink:href="#m97a6b3de86" x="499.131477" y="186.746932" style="stroke: #000000"/>
     <use xlink:href="#m97a6b3de86" x="536.190316" y="156.850945" style="stroke: #000000"/>
     <use xlink:href="#m97a6b3de86" x="573.249154" y="112.679083" style="stroke: #000000"/>
     <use xlink:href="#m97a6b3de86" x="610.307992" y="110.979471" style="stroke: #000000"/>
     <use xlink:href="#m97a6b3de86" x="647.366831" y="86.289808" style="stroke: #000000"/>
     <use xlink:href="#m97a6b3de86" x="684.425669" y="90.542877" style="stroke: #000000"/>
     <use xlink:href="#m97a6b3de86" x="721.484508" y="86.745613" style="stroke: #000000"/>
     <use xlink:href="#m97a6b3de86" x="758.543346" y="62.720331" style="stroke: #000000"/>
     <use xlink:href="#m97a6b3de86" x="795.602184" y="106.265534" style="stroke: #000000"/>
     <use xlink:href="#m97a6b3de86" x="832.661023" y="67.384851" style="stroke: #000000"/>
    </g>
   </g>
   <g id="line2d_22">
    <g clip-path="url(#p4f870dc995)">
     <use xlink:href="#m97a6b3de86" x="499.131477" y="151.041483" style="stroke: #000000"/>
     <use xlink:href="#m97a6b3de86" x="536.190316" y="117.155677" style="stroke: #000000"/>
     <use xlink:href="#m97a6b3de86" x="573.249154" y="88.629448" style="stroke: #000000"/>
     <use xlink:href="#m97a6b3de86" x="610.307992" y="95.566161" style="stroke: #000000"/>
     <use xlink:href="#m97a6b3de86" x="647.366831" y="73.825956" style="stroke: #000000"/>
     <use xlink:href="#m97a6b3de86" x="684.425669" y="79.90897" style="stroke: #000000"/>
     <use xlink:href="#m97a6b3de86" x="721.484508" y="73.977053" style="stroke: #000000"/>
     <use xlink:href="#m97a6b3de86" x="758.543346" y="48.62468" style="stroke: #000000"/>
     <use xlink:href="#m97a6b3de86" x="795.602184" y="85.360002" style="stroke: #000000"/>
     <use xlink:href="#m97a6b3de86" x="832.661023" y="30.148068" style="stroke: #000000"/>
    </g>
   </g>
   <g id="line2d_23">
    <path d="M 499.131477 170.112797 
L 536.190316 133.185581 
L 573.249154 108.475549 
L 610.307992 93.364874 
L 647.366831 85.235727 
L 684.425669 81.470281 
L 721.484508 79.450706 
L 758.543346 76.559174 
L 795.602184 70.177857 
L 832.661023 57.688926 
" clip-path="url(#p4f870dc995)" style="fill: none; stroke-dasharray: 18.5,8; stroke-dashoffset: 0; stroke: #a9a9a9; stroke-width: 5"/>
   </g>
   <g id="line2d_24">
    <path d="M 499.131477 168.894207 
L 536.190316 137.003311 
L 573.249154 100.654266 
L 610.307992 103.272816 
L 647.366831 80.057882 
L 684.425669 85.225924 
L 721.484508 80.361333 
L 758.543346 55.672506 
L 795.602184 95.812768 
L 832.661023 48.76646 
" clip-path="url(#p4f870dc995)" style="fill: none; stroke: #000000; stroke-width: 1.5; stroke-linecap: square"/>
    <g clip-path="url(#p4f870dc995)">
     <use xlink:href="#m00b4aed894" x="499.131477" y="168.894207" style="stroke: #000000"/>
     <use xlink:href="#m00b4aed894" x="536.190316" y="137.003311" style="stroke: #000000"/>
     <use xlink:href="#m00b4aed894" x="573.249154" y="100.654266" style="stroke: #000000"/>
     <use xlink:href="#m00b4aed894" x="610.307992" y="103.272816" style="stroke: #000000"/>
     <use xlink:href="#m00b4aed894" x="647.366831" y="80.057882" style="stroke: #000000"/>
     <use xlink:href="#m00b4aed894" x="684.425669" y="85.225924" style="stroke: #000000"/>
     <use xlink:href="#m00b4aed894" x="721.484508" y="80.361333" style="stroke: #000000"/>
     <use xlink:href="#m00b4aed894" x="758.543346" y="55.672506" style="stroke: #000000"/>
     <use xlink:href="#m00b4aed894" x="795.602184" y="95.812768" style="stroke: #000000"/>
     <use xlink:href="#m00b4aed894" x="832.661023" y="48.76646" style="stroke: #000000"/>
    </g>
   </g>
   <g id="patch_8">
    <path d="M 482.455 194.576875 
L 482.455 22.318125 
" style="fill: none; stroke: #000000; stroke-width: 0.8; stroke-linejoin: miter; stroke-linecap: square"/>
   </g>
   <g id="patch_9">
    <path d="M 849.3375 194.576875 
L 849.3375 22.318125 
" style="fill: none; stroke: #000000; stroke-width: 0.8; stroke-linejoin: miter; stroke-linecap: square"/>
   </g>
   <g id="patch_10">
    <path d="M 482.455 194.576875 
L 849.3375 194.576875 
" style="fill: none; stroke: #000000; stroke-width: 0.8; stroke-linejoin: miter; stroke-linecap: square"/>
   </g>
   <g id="patch_11">
    <path d="M 482.455 22.318125 
L 849.3375 22.318125 
" style="fill: none; stroke: #000000; stroke-width: 0.8; stroke-linejoin: miter; stroke-linecap: square"/>
   </g>
   <g id="text_20">
    <!-- AVA Neuron: Dimension 2 -->
    <g transform="translate(589.108438 16.318125) scale(0.12 -0.12)">
     <use xlink:href="#DejaVuSans-41"/>
     <use xlink:href="#DejaVuSans-56" x="62.033203"/>
     <use xlink:href="#DejaVuSans-41" x="124.066406"/>
     <use xlink:href="#DejaVuSans-20" x="192.474609"/>
     <use xlink:href="#DejaVuSans-4e" x="224.261719"/>
     <use xlink:href="#DejaVuSans-65" x="299.066406"/>
     <use xlink:href="#DejaVuSans-75" x="360.589844"/>
     <use xlink:href="#DejaVuSans-72" x="423.96875"/>
     <use xlink:href="#DejaVuSans-6f" x="462.832031"/>
     <use xlink:href="#DejaVuSans-6e" x="524.013672"/>
     <use xlink:href="#DejaVuSans-3a" x="587.392578"/>
     <use xlink:href="#DejaVuSans-20" x="621.083984"/>
     <use xlink:href="#DejaVuSans-44" x="652.871094"/>
     <use xlink:href="#DejaVuSans-69" x="729.873047"/>
     <use xlink:href="#DejaVuSans-6d" x="757.65625"/>
     <use xlink:href="#DejaVuSans-65" x="855.068359"/>
     <use xlink:href="#DejaVuSans-6e" x="916.591797"/>
     <use xlink:href="#DejaVuSans-73" x="979.970703"/>
     <use xlink:href="#DejaVuSans-69" x="1032.070312"/>
     <use xlink:href="#DejaVuSans-6f" x="1059.853516"/>
     <use xlink:href="#DejaVuSans-6e" x="1121.035156"/>
     <use xlink:href="#DejaVuSans-20" x="1184.414062"/>
     <use xlink:href="#DejaVuSans-32" x="1216.201172"/>
    </g>
   </g>
  </g>
 </g>
 <defs>
  <clipPath id="p462939e691">
   <rect x="52.3675" y="22.318125" width="366.8825" height="172.25875"/>
  </clipPath>
  <clipPath id="p4f870dc995">
   <rect x="482.455" y="22.318125" width="366.8825" height="172.25875"/>
  </clipPath>
 </defs>
</svg>
