<?xml version="1.0" encoding="utf-8" standalone="no"?>
<!DOCTYPE svg PUBLIC "-//W3C//DTD SVG 1.1//EN"
  "http://www.w3.org/Graphics/SVG/1.1/DTD/svg11.dtd">
<svg xmlns:xlink="http://www.w3.org/1999/xlink" width="856.135625pt" height="244.025pt" viewBox="0 0 856.135625 244.025" xmlns="http://www.w3.org/2000/svg" version="1.1">
 <metadata>
  <rdf:RDF xmlns:dc="http://purl.org/dc/elements/1.1/" xmlns:cc="http://creativecommons.org/ns#" xmlns:rdf="http://www.w3.org/1999/02/22-rdf-syntax-ns#">
   <cc:Work>
    <dc:type rdf:resource="http://purl.org/dc/dcmitype/StillImage"/>
    <dc:date>2024-12-11T14:25:17.794407</dc:date>
    <dc:format>image/svg+xml</dc:format>
    <dc:creator>
     <cc:Agent>
      <dc:title>Matplotlib v3.9.0, https://matplotlib.org/</dc:title>
     </cc:Agent>
    </dc:creator>
   </cc:Work>
  </rdf:RDF>
 </metadata>
 <defs>
  <style type="text/css">*{stroke-linejoin: round; stroke-linecap: butt}</style>
 </defs>
 <g id="figure_1">
  <g id="patch_1">
   <path d="M 0 244.025 
L 856.135625 244.025 
L 856.135625 0 
L 0 0 
z
" style="fill: #ffffff"/>
  </g>
  <g id="axes_1">
   <g id="patch_2">
    <path d="M 66.045625 194.576875 
L 418.848125 194.576875 
L 418.848125 22.318125 
L 66.045625 22.318125 
z
" style="fill: #ffffff"/>
   </g>
   <g id="matplotlib.axis_1">
    <g id="xtick_1">
     <g id="line2d_1">
      <defs>
       <path id="m30c972072f" d="M 0 0 
L 0 3.5 
" style="stroke: #000000; stroke-width: 0.8"/>
      </defs>
      <g>
       <use xlink:href="#m30c972072f" x="74.650564" y="194.576875" style="stroke: #000000; stroke-width: 0.8"/>
      </g>
     </g>
     <g id="text_1">
      <!-- −2 -->
      <g transform="translate(58.434158 218.293437) scale(0.22 -0.22)">
       <defs>
        <path id="DejaVuSans-2212" d="M 678 2272 
L 4684 2272 
L 4684 1741 
L 678 1741 
L 678 2272 
z
" transform="scale(0.015625)"/>
        <path id="DejaVuSans-32" d="M 1228 531 
L 3431 531 
L 3431 0 
L 469 0 
L 469 531 
Q 828 903 1448 1529 
Q 2069 2156 2228 2338 
Q 2531 2678 2651 2914 
Q 2772 3150 2772 3378 
Q 2772 3750 2511 3984 
Q 2250 4219 1831 4219 
Q 1534 4219 1204 4116 
Q 875 4013 500 3803 
L 500 4441 
Q 881 4594 1212 4672 
Q 1544 4750 1819 4750 
Q 2544 4750 2975 4387 
Q 3406 4025 3406 3419 
Q 3406 3131 3298 2873 
Q 3191 2616 2906 2266 
Q 2828 2175 2409 1742 
Q 1991 1309 1228 531 
z
" transform="scale(0.015625)"/>
       </defs>
       <use xlink:href="#DejaVuSans-2212"/>
       <use xlink:href="#DejaVuSans-32" x="83.789062"/>
      </g>
     </g>
    </g>
    <g id="xtick_2">
     <g id="line2d_2">
      <g>
       <use xlink:href="#m30c972072f" x="160.699954" y="194.576875" style="stroke: #000000; stroke-width: 0.8"/>
      </g>
     </g>
     <g id="text_2">
      <!-- −1 -->
      <g transform="translate(144.483548 218.293437) scale(0.22 -0.22)">
       <defs>
        <path id="DejaVuSans-31" d="M 794 531 
L 1825 531 
L 1825 4091 
L 703 3866 
L 703 4441 
L 1819 4666 
L 2450 4666 
L 2450 531 
L 3481 531 
L 3481 0 
L 794 0 
L 794 531 
z
" transform="scale(0.015625)"/>
       </defs>
       <use xlink:href="#DejaVuSans-2212"/>
       <use xlink:href="#DejaVuSans-31" x="83.789062"/>
      </g>
     </g>
    </g>
    <g id="xtick_3">
     <g id="line2d_3">
      <g>
       <use xlink:href="#m30c972072f" x="246.749345" y="194.576875" style="stroke: #000000; stroke-width: 0.8"/>
      </g>
     </g>
     <g id="text_3">
      <!-- 0 -->
      <g transform="translate(239.750595 218.293437) scale(0.22 -0.22)">
       <defs>
        <path id="DejaVuSans-30" d="M 2034 4250 
Q 1547 4250 1301 3770 
Q 1056 3291 1056 2328 
Q 1056 1369 1301 889 
Q 1547 409 2034 409 
Q 2525 409 2770 889 
Q 3016 1369 3016 2328 
Q 3016 3291 2770 3770 
Q 2525 4250 2034 4250 
z
M 2034 4750 
Q 2819 4750 3233 4129 
Q 3647 3509 3647 2328 
Q 3647 1150 3233 529 
Q 2819 -91 2034 -91 
Q 1250 -91 836 529 
Q 422 1150 422 2328 
Q 422 3509 836 4129 
Q 1250 4750 2034 4750 
z
" transform="scale(0.015625)"/>
       </defs>
       <use xlink:href="#DejaVuSans-30"/>
      </g>
     </g>
    </g>
    <g id="xtick_4">
     <g id="line2d_4">
      <g>
       <use xlink:href="#m30c972072f" x="332.798735" y="194.576875" style="stroke: #000000; stroke-width: 0.8"/>
      </g>
     </g>
     <g id="text_4">
      <!-- 1 -->
      <g transform="translate(325.799985 218.293437) scale(0.22 -0.22)">
       <use xlink:href="#DejaVuSans-31"/>
      </g>
     </g>
    </g>
    <g id="xtick_5">
     <g id="line2d_5">
      <g>
       <use xlink:href="#m30c972072f" x="418.848125" y="194.576875" style="stroke: #000000; stroke-width: 0.8"/>
      </g>
     </g>
     <g id="text_5">
      <!-- 2 -->
      <g transform="translate(411.849375 218.293437) scale(0.22 -0.22)">
       <use xlink:href="#DejaVuSans-32"/>
      </g>
     </g>
    </g>
    <g id="text_6">
     <!-- Normalized X -->
     <g transform="translate(209.077344 234.467187) scale(0.1 -0.1)">
      <defs>
       <path id="DejaVuSans-4e" d="M 628 4666 
L 1478 4666 
L 3547 763 
L 3547 4666 
L 4159 4666 
L 4159 0 
L 3309 0 
L 1241 3903 
L 1241 0 
L 628 0 
L 628 4666 
z
" transform="scale(0.015625)"/>
       <path id="DejaVuSans-6f" d="M 1959 3097 
Q 1497 3097 1228 2736 
Q 959 2375 959 1747 
Q 959 1119 1226 758 
Q 1494 397 1959 397 
Q 2419 397 2687 759 
Q 2956 1122 2956 1747 
Q 2956 2369 2687 2733 
Q 2419 3097 1959 3097 
z
M 1959 3584 
Q 2709 3584 3137 3096 
Q 3566 2609 3566 1747 
Q 3566 888 3137 398 
Q 2709 -91 1959 -91 
Q 1206 -91 779 398 
Q 353 888 353 1747 
Q 353 2609 779 3096 
Q 1206 3584 1959 3584 
z
" transform="scale(0.015625)"/>
       <path id="DejaVuSans-72" d="M 2631 2963 
Q 2534 3019 2420 3045 
Q 2306 3072 2169 3072 
Q 1681 3072 1420 2755 
Q 1159 2438 1159 1844 
L 1159 0 
L 581 0 
L 581 3500 
L 1159 3500 
L 1159 2956 
Q 1341 3275 1631 3429 
Q 1922 3584 2338 3584 
Q 2397 3584 2469 3576 
Q 2541 3569 2628 3553 
L 2631 2963 
z
" transform="scale(0.015625)"/>
       <path id="DejaVuSans-6d" d="M 3328 2828 
Q 3544 3216 3844 3400 
Q 4144 3584 4550 3584 
Q 5097 3584 5394 3201 
Q 5691 2819 5691 2113 
L 5691 0 
L 5113 0 
L 5113 2094 
Q 5113 2597 4934 2840 
Q 4756 3084 4391 3084 
Q 3944 3084 3684 2787 
Q 3425 2491 3425 1978 
L 3425 0 
L 2847 0 
L 2847 2094 
Q 2847 2600 2669 2842 
Q 2491 3084 2119 3084 
Q 1678 3084 1418 2786 
Q 1159 2488 1159 1978 
L 1159 0 
L 581 0 
L 581 3500 
L 1159 3500 
L 1159 2956 
Q 1356 3278 1631 3431 
Q 1906 3584 2284 3584 
Q 2666 3584 2933 3390 
Q 3200 3197 3328 2828 
z
" transform="scale(0.015625)"/>
       <path id="DejaVuSans-61" d="M 2194 1759 
Q 1497 1759 1228 1600 
Q 959 1441 959 1056 
Q 959 750 1161 570 
Q 1363 391 1709 391 
Q 2188 391 2477 730 
Q 2766 1069 2766 1631 
L 2766 1759 
L 2194 1759 
z
M 3341 1997 
L 3341 0 
L 2766 0 
L 2766 531 
Q 2569 213 2275 61 
Q 1981 -91 1556 -91 
Q 1019 -91 701 211 
Q 384 513 384 1019 
Q 384 1609 779 1909 
Q 1175 2209 1959 2209 
L 2766 2209 
L 2766 2266 
Q 2766 2663 2505 2880 
Q 2244 3097 1772 3097 
Q 1472 3097 1187 3025 
Q 903 2953 641 2809 
L 641 3341 
Q 956 3463 1253 3523 
Q 1550 3584 1831 3584 
Q 2591 3584 2966 3190 
Q 3341 2797 3341 1997 
z
" transform="scale(0.015625)"/>
       <path id="DejaVuSans-6c" d="M 603 4863 
L 1178 4863 
L 1178 0 
L 603 0 
L 603 4863 
z
" transform="scale(0.015625)"/>
       <path id="DejaVuSans-69" d="M 603 3500 
L 1178 3500 
L 1178 0 
L 603 0 
L 603 3500 
z
M 603 4863 
L 1178 4863 
L 1178 4134 
L 603 4134 
L 603 4863 
z
" transform="scale(0.015625)"/>
       <path id="DejaVuSans-7a" d="M 353 3500 
L 3084 3500 
L 3084 2975 
L 922 459 
L 3084 459 
L 3084 0 
L 275 0 
L 275 525 
L 2438 3041 
L 353 3041 
L 353 3500 
z
" transform="scale(0.015625)"/>
       <path id="DejaVuSans-65" d="M 3597 1894 
L 3597 1613 
L 953 1613 
Q 991 1019 1311 708 
Q 1631 397 2203 397 
Q 2534 397 2845 478 
Q 3156 559 3463 722 
L 3463 178 
Q 3153 47 2828 -22 
Q 2503 -91 2169 -91 
Q 1331 -91 842 396 
Q 353 884 353 1716 
Q 353 2575 817 3079 
Q 1281 3584 2069 3584 
Q 2775 3584 3186 3129 
Q 3597 2675 3597 1894 
z
M 3022 2063 
Q 3016 2534 2758 2815 
Q 2500 3097 2075 3097 
Q 1594 3097 1305 2825 
Q 1016 2553 972 2059 
L 3022 2063 
z
" transform="scale(0.015625)"/>
       <path id="DejaVuSans-64" d="M 2906 2969 
L 2906 4863 
L 3481 4863 
L 3481 0 
L 2906 0 
L 2906 525 
Q 2725 213 2448 61 
Q 2172 -91 1784 -91 
Q 1150 -91 751 415 
Q 353 922 353 1747 
Q 353 2572 751 3078 
Q 1150 3584 1784 3584 
Q 2172 3584 2448 3432 
Q 2725 3281 2906 2969 
z
M 947 1747 
Q 947 1113 1208 752 
Q 1469 391 1925 391 
Q 2381 391 2643 752 
Q 2906 1113 2906 1747 
Q 2906 2381 2643 2742 
Q 2381 3103 1925 3103 
Q 1469 3103 1208 2742 
Q 947 2381 947 1747 
z
" transform="scale(0.015625)"/>
       <path id="DejaVuSans-20" transform="scale(0.015625)"/>
       <path id="DejaVuSans-58" d="M 403 4666 
L 1081 4666 
L 2241 2931 
L 3406 4666 
L 4084 4666 
L 2584 2425 
L 4184 0 
L 3506 0 
L 2194 1984 
L 872 0 
L 191 0 
L 1856 2491 
L 403 4666 
z
" transform="scale(0.015625)"/>
      </defs>
      <use xlink:href="#DejaVuSans-4e"/>
      <use xlink:href="#DejaVuSans-6f" x="74.804688"/>
      <use xlink:href="#DejaVuSans-72" x="135.986328"/>
      <use xlink:href="#DejaVuSans-6d" x="175.349609"/>
      <use xlink:href="#DejaVuSans-61" x="272.761719"/>
      <use xlink:href="#DejaVuSans-6c" x="334.041016"/>
      <use xlink:href="#DejaVuSans-69" x="361.824219"/>
      <use xlink:href="#DejaVuSans-7a" x="389.607422"/>
      <use xlink:href="#DejaVuSans-65" x="442.097656"/>
      <use xlink:href="#DejaVuSans-64" x="503.621094"/>
      <use xlink:href="#DejaVuSans-20" x="567.097656"/>
      <use xlink:href="#DejaVuSans-58" x="598.884766"/>
     </g>
    </g>
   </g>
   <g id="matplotlib.axis_2">
    <g id="ytick_1">
     <g id="line2d_6">
      <defs>
       <path id="m47d1ad6806" d="M 0 0 
L -3.5 0 
" style="stroke: #000000; stroke-width: 0.8"/>
      </defs>
      <g>
       <use xlink:href="#m47d1ad6806" x="66.045625" y="194.576875" style="stroke: #000000; stroke-width: 0.8"/>
      </g>
     </g>
     <g id="text_7">
      <!-- 0.0 -->
      <g transform="translate(20.878125 203.695) scale(0.24 -0.24)">
       <defs>
        <path id="DejaVuSans-2e" d="M 684 794 
L 1344 794 
L 1344 0 
L 684 0 
L 684 794 
z
" transform="scale(0.015625)"/>
       </defs>
       <use xlink:href="#DejaVuSans-30"/>
       <use xlink:href="#DejaVuSans-2e" x="63.623047"/>
       <use xlink:href="#DejaVuSans-30" x="95.410156"/>
      </g>
     </g>
    </g>
    <g id="ytick_2">
     <g id="line2d_7">
      <g>
       <use xlink:href="#m47d1ad6806" x="66.045625" y="108.4475" style="stroke: #000000; stroke-width: 0.8"/>
      </g>
     </g>
     <g id="text_8">
      <!-- 0.2 -->
      <g transform="translate(20.878125 117.565625) scale(0.24 -0.24)">
       <use xlink:href="#DejaVuSans-30"/>
       <use xlink:href="#DejaVuSans-2e" x="63.623047"/>
       <use xlink:href="#DejaVuSans-32" x="95.410156"/>
      </g>
     </g>
    </g>
    <g id="ytick_3">
     <g id="line2d_8">
      <g>
       <use xlink:href="#m47d1ad6806" x="66.045625" y="22.318125" style="stroke: #000000; stroke-width: 0.8"/>
      </g>
     </g>
     <g id="text_9">
      <!-- 0.4 -->
      <g transform="translate(20.878125 31.43625) scale(0.24 -0.24)">
       <defs>
        <path id="DejaVuSans-34" d="M 2419 4116 
L 825 1625 
L 2419 1625 
L 2419 4116 
z
M 2253 4666 
L 3047 4666 
L 3047 1625 
L 3713 1625 
L 3713 1100 
L 3047 1100 
L 3047 0 
L 2419 0 
L 2419 1100 
L 313 1100 
L 313 1709 
L 2253 4666 
z
" transform="scale(0.015625)"/>
       </defs>
       <use xlink:href="#DejaVuSans-30"/>
       <use xlink:href="#DejaVuSans-2e" x="63.623047"/>
       <use xlink:href="#DejaVuSans-34" x="95.410156"/>
      </g>
     </g>
    </g>
    <g id="text_10">
     <!-- Response (Y) -->
     <g transform="translate(14.798438 141.006094) rotate(-90) scale(0.1 -0.1)">
      <defs>
       <path id="DejaVuSans-52" d="M 2841 2188 
Q 3044 2119 3236 1894 
Q 3428 1669 3622 1275 
L 4263 0 
L 3584 0 
L 2988 1197 
Q 2756 1666 2539 1819 
Q 2322 1972 1947 1972 
L 1259 1972 
L 1259 0 
L 628 0 
L 628 4666 
L 2053 4666 
Q 2853 4666 3247 4331 
Q 3641 3997 3641 3322 
Q 3641 2881 3436 2590 
Q 3231 2300 2841 2188 
z
M 1259 4147 
L 1259 2491 
L 2053 2491 
Q 2509 2491 2742 2702 
Q 2975 2913 2975 3322 
Q 2975 3731 2742 3939 
Q 2509 4147 2053 4147 
L 1259 4147 
z
" transform="scale(0.015625)"/>
       <path id="DejaVuSans-73" d="M 2834 3397 
L 2834 2853 
Q 2591 2978 2328 3040 
Q 2066 3103 1784 3103 
Q 1356 3103 1142 2972 
Q 928 2841 928 2578 
Q 928 2378 1081 2264 
Q 1234 2150 1697 2047 
L 1894 2003 
Q 2506 1872 2764 1633 
Q 3022 1394 3022 966 
Q 3022 478 2636 193 
Q 2250 -91 1575 -91 
Q 1294 -91 989 -36 
Q 684 19 347 128 
L 347 722 
Q 666 556 975 473 
Q 1284 391 1588 391 
Q 1994 391 2212 530 
Q 2431 669 2431 922 
Q 2431 1156 2273 1281 
Q 2116 1406 1581 1522 
L 1381 1569 
Q 847 1681 609 1914 
Q 372 2147 372 2553 
Q 372 3047 722 3315 
Q 1072 3584 1716 3584 
Q 2034 3584 2315 3537 
Q 2597 3491 2834 3397 
z
" transform="scale(0.015625)"/>
       <path id="DejaVuSans-70" d="M 1159 525 
L 1159 -1331 
L 581 -1331 
L 581 3500 
L 1159 3500 
L 1159 2969 
Q 1341 3281 1617 3432 
Q 1894 3584 2278 3584 
Q 2916 3584 3314 3078 
Q 3713 2572 3713 1747 
Q 3713 922 3314 415 
Q 2916 -91 2278 -91 
Q 1894 -91 1617 61 
Q 1341 213 1159 525 
z
M 3116 1747 
Q 3116 2381 2855 2742 
Q 2594 3103 2138 3103 
Q 1681 3103 1420 2742 
Q 1159 2381 1159 1747 
Q 1159 1113 1420 752 
Q 1681 391 2138 391 
Q 2594 391 2855 752 
Q 3116 1113 3116 1747 
z
" transform="scale(0.015625)"/>
       <path id="DejaVuSans-6e" d="M 3513 2113 
L 3513 0 
L 2938 0 
L 2938 2094 
Q 2938 2591 2744 2837 
Q 2550 3084 2163 3084 
Q 1697 3084 1428 2787 
Q 1159 2491 1159 1978 
L 1159 0 
L 581 0 
L 581 3500 
L 1159 3500 
L 1159 2956 
Q 1366 3272 1645 3428 
Q 1925 3584 2291 3584 
Q 2894 3584 3203 3211 
Q 3513 2838 3513 2113 
z
" transform="scale(0.015625)"/>
       <path id="DejaVuSans-28" d="M 1984 4856 
Q 1566 4138 1362 3434 
Q 1159 2731 1159 2009 
Q 1159 1288 1364 580 
Q 1569 -128 1984 -844 
L 1484 -844 
Q 1016 -109 783 600 
Q 550 1309 550 2009 
Q 550 2706 781 3412 
Q 1013 4119 1484 4856 
L 1984 4856 
z
" transform="scale(0.015625)"/>
       <path id="DejaVuSans-59" d="M -13 4666 
L 666 4666 
L 1959 2747 
L 3244 4666 
L 3922 4666 
L 2272 2222 
L 2272 0 
L 1638 0 
L 1638 2222 
L -13 4666 
z
" transform="scale(0.015625)"/>
       <path id="DejaVuSans-29" d="M 513 4856 
L 1013 4856 
Q 1481 4119 1714 3412 
Q 1947 2706 1947 2009 
Q 1947 1309 1714 600 
Q 1481 -109 1013 -844 
L 513 -844 
Q 928 -128 1133 580 
Q 1338 1288 1338 2009 
Q 1338 2731 1133 3434 
Q 928 4138 513 4856 
z
" transform="scale(0.015625)"/>
      </defs>
      <use xlink:href="#DejaVuSans-52"/>
      <use xlink:href="#DejaVuSans-65" x="64.982422"/>
      <use xlink:href="#DejaVuSans-73" x="126.505859"/>
      <use xlink:href="#DejaVuSans-70" x="178.605469"/>
      <use xlink:href="#DejaVuSans-6f" x="242.082031"/>
      <use xlink:href="#DejaVuSans-6e" x="303.263672"/>
      <use xlink:href="#DejaVuSans-73" x="366.642578"/>
      <use xlink:href="#DejaVuSans-65" x="418.742188"/>
      <use xlink:href="#DejaVuSans-20" x="480.265625"/>
      <use xlink:href="#DejaVuSans-28" x="512.052734"/>
      <use xlink:href="#DejaVuSans-59" x="551.066406"/>
      <use xlink:href="#DejaVuSans-29" x="612.150391"/>
     </g>
    </g>
   </g>
   <g id="LineCollection_1">
    <path d="M 77.958361 164.029759 
L 77.958361 160.147614 
" clip-path="url(#p518dfabd8f)" style="fill: none; stroke: #000000; stroke-width: 1.5"/>
    <path d="M 124.703999 156.414004 
L 124.703999 152.121572 
" clip-path="url(#p518dfabd8f)" style="fill: none; stroke: #000000; stroke-width: 1.5"/>
    <path d="M 171.449636 139.021597 
L 171.449636 135.186748 
" clip-path="url(#p518dfabd8f)" style="fill: none; stroke: #000000; stroke-width: 1.5"/>
    <path d="M 218.195273 106.838024 
L 218.195273 96.875331 
" clip-path="url(#p518dfabd8f)" style="fill: none; stroke: #000000; stroke-width: 1.5"/>
    <path d="M 264.94091 60.274758 
L 264.94091 54.317084 
" clip-path="url(#p518dfabd8f)" style="fill: none; stroke: #000000; stroke-width: 1.5"/>
    <path d="M 311.686548 44.143329 
L 311.686548 38.213202 
" clip-path="url(#p518dfabd8f)" style="fill: none; stroke: #000000; stroke-width: 1.5"/>
    <path d="M 358.432185 42.773322 
L 358.432185 32.948268 
" clip-path="url(#p518dfabd8f)" style="fill: none; stroke: #000000; stroke-width: 1.5"/>
   </g>
   <g id="line2d_9">
    <defs>
     <path id="m963f27909e" d="M 5 0 
L -5 -0 
" style="stroke: #000000"/>
    </defs>
    <g clip-path="url(#p518dfabd8f)">
     <use xlink:href="#m963f27909e" x="77.958361" y="164.029759" style="stroke: #000000"/>
     <use xlink:href="#m963f27909e" x="124.703999" y="156.414004" style="stroke: #000000"/>
     <use xlink:href="#m963f27909e" x="171.449636" y="139.021597" style="stroke: #000000"/>
     <use xlink:href="#m963f27909e" x="218.195273" y="106.838024" style="stroke: #000000"/>
     <use xlink:href="#m963f27909e" x="264.94091" y="60.274758" style="stroke: #000000"/>
     <use xlink:href="#m963f27909e" x="311.686548" y="44.143329" style="stroke: #000000"/>
     <use xlink:href="#m963f27909e" x="358.432185" y="42.773322" style="stroke: #000000"/>
    </g>
   </g>
   <g id="line2d_10">
    <g clip-path="url(#p518dfabd8f)">
     <use xlink:href="#m963f27909e" x="77.958361" y="160.147614" style="stroke: #000000"/>
     <use xlink:href="#m963f27909e" x="124.703999" y="152.121572" style="stroke: #000000"/>
     <use xlink:href="#m963f27909e" x="171.449636" y="135.186748" style="stroke: #000000"/>
     <use xlink:href="#m963f27909e" x="218.195273" y="96.875331" style="stroke: #000000"/>
     <use xlink:href="#m963f27909e" x="264.94091" y="54.317084" style="stroke: #000000"/>
     <use xlink:href="#m963f27909e" x="311.686548" y="38.213202" style="stroke: #000000"/>
     <use xlink:href="#m963f27909e" x="358.432185" y="32.948268" style="stroke: #000000"/>
    </g>
   </g>
   <g id="line2d_11">
    <path d="M 77.958361 160.62012 
L 124.703999 158.72895 
L 171.449636 134.164972 
L 218.195273 98.373167 
L 264.94091 62.798514 
L 311.686548 38.885994 
L 358.432185 38.080588 
" clip-path="url(#p518dfabd8f)" style="fill: none; stroke-dasharray: 18.5,8; stroke-dashoffset: 0; stroke: #a9a9a9; stroke-width: 5"/>
   </g>
   <g id="line2d_12">
    <path d="M 77.958361 162.088686 
L 124.703999 154.267788 
L 171.449636 137.104172 
L 218.195273 101.856678 
L 264.94091 57.295921 
L 311.686548 41.178265 
L 358.432185 37.860795 
" clip-path="url(#p518dfabd8f)" style="fill: none; stroke: #000000; stroke-width: 1.5; stroke-linecap: square"/>
    <defs>
     <path id="m401c87442d" d="M 0 3 
C 0.795609 3 1.55874 2.683901 2.12132 2.12132 
C 2.683901 1.55874 3 0.795609 3 0 
C 3 -0.795609 2.683901 -1.55874 2.12132 -2.12132 
C 1.55874 -2.683901 0.795609 -3 0 -3 
C -0.795609 -3 -1.55874 -2.683901 -2.12132 -2.12132 
C -2.683901 -1.55874 -3 -0.795609 -3 0 
C -3 0.795609 -2.683901 1.55874 -2.12132 2.12132 
C -1.55874 2.683901 -0.795609 3 0 3 
z
" style="stroke: #000000"/>
    </defs>
    <g clip-path="url(#p518dfabd8f)">
     <use xlink:href="#m401c87442d" x="77.958361" y="162.088686" style="stroke: #000000"/>
     <use xlink:href="#m401c87442d" x="124.703999" y="154.267788" style="stroke: #000000"/>
     <use xlink:href="#m401c87442d" x="171.449636" y="137.104172" style="stroke: #000000"/>
     <use xlink:href="#m401c87442d" x="218.195273" y="101.856678" style="stroke: #000000"/>
     <use xlink:href="#m401c87442d" x="264.94091" y="57.295921" style="stroke: #000000"/>
     <use xlink:href="#m401c87442d" x="311.686548" y="41.178265" style="stroke: #000000"/>
     <use xlink:href="#m401c87442d" x="358.432185" y="37.860795" style="stroke: #000000"/>
    </g>
   </g>
   <g id="patch_3">
    <path d="M 66.045625 194.576875 
L 66.045625 22.318125 
" style="fill: none; stroke: #000000; stroke-width: 0.8; stroke-linejoin: miter; stroke-linecap: square"/>
   </g>
   <g id="patch_4">
    <path d="M 418.848125 194.576875 
L 418.848125 22.318125 
" style="fill: none; stroke: #000000; stroke-width: 0.8; stroke-linejoin: miter; stroke-linecap: square"/>
   </g>
   <g id="patch_5">
    <path d="M 66.045625 194.576875 
L 418.848125 194.576875 
" style="fill: none; stroke: #000000; stroke-width: 0.8; stroke-linejoin: miter; stroke-linecap: square"/>
   </g>
   <g id="patch_6">
    <path d="M 66.045625 22.318125 
L 418.848125 22.318125 
" style="fill: none; stroke: #000000; stroke-width: 0.8; stroke-linejoin: miter; stroke-linecap: square"/>
   </g>
   <g id="text_11">
    <!-- RME Neuron: Dimension 1 -->
    <g transform="translate(164.07 16.318125) scale(0.12 -0.12)">
     <defs>
      <path id="DejaVuSans-4d" d="M 628 4666 
L 1569 4666 
L 2759 1491 
L 3956 4666 
L 4897 4666 
L 4897 0 
L 4281 0 
L 4281 4097 
L 3078 897 
L 2444 897 
L 1241 4097 
L 1241 0 
L 628 0 
L 628 4666 
z
" transform="scale(0.015625)"/>
      <path id="DejaVuSans-45" d="M 628 4666 
L 3578 4666 
L 3578 4134 
L 1259 4134 
L 1259 2753 
L 3481 2753 
L 3481 2222 
L 1259 2222 
L 1259 531 
L 3634 531 
L 3634 0 
L 628 0 
L 628 4666 
z
" transform="scale(0.015625)"/>
      <path id="DejaVuSans-75" d="M 544 1381 
L 544 3500 
L 1119 3500 
L 1119 1403 
Q 1119 906 1312 657 
Q 1506 409 1894 409 
Q 2359 409 2629 706 
Q 2900 1003 2900 1516 
L 2900 3500 
L 3475 3500 
L 3475 0 
L 2900 0 
L 2900 538 
Q 2691 219 2414 64 
Q 2138 -91 1772 -91 
Q 1169 -91 856 284 
Q 544 659 544 1381 
z
M 1991 3584 
L 1991 3584 
z
" transform="scale(0.015625)"/>
      <path id="DejaVuSans-3a" d="M 750 794 
L 1409 794 
L 1409 0 
L 750 0 
L 750 794 
z
M 750 3309 
L 1409 3309 
L 1409 2516 
L 750 2516 
L 750 3309 
z
" transform="scale(0.015625)"/>
      <path id="DejaVuSans-44" d="M 1259 4147 
L 1259 519 
L 2022 519 
Q 2988 519 3436 956 
Q 3884 1394 3884 2338 
Q 3884 3275 3436 3711 
Q 2988 4147 2022 4147 
L 1259 4147 
z
M 628 4666 
L 1925 4666 
Q 3281 4666 3915 4102 
Q 4550 3538 4550 2338 
Q 4550 1131 3912 565 
Q 3275 0 1925 0 
L 628 0 
L 628 4666 
z
" transform="scale(0.015625)"/>
     </defs>
     <use xlink:href="#DejaVuSans-52"/>
     <use xlink:href="#DejaVuSans-4d" x="69.482422"/>
     <use xlink:href="#DejaVuSans-45" x="155.761719"/>
     <use xlink:href="#DejaVuSans-20" x="218.945312"/>
     <use xlink:href="#DejaVuSans-4e" x="250.732422"/>
     <use xlink:href="#DejaVuSans-65" x="325.537109"/>
     <use xlink:href="#DejaVuSans-75" x="387.060547"/>
     <use xlink:href="#DejaVuSans-72" x="450.439453"/>
     <use xlink:href="#DejaVuSans-6f" x="489.302734"/>
     <use xlink:href="#DejaVuSans-6e" x="550.484375"/>
     <use xlink:href="#DejaVuSans-3a" x="613.863281"/>
     <use xlink:href="#DejaVuSans-20" x="647.554688"/>
     <use xlink:href="#DejaVuSans-44" x="679.341797"/>
     <use xlink:href="#DejaVuSans-69" x="756.34375"/>
     <use xlink:href="#DejaVuSans-6d" x="784.126953"/>
     <use xlink:href="#DejaVuSans-65" x="881.539062"/>
     <use xlink:href="#DejaVuSans-6e" x="943.0625"/>
     <use xlink:href="#DejaVuSans-73" x="1006.441406"/>
     <use xlink:href="#DejaVuSans-69" x="1058.541016"/>
     <use xlink:href="#DejaVuSans-6f" x="1086.324219"/>
     <use xlink:href="#DejaVuSans-6e" x="1147.505859"/>
     <use xlink:href="#DejaVuSans-20" x="1210.884766"/>
     <use xlink:href="#DejaVuSans-31" x="1242.671875"/>
    </g>
   </g>
  </g>
  <g id="axes_2">
   <g id="patch_7">
    <path d="M 496.133125 194.576875 
L 848.935625 194.576875 
L 848.935625 22.318125 
L 496.133125 22.318125 
z
" style="fill: #ffffff"/>
   </g>
   <g id="matplotlib.axis_3">
    <g id="xtick_6">
     <g id="line2d_13">
      <g>
       <use xlink:href="#m30c972072f" x="509.332684" y="194.576875" style="stroke: #000000; stroke-width: 0.8"/>
      </g>
     </g>
     <g id="text_12">
      <!-- −2 -->
      <g transform="translate(493.116278 218.293437) scale(0.22 -0.22)">
       <use xlink:href="#DejaVuSans-2212"/>
       <use xlink:href="#DejaVuSans-32" x="83.789062"/>
      </g>
     </g>
    </g>
    <g id="xtick_7">
     <g id="line2d_14">
      <g>
       <use xlink:href="#m30c972072f" x="583.132571" y="194.576875" style="stroke: #000000; stroke-width: 0.8"/>
      </g>
     </g>
     <g id="text_13">
      <!-- −1 -->
      <g transform="translate(566.916165 218.293437) scale(0.22 -0.22)">
       <use xlink:href="#DejaVuSans-2212"/>
       <use xlink:href="#DejaVuSans-31" x="83.789062"/>
      </g>
     </g>
    </g>
    <g id="xtick_8">
     <g id="line2d_15">
      <g>
       <use xlink:href="#m30c972072f" x="656.932457" y="194.576875" style="stroke: #000000; stroke-width: 0.8"/>
      </g>
     </g>
     <g id="text_14">
      <!-- 0 -->
      <g transform="translate(649.933707 218.293437) scale(0.22 -0.22)">
       <use xlink:href="#DejaVuSans-30"/>
      </g>
     </g>
    </g>
    <g id="xtick_9">
     <g id="line2d_16">
      <g>
       <use xlink:href="#m30c972072f" x="730.732344" y="194.576875" style="stroke: #000000; stroke-width: 0.8"/>
      </g>
     </g>
     <g id="text_15">
      <!-- 1 -->
      <g transform="translate(723.733594 218.293437) scale(0.22 -0.22)">
       <use xlink:href="#DejaVuSans-31"/>
      </g>
     </g>
    </g>
    <g id="xtick_10">
     <g id="line2d_17">
      <g>
       <use xlink:href="#m30c972072f" x="804.532231" y="194.576875" style="stroke: #000000; stroke-width: 0.8"/>
      </g>
     </g>
     <g id="text_16">
      <!-- 2 -->
      <g transform="translate(797.533481 218.293437) scale(0.22 -0.22)">
       <use xlink:href="#DejaVuSans-32"/>
      </g>
     </g>
    </g>
    <g id="text_17">
     <!-- Normalized X_1 -->
     <g transform="translate(633.483594 234.467187) scale(0.1 -0.1)">
      <defs>
       <path id="DejaVuSans-5f" d="M 3263 -1063 
L 3263 -1509 
L -63 -1509 
L -63 -1063 
L 3263 -1063 
z
" transform="scale(0.015625)"/>
      </defs>
      <use xlink:href="#DejaVuSans-4e"/>
      <use xlink:href="#DejaVuSans-6f" x="74.804688"/>
      <use xlink:href="#DejaVuSans-72" x="135.986328"/>
      <use xlink:href="#DejaVuSans-6d" x="175.349609"/>
      <use xlink:href="#DejaVuSans-61" x="272.761719"/>
      <use xlink:href="#DejaVuSans-6c" x="334.041016"/>
      <use xlink:href="#DejaVuSans-69" x="361.824219"/>
      <use xlink:href="#DejaVuSans-7a" x="389.607422"/>
      <use xlink:href="#DejaVuSans-65" x="442.097656"/>
      <use xlink:href="#DejaVuSans-64" x="503.621094"/>
      <use xlink:href="#DejaVuSans-20" x="567.097656"/>
      <use xlink:href="#DejaVuSans-58" x="598.884766"/>
      <use xlink:href="#DejaVuSans-5f" x="667.390625"/>
      <use xlink:href="#DejaVuSans-31" x="717.390625"/>
     </g>
    </g>
   </g>
   <g id="matplotlib.axis_4">
    <g id="ytick_4">
     <g id="line2d_18">
      <g>
       <use xlink:href="#m47d1ad6806" x="496.133125" y="194.576875" style="stroke: #000000; stroke-width: 0.8"/>
      </g>
     </g>
     <g id="text_18">
      <!-- 0.0 -->
      <g transform="translate(450.965625 203.695) scale(0.24 -0.24)">
       <use xlink:href="#DejaVuSans-30"/>
       <use xlink:href="#DejaVuSans-2e" x="63.623047"/>
       <use xlink:href="#DejaVuSans-30" x="95.410156"/>
      </g>
     </g>
    </g>
    <g id="ytick_5">
     <g id="line2d_19">
      <g>
       <use xlink:href="#m47d1ad6806" x="496.133125" y="131.93733" style="stroke: #000000; stroke-width: 0.8"/>
      </g>
     </g>
     <g id="text_19">
      <!-- 0.2 -->
      <g transform="translate(450.965625 141.055455) scale(0.24 -0.24)">
       <use xlink:href="#DejaVuSans-30"/>
       <use xlink:href="#DejaVuSans-2e" x="63.623047"/>
       <use xlink:href="#DejaVuSans-32" x="95.410156"/>
      </g>
     </g>
    </g>
    <g id="ytick_6">
     <g id="line2d_20">
      <g>
       <use xlink:href="#m47d1ad6806" x="496.133125" y="69.297784" style="stroke: #000000; stroke-width: 0.8"/>
      </g>
     </g>
     <g id="text_20">
      <!-- 0.4 -->
      <g transform="translate(450.965625 78.415909) scale(0.24 -0.24)">
       <use xlink:href="#DejaVuSans-30"/>
       <use xlink:href="#DejaVuSans-2e" x="63.623047"/>
       <use xlink:href="#DejaVuSans-34" x="95.410156"/>
      </g>
     </g>
    </g>
    <g id="text_21">
     <!-- Response (Y) -->
     <g transform="translate(444.885937 141.006094) rotate(-90) scale(0.1 -0.1)">
      <use xlink:href="#DejaVuSans-52"/>
      <use xlink:href="#DejaVuSans-65" x="64.982422"/>
      <use xlink:href="#DejaVuSans-73" x="126.505859"/>
      <use xlink:href="#DejaVuSans-70" x="178.605469"/>
      <use xlink:href="#DejaVuSans-6f" x="242.082031"/>
      <use xlink:href="#DejaVuSans-6e" x="303.263672"/>
      <use xlink:href="#DejaVuSans-73" x="366.642578"/>
      <use xlink:href="#DejaVuSans-65" x="418.742188"/>
      <use xlink:href="#DejaVuSans-20" x="480.265625"/>
      <use xlink:href="#DejaVuSans-28" x="512.052734"/>
      <use xlink:href="#DejaVuSans-59" x="551.066406"/>
      <use xlink:href="#DejaVuSans-29" x="612.150391"/>
     </g>
    </g>
   </g>
   <g id="LineCollection_2">
    <path d="M 512.169602 174.354241 
L 512.169602 170.407304 
" clip-path="url(#p26d51bbb3c)" style="fill: none; stroke: #000000; stroke-width: 1.5"/>
    <path d="M 552.260795 119.386712 
L 552.260795 113.680804 
" clip-path="url(#p26d51bbb3c)" style="fill: none; stroke: #000000; stroke-width: 1.5"/>
    <path d="M 592.351989 144.407684 
L 592.351989 139.6631 
" clip-path="url(#p26d51bbb3c)" style="fill: none; stroke: #000000; stroke-width: 1.5"/>
    <path d="M 632.443182 113.884337 
L 632.443182 108.683044 
" clip-path="url(#p26d51bbb3c)" style="fill: none; stroke: #000000; stroke-width: 1.5"/>
    <path d="M 672.534375 103.06229 
L 672.534375 98.303743 
" clip-path="url(#p26d51bbb3c)" style="fill: none; stroke: #000000; stroke-width: 1.5"/>
    <path d="M 712.625568 125.297569 
L 712.625568 120.392531 
" clip-path="url(#p26d51bbb3c)" style="fill: none; stroke: #000000; stroke-width: 1.5"/>
    <path d="M 752.716761 78.730407 
L 752.716761 69.621407 
" clip-path="url(#p26d51bbb3c)" style="fill: none; stroke: #000000; stroke-width: 1.5"/>
    <path d="M 792.807955 87.354027 
L 792.807955 74.733501 
" clip-path="url(#p26d51bbb3c)" style="fill: none; stroke: #000000; stroke-width: 1.5"/>
    <path d="M 832.899148 54.620885 
L 832.899148 36.280888 
" clip-path="url(#p26d51bbb3c)" style="fill: none; stroke: #000000; stroke-width: 1.5"/>
   </g>
   <g id="line2d_21">
    <g clip-path="url(#p26d51bbb3c)">
     <use xlink:href="#m963f27909e" x="512.169602" y="174.354241" style="stroke: #000000"/>
     <use xlink:href="#m963f27909e" x="552.260795" y="119.386712" style="stroke: #000000"/>
     <use xlink:href="#m963f27909e" x="592.351989" y="144.407684" style="stroke: #000000"/>
     <use xlink:href="#m963f27909e" x="632.443182" y="113.884337" style="stroke: #000000"/>
     <use xlink:href="#m963f27909e" x="672.534375" y="103.06229" style="stroke: #000000"/>
     <use xlink:href="#m963f27909e" x="712.625568" y="125.297569" style="stroke: #000000"/>
     <use xlink:href="#m963f27909e" x="752.716761" y="78.730407" style="stroke: #000000"/>
     <use xlink:href="#m963f27909e" x="792.807955" y="87.354027" style="stroke: #000000"/>
     <use xlink:href="#m963f27909e" x="832.899148" y="54.620885" style="stroke: #000000"/>
    </g>
   </g>
   <g id="line2d_22">
    <g clip-path="url(#p26d51bbb3c)">
     <use xlink:href="#m963f27909e" x="512.169602" y="170.407304" style="stroke: #000000"/>
     <use xlink:href="#m963f27909e" x="552.260795" y="113.680804" style="stroke: #000000"/>
     <use xlink:href="#m963f27909e" x="592.351989" y="139.6631" style="stroke: #000000"/>
     <use xlink:href="#m963f27909e" x="632.443182" y="108.683044" style="stroke: #000000"/>
     <use xlink:href="#m963f27909e" x="672.534375" y="98.303743" style="stroke: #000000"/>
     <use xlink:href="#m963f27909e" x="712.625568" y="120.392531" style="stroke: #000000"/>
     <use xlink:href="#m963f27909e" x="752.716761" y="69.621407" style="stroke: #000000"/>
     <use xlink:href="#m963f27909e" x="792.807955" y="74.733501" style="stroke: #000000"/>
     <use xlink:href="#m963f27909e" x="832.899148" y="36.280888" style="stroke: #000000"/>
    </g>
   </g>
   <g id="line2d_23">
    <path d="M 512.169602 164.780706 
L 552.260795 138.383265 
L 592.351989 122.834442 
L 632.443182 114.343998 
L 672.534375 109.121693 
L 712.625568 103.377288 
L 752.716761 93.320544 
L 792.807955 75.161221 
L 832.899148 45.10908 
" clip-path="url(#p26d51bbb3c)" style="fill: none; stroke-dasharray: 18.5,8; stroke-dashoffset: 0; stroke: #a9a9a9; stroke-width: 5"/>
   </g>
   <g id="line2d_24">
    <path d="M 512.169602 172.380773 
L 552.260795 116.533758 
L 592.351989 142.035392 
L 632.443182 111.28369 
L 672.534375 100.683016 
L 712.625568 122.84505 
L 752.716761 74.175907 
L 792.807955 81.043764 
L 832.899148 45.450886 
" clip-path="url(#p26d51bbb3c)" style="fill: none; stroke: #000000; stroke-width: 1.5; stroke-linecap: square"/>
    <g clip-path="url(#p26d51bbb3c)">
     <use xlink:href="#m401c87442d" x="512.169602" y="172.380773" style="stroke: #000000"/>
     <use xlink:href="#m401c87442d" x="552.260795" y="116.533758" style="stroke: #000000"/>
     <use xlink:href="#m401c87442d" x="592.351989" y="142.035392" style="stroke: #000000"/>
     <use xlink:href="#m401c87442d" x="632.443182" y="111.28369" style="stroke: #000000"/>
     <use xlink:href="#m401c87442d" x="672.534375" y="100.683016" style="stroke: #000000"/>
     <use xlink:href="#m401c87442d" x="712.625568" y="122.84505" style="stroke: #000000"/>
     <use xlink:href="#m401c87442d" x="752.716761" y="74.175907" style="stroke: #000000"/>
     <use xlink:href="#m401c87442d" x="792.807955" y="81.043764" style="stroke: #000000"/>
     <use xlink:href="#m401c87442d" x="832.899148" y="45.450886" style="stroke: #000000"/>
    </g>
   </g>
   <g id="patch_8">
    <path d="M 496.133125 194.576875 
L 496.133125 22.318125 
" style="fill: none; stroke: #000000; stroke-width: 0.8; stroke-linejoin: miter; stroke-linecap: square"/>
   </g>
   <g id="patch_9">
    <path d="M 848.935625 194.576875 
L 848.935625 22.318125 
" style="fill: none; stroke: #000000; stroke-width: 0.8; stroke-linejoin: miter; stroke-linecap: square"/>
   </g>
   <g id="patch_10">
    <path d="M 496.133125 194.576875 
L 848.935625 194.576875 
" style="fill: none; stroke: #000000; stroke-width: 0.8; stroke-linejoin: miter; stroke-linecap: square"/>
   </g>
   <g id="patch_11">
    <path d="M 496.133125 22.318125 
L 848.935625 22.318125 
" style="fill: none; stroke: #000000; stroke-width: 0.8; stroke-linejoin: miter; stroke-linecap: square"/>
   </g>
   <g id="text_22">
    <!-- RME Neuron: Dimension 2 -->
    <g transform="translate(594.1575 16.318125) scale(0.12 -0.12)">
     <use xlink:href="#DejaVuSans-52"/>
     <use xlink:href="#DejaVuSans-4d" x="69.482422"/>
     <use xlink:href="#DejaVuSans-45" x="155.761719"/>
     <use xlink:href="#DejaVuSans-20" x="218.945312"/>
     <use xlink:href="#DejaVuSans-4e" x="250.732422"/>
     <use xlink:href="#DejaVuSans-65" x="325.537109"/>
     <use xlink:href="#DejaVuSans-75" x="387.060547"/>
     <use xlink:href="#DejaVuSans-72" x="450.439453"/>
     <use xlink:href="#DejaVuSans-6f" x="489.302734"/>
     <use xlink:href="#DejaVuSans-6e" x="550.484375"/>
     <use xlink:href="#DejaVuSans-3a" x="613.863281"/>
     <use xlink:href="#DejaVuSans-20" x="647.554688"/>
     <use xlink:href="#DejaVuSans-44" x="679.341797"/>
     <use xlink:href="#DejaVuSans-69" x="756.34375"/>
     <use xlink:href="#DejaVuSans-6d" x="784.126953"/>
     <use xlink:href="#DejaVuSans-65" x="881.539062"/>
     <use xlink:href="#DejaVuSans-6e" x="943.0625"/>
     <use xlink:href="#DejaVuSans-73" x="1006.441406"/>
     <use xlink:href="#DejaVuSans-69" x="1058.541016"/>
     <use xlink:href="#DejaVuSans-6f" x="1086.324219"/>
     <use xlink:href="#DejaVuSans-6e" x="1147.505859"/>
     <use xlink:href="#DejaVuSans-20" x="1210.884766"/>
     <use xlink:href="#DejaVuSans-32" x="1242.671875"/>
    </g>
   </g>
  </g>
 </g>
 <defs>
  <clipPath id="p518dfabd8f">
   <rect x="66.045625" y="22.318125" width="352.8025" height="172.25875"/>
  </clipPath>
  <clipPath id="p26d51bbb3c">
   <rect x="496.133125" y="22.318125" width="352.8025" height="172.25875"/>
  </clipPath>
 </defs>
</svg>
