<?xml version="1.0" encoding="utf-8" standalone="no"?>
<!DOCTYPE svg PUBLIC "-//W3C//DTD SVG 1.1//EN"
  "http://www.w3.org/Graphics/SVG/1.1/DTD/svg11.dtd">
<svg xmlns:xlink="http://www.w3.org/1999/xlink" width="856.56125pt" height="244.025pt" viewBox="0 0 856.56125 244.025" xmlns="http://www.w3.org/2000/svg" version="1.1">
 <metadata>
  <rdf:RDF xmlns:dc="http://purl.org/dc/elements/1.1/" xmlns:cc="http://creativecommons.org/ns#" xmlns:rdf="http://www.w3.org/1999/02/22-rdf-syntax-ns#">
   <cc:Work>
    <dc:type rdf:resource="http://purl.org/dc/dcmitype/StillImage"/>
    <dc:date>2024-12-11T12:46:03.230402</dc:date>
    <dc:format>image/svg+xml</dc:format>
    <dc:creator>
     <cc:Agent>
      <dc:title>Matplotlib v3.9.0, https://matplotlib.org/</dc:title>
     </cc:Agent>
    </dc:creator>
   </cc:Work>
  </rdf:RDF>
 </metadata>
 <defs>
  <style type="text/css">*{stroke-linejoin: round; stroke-linecap: butt}</style>
 </defs>
 <g id="figure_1">
  <g id="patch_1">
   <path d="M 0 244.025 
L 856.56125 244.025 
L 856.56125 0 
L 0 0 
z
" style="fill: #ffffff"/>
  </g>
  <g id="axes_1">
   <g id="patch_2">
    <path d="M 52.3675 194.576875 
L 415.7625 194.576875 
L 415.7625 22.318125 
L 52.3675 22.318125 
z
" style="fill: #ffffff"/>
   </g>
   <g id="matplotlib.axis_1">
    <g id="xtick_1">
     <g id="line2d_1">
      <defs>
       <path id="mb23d481cca" d="M 0 0 
L 0 3.5 
" style="stroke: #000000; stroke-width: 0.8"/>
      </defs>
      <g>
       <use xlink:href="#mb23d481cca" x="61.230793" y="194.576875" style="stroke: #000000; stroke-width: 0.8"/>
      </g>
     </g>
     <g id="text_1">
      <!-- −2 -->
      <g transform="translate(45.014386 218.293437) scale(0.22 -0.22)">
       <defs>
        <path id="DejaVuSans-2212" d="M 678 2272 
L 4684 2272 
L 4684 1741 
L 678 1741 
L 678 2272 
z
" transform="scale(0.015625)"/>
        <path id="DejaVuSans-32" d="M 1228 531 
L 3431 531 
L 3431 0 
L 469 0 
L 469 531 
Q 828 903 1448 1529 
Q 2069 2156 2228 2338 
Q 2531 2678 2651 2914 
Q 2772 3150 2772 3378 
Q 2772 3750 2511 3984 
Q 2250 4219 1831 4219 
Q 1534 4219 1204 4116 
Q 875 4013 500 3803 
L 500 4441 
Q 881 4594 1212 4672 
Q 1544 4750 1819 4750 
Q 2544 4750 2975 4387 
Q 3406 4025 3406 3419 
Q 3406 3131 3298 2873 
Q 3191 2616 2906 2266 
Q 2828 2175 2409 1742 
Q 1991 1309 1228 531 
z
" transform="scale(0.015625)"/>
       </defs>
       <use xlink:href="#DejaVuSans-2212"/>
       <use xlink:href="#DejaVuSans-32" x="83.789062"/>
      </g>
     </g>
    </g>
    <g id="xtick_2">
     <g id="line2d_2">
      <g>
       <use xlink:href="#mb23d481cca" x="149.86372" y="194.576875" style="stroke: #000000; stroke-width: 0.8"/>
      </g>
     </g>
     <g id="text_2">
      <!-- −1 -->
      <g transform="translate(133.647313 218.293437) scale(0.22 -0.22)">
       <defs>
        <path id="DejaVuSans-31" d="M 794 531 
L 1825 531 
L 1825 4091 
L 703 3866 
L 703 4441 
L 1819 4666 
L 2450 4666 
L 2450 531 
L 3481 531 
L 3481 0 
L 794 0 
L 794 531 
z
" transform="scale(0.015625)"/>
       </defs>
       <use xlink:href="#DejaVuSans-2212"/>
       <use xlink:href="#DejaVuSans-31" x="83.789062"/>
      </g>
     </g>
    </g>
    <g id="xtick_3">
     <g id="line2d_3">
      <g>
       <use xlink:href="#mb23d481cca" x="238.496646" y="194.576875" style="stroke: #000000; stroke-width: 0.8"/>
      </g>
     </g>
     <g id="text_3">
      <!-- 0 -->
      <g transform="translate(231.497896 218.293437) scale(0.22 -0.22)">
       <defs>
        <path id="DejaVuSans-30" d="M 2034 4250 
Q 1547 4250 1301 3770 
Q 1056 3291 1056 2328 
Q 1056 1369 1301 889 
Q 1547 409 2034 409 
Q 2525 409 2770 889 
Q 3016 1369 3016 2328 
Q 3016 3291 2770 3770 
Q 2525 4250 2034 4250 
z
M 2034 4750 
Q 2819 4750 3233 4129 
Q 3647 3509 3647 2328 
Q 3647 1150 3233 529 
Q 2819 -91 2034 -91 
Q 1250 -91 836 529 
Q 422 1150 422 2328 
Q 422 3509 836 4129 
Q 1250 4750 2034 4750 
z
" transform="scale(0.015625)"/>
       </defs>
       <use xlink:href="#DejaVuSans-30"/>
      </g>
     </g>
    </g>
    <g id="xtick_4">
     <g id="line2d_4">
      <g>
       <use xlink:href="#mb23d481cca" x="327.129573" y="194.576875" style="stroke: #000000; stroke-width: 0.8"/>
      </g>
     </g>
     <g id="text_4">
      <!-- 1 -->
      <g transform="translate(320.130823 218.293437) scale(0.22 -0.22)">
       <use xlink:href="#DejaVuSans-31"/>
      </g>
     </g>
    </g>
    <g id="xtick_5">
     <g id="line2d_5">
      <g>
       <use xlink:href="#mb23d481cca" x="415.7625" y="194.576875" style="stroke: #000000; stroke-width: 0.8"/>
      </g>
     </g>
     <g id="text_5">
      <!-- 2 -->
      <g transform="translate(408.76375 218.293437) scale(0.22 -0.22)">
       <use xlink:href="#DejaVuSans-32"/>
      </g>
     </g>
    </g>
    <g id="text_6">
     <!-- Normalized X -->
     <g transform="translate(200.695469 234.467187) scale(0.1 -0.1)">
      <defs>
       <path id="DejaVuSans-4e" d="M 628 4666 
L 1478 4666 
L 3547 763 
L 3547 4666 
L 4159 4666 
L 4159 0 
L 3309 0 
L 1241 3903 
L 1241 0 
L 628 0 
L 628 4666 
z
" transform="scale(0.015625)"/>
       <path id="DejaVuSans-6f" d="M 1959 3097 
Q 1497 3097 1228 2736 
Q 959 2375 959 1747 
Q 959 1119 1226 758 
Q 1494 397 1959 397 
Q 2419 397 2687 759 
Q 2956 1122 2956 1747 
Q 2956 2369 2687 2733 
Q 2419 3097 1959 3097 
z
M 1959 3584 
Q 2709 3584 3137 3096 
Q 3566 2609 3566 1747 
Q 3566 888 3137 398 
Q 2709 -91 1959 -91 
Q 1206 -91 779 398 
Q 353 888 353 1747 
Q 353 2609 779 3096 
Q 1206 3584 1959 3584 
z
" transform="scale(0.015625)"/>
       <path id="DejaVuSans-72" d="M 2631 2963 
Q 2534 3019 2420 3045 
Q 2306 3072 2169 3072 
Q 1681 3072 1420 2755 
Q 1159 2438 1159 1844 
L 1159 0 
L 581 0 
L 581 3500 
L 1159 3500 
L 1159 2956 
Q 1341 3275 1631 3429 
Q 1922 3584 2338 3584 
Q 2397 3584 2469 3576 
Q 2541 3569 2628 3553 
L 2631 2963 
z
" transform="scale(0.015625)"/>
       <path id="DejaVuSans-6d" d="M 3328 2828 
Q 3544 3216 3844 3400 
Q 4144 3584 4550 3584 
Q 5097 3584 5394 3201 
Q 5691 2819 5691 2113 
L 5691 0 
L 5113 0 
L 5113 2094 
Q 5113 2597 4934 2840 
Q 4756 3084 4391 3084 
Q 3944 3084 3684 2787 
Q 3425 2491 3425 1978 
L 3425 0 
L 2847 0 
L 2847 2094 
Q 2847 2600 2669 2842 
Q 2491 3084 2119 3084 
Q 1678 3084 1418 2786 
Q 1159 2488 1159 1978 
L 1159 0 
L 581 0 
L 581 3500 
L 1159 3500 
L 1159 2956 
Q 1356 3278 1631 3431 
Q 1906 3584 2284 3584 
Q 2666 3584 2933 3390 
Q 3200 3197 3328 2828 
z
" transform="scale(0.015625)"/>
       <path id="DejaVuSans-61" d="M 2194 1759 
Q 1497 1759 1228 1600 
Q 959 1441 959 1056 
Q 959 750 1161 570 
Q 1363 391 1709 391 
Q 2188 391 2477 730 
Q 2766 1069 2766 1631 
L 2766 1759 
L 2194 1759 
z
M 3341 1997 
L 3341 0 
L 2766 0 
L 2766 531 
Q 2569 213 2275 61 
Q 1981 -91 1556 -91 
Q 1019 -91 701 211 
Q 384 513 384 1019 
Q 384 1609 779 1909 
Q 1175 2209 1959 2209 
L 2766 2209 
L 2766 2266 
Q 2766 2663 2505 2880 
Q 2244 3097 1772 3097 
Q 1472 3097 1187 3025 
Q 903 2953 641 2809 
L 641 3341 
Q 956 3463 1253 3523 
Q 1550 3584 1831 3584 
Q 2591 3584 2966 3190 
Q 3341 2797 3341 1997 
z
" transform="scale(0.015625)"/>
       <path id="DejaVuSans-6c" d="M 603 4863 
L 1178 4863 
L 1178 0 
L 603 0 
L 603 4863 
z
" transform="scale(0.015625)"/>
       <path id="DejaVuSans-69" d="M 603 3500 
L 1178 3500 
L 1178 0 
L 603 0 
L 603 3500 
z
M 603 4863 
L 1178 4863 
L 1178 4134 
L 603 4134 
L 603 4863 
z
" transform="scale(0.015625)"/>
       <path id="DejaVuSans-7a" d="M 353 3500 
L 3084 3500 
L 3084 2975 
L 922 459 
L 3084 459 
L 3084 0 
L 275 0 
L 275 525 
L 2438 3041 
L 353 3041 
L 353 3500 
z
" transform="scale(0.015625)"/>
       <path id="DejaVuSans-65" d="M 3597 1894 
L 3597 1613 
L 953 1613 
Q 991 1019 1311 708 
Q 1631 397 2203 397 
Q 2534 397 2845 478 
Q 3156 559 3463 722 
L 3463 178 
Q 3153 47 2828 -22 
Q 2503 -91 2169 -91 
Q 1331 -91 842 396 
Q 353 884 353 1716 
Q 353 2575 817 3079 
Q 1281 3584 2069 3584 
Q 2775 3584 3186 3129 
Q 3597 2675 3597 1894 
z
M 3022 2063 
Q 3016 2534 2758 2815 
Q 2500 3097 2075 3097 
Q 1594 3097 1305 2825 
Q 1016 2553 972 2059 
L 3022 2063 
z
" transform="scale(0.015625)"/>
       <path id="DejaVuSans-64" d="M 2906 2969 
L 2906 4863 
L 3481 4863 
L 3481 0 
L 2906 0 
L 2906 525 
Q 2725 213 2448 61 
Q 2172 -91 1784 -91 
Q 1150 -91 751 415 
Q 353 922 353 1747 
Q 353 2572 751 3078 
Q 1150 3584 1784 3584 
Q 2172 3584 2448 3432 
Q 2725 3281 2906 2969 
z
M 947 1747 
Q 947 1113 1208 752 
Q 1469 391 1925 391 
Q 2381 391 2643 752 
Q 2906 1113 2906 1747 
Q 2906 2381 2643 2742 
Q 2381 3103 1925 3103 
Q 1469 3103 1208 2742 
Q 947 2381 947 1747 
z
" transform="scale(0.015625)"/>
       <path id="DejaVuSans-20" transform="scale(0.015625)"/>
       <path id="DejaVuSans-58" d="M 403 4666 
L 1081 4666 
L 2241 2931 
L 3406 4666 
L 4084 4666 
L 2584 2425 
L 4184 0 
L 3506 0 
L 2194 1984 
L 872 0 
L 191 0 
L 1856 2491 
L 403 4666 
z
" transform="scale(0.015625)"/>
      </defs>
      <use xlink:href="#DejaVuSans-4e"/>
      <use xlink:href="#DejaVuSans-6f" x="74.804688"/>
      <use xlink:href="#DejaVuSans-72" x="135.986328"/>
      <use xlink:href="#DejaVuSans-6d" x="175.349609"/>
      <use xlink:href="#DejaVuSans-61" x="272.761719"/>
      <use xlink:href="#DejaVuSans-6c" x="334.041016"/>
      <use xlink:href="#DejaVuSans-69" x="361.824219"/>
      <use xlink:href="#DejaVuSans-7a" x="389.607422"/>
      <use xlink:href="#DejaVuSans-65" x="442.097656"/>
      <use xlink:href="#DejaVuSans-64" x="503.621094"/>
      <use xlink:href="#DejaVuSans-20" x="567.097656"/>
      <use xlink:href="#DejaVuSans-58" x="598.884766"/>
     </g>
    </g>
   </g>
   <g id="matplotlib.axis_2">
    <g id="ytick_1">
     <g id="line2d_6">
      <defs>
       <path id="mb0906b77cf" d="M 0 0 
L -3.5 0 
" style="stroke: #000000; stroke-width: 0.8"/>
      </defs>
      <g>
       <use xlink:href="#mb0906b77cf" x="52.3675" y="194.576875" style="stroke: #000000; stroke-width: 0.8"/>
      </g>
     </g>
     <g id="text_7">
      <!-- 0.0 -->
      <g transform="translate(7.2 203.695) scale(0.24 -0.24)">
       <defs>
        <path id="DejaVuSans-2e" d="M 684 794 
L 1344 794 
L 1344 0 
L 684 0 
L 684 794 
z
" transform="scale(0.015625)"/>
       </defs>
       <use xlink:href="#DejaVuSans-30"/>
       <use xlink:href="#DejaVuSans-2e" x="63.623047"/>
       <use xlink:href="#DejaVuSans-30" x="95.410156"/>
      </g>
     </g>
    </g>
    <g id="ytick_2">
     <g id="line2d_7">
      <g>
       <use xlink:href="#mb0906b77cf" x="52.3675" y="108.4475" style="stroke: #000000; stroke-width: 0.8"/>
      </g>
     </g>
     <g id="text_8">
      <!-- 0.2 -->
      <g transform="translate(7.2 117.565625) scale(0.24 -0.24)">
       <use xlink:href="#DejaVuSans-30"/>
       <use xlink:href="#DejaVuSans-2e" x="63.623047"/>
       <use xlink:href="#DejaVuSans-32" x="95.410156"/>
      </g>
     </g>
    </g>
    <g id="ytick_3">
     <g id="line2d_8">
      <g>
       <use xlink:href="#mb0906b77cf" x="52.3675" y="22.318125" style="stroke: #000000; stroke-width: 0.8"/>
      </g>
     </g>
     <g id="text_9">
      <!-- 0.4 -->
      <g transform="translate(7.2 31.43625) scale(0.24 -0.24)">
       <defs>
        <path id="DejaVuSans-34" d="M 2419 4116 
L 825 1625 
L 2419 1625 
L 2419 4116 
z
M 2253 4666 
L 3047 4666 
L 3047 1625 
L 3713 1625 
L 3713 1100 
L 3047 1100 
L 3047 0 
L 2419 0 
L 2419 1100 
L 313 1100 
L 313 1709 
L 2253 4666 
z
" transform="scale(0.015625)"/>
       </defs>
       <use xlink:href="#DejaVuSans-30"/>
       <use xlink:href="#DejaVuSans-2e" x="63.623047"/>
       <use xlink:href="#DejaVuSans-34" x="95.410156"/>
      </g>
     </g>
    </g>
   </g>
   <g id="LineCollection_1">
    <path d="M 56.501903 116.23007 
L 56.501903 102.603789 
" clip-path="url(#p8d2693d8bc)" style="fill: none; stroke: #000000; stroke-width: 1.5"/>
    <path d="M 100.84958 112.588529 
L 100.84958 103.18466 
" clip-path="url(#p8d2693d8bc)" style="fill: none; stroke: #000000; stroke-width: 1.5"/>
    <path d="M 145.197256 56.567781 
L 145.197256 43.297967 
" clip-path="url(#p8d2693d8bc)" style="fill: none; stroke: #000000; stroke-width: 1.5"/>
    <path d="M 189.544933 52.159817 
L 189.544933 39.593073 
" clip-path="url(#p8d2693d8bc)" style="fill: none; stroke: #000000; stroke-width: 1.5"/>
    <path d="M 233.89261 57.511592 
L 233.89261 49.404367 
" clip-path="url(#p8d2693d8bc)" style="fill: none; stroke: #000000; stroke-width: 1.5"/>
    <path d="M 278.240287 59.933291 
L 278.240287 52.630173 
" clip-path="url(#p8d2693d8bc)" style="fill: none; stroke: #000000; stroke-width: 1.5"/>
    <path d="M 322.587964 82.910408 
L 322.587964 73.986156 
" clip-path="url(#p8d2693d8bc)" style="fill: none; stroke: #000000; stroke-width: 1.5"/>
    <path d="M 366.935641 97.847054 
L 366.935641 84.283003 
" clip-path="url(#p8d2693d8bc)" style="fill: none; stroke: #000000; stroke-width: 1.5"/>
    <path d="M 411.283317 88.507969 
L 411.283317 71.987417 
" clip-path="url(#p8d2693d8bc)" style="fill: none; stroke: #000000; stroke-width: 1.5"/>
   </g>
   <g id="line2d_9">
    <defs>
     <path id="m77e7a4e799" d="M 5 0 
L -5 -0 
" style="stroke: #000000"/>
    </defs>
    <g clip-path="url(#p8d2693d8bc)">
     <use xlink:href="#m77e7a4e799" x="56.501903" y="116.23007" style="stroke: #000000"/>
     <use xlink:href="#m77e7a4e799" x="100.84958" y="112.588529" style="stroke: #000000"/>
     <use xlink:href="#m77e7a4e799" x="145.197256" y="56.567781" style="stroke: #000000"/>
     <use xlink:href="#m77e7a4e799" x="189.544933" y="52.159817" style="stroke: #000000"/>
     <use xlink:href="#m77e7a4e799" x="233.89261" y="57.511592" style="stroke: #000000"/>
     <use xlink:href="#m77e7a4e799" x="278.240287" y="59.933291" style="stroke: #000000"/>
     <use xlink:href="#m77e7a4e799" x="322.587964" y="82.910408" style="stroke: #000000"/>
     <use xlink:href="#m77e7a4e799" x="366.935641" y="97.847054" style="stroke: #000000"/>
     <use xlink:href="#m77e7a4e799" x="411.283317" y="88.507969" style="stroke: #000000"/>
    </g>
   </g>
   <g id="line2d_10">
    <g clip-path="url(#p8d2693d8bc)">
     <use xlink:href="#m77e7a4e799" x="56.501903" y="102.603789" style="stroke: #000000"/>
     <use xlink:href="#m77e7a4e799" x="100.84958" y="103.18466" style="stroke: #000000"/>
     <use xlink:href="#m77e7a4e799" x="145.197256" y="43.297967" style="stroke: #000000"/>
     <use xlink:href="#m77e7a4e799" x="189.544933" y="39.593073" style="stroke: #000000"/>
     <use xlink:href="#m77e7a4e799" x="233.89261" y="49.404367" style="stroke: #000000"/>
     <use xlink:href="#m77e7a4e799" x="278.240287" y="52.630173" style="stroke: #000000"/>
     <use xlink:href="#m77e7a4e799" x="322.587964" y="73.986156" style="stroke: #000000"/>
     <use xlink:href="#m77e7a4e799" x="366.935641" y="84.283003" style="stroke: #000000"/>
     <use xlink:href="#m77e7a4e799" x="411.283317" y="71.987417" style="stroke: #000000"/>
    </g>
   </g>
   <g id="line2d_11">
    <path d="M 56.501903 121.051832 
L 100.84958 81.630388 
L 145.197256 59.860755 
L 189.544933 51.929972 
L 233.89261 54.025079 
L 278.240287 62.333113 
L 322.587964 73.041115 
L 366.935641 82.336124 
L 411.283317 86.405179 
" clip-path="url(#p8d2693d8bc)" style="fill: none; stroke-dasharray: 18.5,8; stroke-dashoffset: 0; stroke: #a9a9a9; stroke-width: 5"/>
   </g>
   <g id="line2d_12">
    <path d="M 56.501903 109.416929 
L 100.84958 107.886594 
L 145.197256 49.932874 
L 189.544933 45.876445 
L 233.89261 53.45798 
L 278.240287 56.281732 
L 322.587964 78.448282 
L 366.935641 91.065028 
L 411.283317 80.247693 
" clip-path="url(#p8d2693d8bc)" style="fill: none; stroke: #000000; stroke-width: 1.5; stroke-linecap: square"/>
    <defs>
     <path id="me2fee55cc1" d="M 0 3 
C 0.795609 3 1.55874 2.683901 2.12132 2.12132 
C 2.683901 1.55874 3 0.795609 3 0 
C 3 -0.795609 2.683901 -1.55874 2.12132 -2.12132 
C 1.55874 -2.683901 0.795609 -3 0 -3 
C -0.795609 -3 -1.55874 -2.683901 -2.12132 -2.12132 
C -2.683901 -1.55874 -3 -0.795609 -3 0 
C -3 0.795609 -2.683901 1.55874 -2.12132 2.12132 
C -1.55874 2.683901 -0.795609 3 0 3 
z
" style="stroke: #000000"/>
    </defs>
    <g clip-path="url(#p8d2693d8bc)">
     <use xlink:href="#me2fee55cc1" x="56.501903" y="109.416929" style="stroke: #000000"/>
     <use xlink:href="#me2fee55cc1" x="100.84958" y="107.886594" style="stroke: #000000"/>
     <use xlink:href="#me2fee55cc1" x="145.197256" y="49.932874" style="stroke: #000000"/>
     <use xlink:href="#me2fee55cc1" x="189.544933" y="45.876445" style="stroke: #000000"/>
     <use xlink:href="#me2fee55cc1" x="233.89261" y="53.45798" style="stroke: #000000"/>
     <use xlink:href="#me2fee55cc1" x="278.240287" y="56.281732" style="stroke: #000000"/>
     <use xlink:href="#me2fee55cc1" x="322.587964" y="78.448282" style="stroke: #000000"/>
     <use xlink:href="#me2fee55cc1" x="366.935641" y="91.065028" style="stroke: #000000"/>
     <use xlink:href="#me2fee55cc1" x="411.283317" y="80.247693" style="stroke: #000000"/>
    </g>
   </g>
   <g id="patch_3">
    <path d="M 52.3675 194.576875 
L 52.3675 22.318125 
" style="fill: none; stroke: #000000; stroke-width: 0.8; stroke-linejoin: miter; stroke-linecap: square"/>
   </g>
   <g id="patch_4">
    <path d="M 415.7625 194.576875 
L 415.7625 22.318125 
" style="fill: none; stroke: #000000; stroke-width: 0.8; stroke-linejoin: miter; stroke-linecap: square"/>
   </g>
   <g id="patch_5">
    <path d="M 52.3675 194.576875 
L 415.7625 194.576875 
" style="fill: none; stroke: #000000; stroke-width: 0.8; stroke-linejoin: miter; stroke-linecap: square"/>
   </g>
   <g id="patch_6">
    <path d="M 52.3675 22.318125 
L 415.7625 22.318125 
" style="fill: none; stroke: #000000; stroke-width: 0.8; stroke-linejoin: miter; stroke-linecap: square"/>
   </g>
   <g id="text_10">
    <!-- RME Neuron: Dimension 1 -->
    <g transform="translate(155.688125 16.318125) scale(0.12 -0.12)">
     <defs>
      <path id="DejaVuSans-52" d="M 2841 2188 
Q 3044 2119 3236 1894 
Q 3428 1669 3622 1275 
L 4263 0 
L 3584 0 
L 2988 1197 
Q 2756 1666 2539 1819 
Q 2322 1972 1947 1972 
L 1259 1972 
L 1259 0 
L 628 0 
L 628 4666 
L 2053 4666 
Q 2853 4666 3247 4331 
Q 3641 3997 3641 3322 
Q 3641 2881 3436 2590 
Q 3231 2300 2841 2188 
z
M 1259 4147 
L 1259 2491 
L 2053 2491 
Q 2509 2491 2742 2702 
Q 2975 2913 2975 3322 
Q 2975 3731 2742 3939 
Q 2509 4147 2053 4147 
L 1259 4147 
z
" transform="scale(0.015625)"/>
      <path id="DejaVuSans-4d" d="M 628 4666 
L 1569 4666 
L 2759 1491 
L 3956 4666 
L 4897 4666 
L 4897 0 
L 4281 0 
L 4281 4097 
L 3078 897 
L 2444 897 
L 1241 4097 
L 1241 0 
L 628 0 
L 628 4666 
z
" transform="scale(0.015625)"/>
      <path id="DejaVuSans-45" d="M 628 4666 
L 3578 4666 
L 3578 4134 
L 1259 4134 
L 1259 2753 
L 3481 2753 
L 3481 2222 
L 1259 2222 
L 1259 531 
L 3634 531 
L 3634 0 
L 628 0 
L 628 4666 
z
" transform="scale(0.015625)"/>
      <path id="DejaVuSans-75" d="M 544 1381 
L 544 3500 
L 1119 3500 
L 1119 1403 
Q 1119 906 1312 657 
Q 1506 409 1894 409 
Q 2359 409 2629 706 
Q 2900 1003 2900 1516 
L 2900 3500 
L 3475 3500 
L 3475 0 
L 2900 0 
L 2900 538 
Q 2691 219 2414 64 
Q 2138 -91 1772 -91 
Q 1169 -91 856 284 
Q 544 659 544 1381 
z
M 1991 3584 
L 1991 3584 
z
" transform="scale(0.015625)"/>
      <path id="DejaVuSans-6e" d="M 3513 2113 
L 3513 0 
L 2938 0 
L 2938 2094 
Q 2938 2591 2744 2837 
Q 2550 3084 2163 3084 
Q 1697 3084 1428 2787 
Q 1159 2491 1159 1978 
L 1159 0 
L 581 0 
L 581 3500 
L 1159 3500 
L 1159 2956 
Q 1366 3272 1645 3428 
Q 1925 3584 2291 3584 
Q 2894 3584 3203 3211 
Q 3513 2838 3513 2113 
z
" transform="scale(0.015625)"/>
      <path id="DejaVuSans-3a" d="M 750 794 
L 1409 794 
L 1409 0 
L 750 0 
L 750 794 
z
M 750 3309 
L 1409 3309 
L 1409 2516 
L 750 2516 
L 750 3309 
z
" transform="scale(0.015625)"/>
      <path id="DejaVuSans-44" d="M 1259 4147 
L 1259 519 
L 2022 519 
Q 2988 519 3436 956 
Q 3884 1394 3884 2338 
Q 3884 3275 3436 3711 
Q 2988 4147 2022 4147 
L 1259 4147 
z
M 628 4666 
L 1925 4666 
Q 3281 4666 3915 4102 
Q 4550 3538 4550 2338 
Q 4550 1131 3912 565 
Q 3275 0 1925 0 
L 628 0 
L 628 4666 
z
" transform="scale(0.015625)"/>
      <path id="DejaVuSans-73" d="M 2834 3397 
L 2834 2853 
Q 2591 2978 2328 3040 
Q 2066 3103 1784 3103 
Q 1356 3103 1142 2972 
Q 928 2841 928 2578 
Q 928 2378 1081 2264 
Q 1234 2150 1697 2047 
L 1894 2003 
Q 2506 1872 2764 1633 
Q 3022 1394 3022 966 
Q 3022 478 2636 193 
Q 2250 -91 1575 -91 
Q 1294 -91 989 -36 
Q 684 19 347 128 
L 347 722 
Q 666 556 975 473 
Q 1284 391 1588 391 
Q 1994 391 2212 530 
Q 2431 669 2431 922 
Q 2431 1156 2273 1281 
Q 2116 1406 1581 1522 
L 1381 1569 
Q 847 1681 609 1914 
Q 372 2147 372 2553 
Q 372 3047 722 3315 
Q 1072 3584 1716 3584 
Q 2034 3584 2315 3537 
Q 2597 3491 2834 3397 
z
" transform="scale(0.015625)"/>
     </defs>
     <use xlink:href="#DejaVuSans-52"/>
     <use xlink:href="#DejaVuSans-4d" x="69.482422"/>
     <use xlink:href="#DejaVuSans-45" x="155.761719"/>
     <use xlink:href="#DejaVuSans-20" x="218.945312"/>
     <use xlink:href="#DejaVuSans-4e" x="250.732422"/>
     <use xlink:href="#DejaVuSans-65" x="325.537109"/>
     <use xlink:href="#DejaVuSans-75" x="387.060547"/>
     <use xlink:href="#DejaVuSans-72" x="450.439453"/>
     <use xlink:href="#DejaVuSans-6f" x="489.302734"/>
     <use xlink:href="#DejaVuSans-6e" x="550.484375"/>
     <use xlink:href="#DejaVuSans-3a" x="613.863281"/>
     <use xlink:href="#DejaVuSans-20" x="647.554688"/>
     <use xlink:href="#DejaVuSans-44" x="679.341797"/>
     <use xlink:href="#DejaVuSans-69" x="756.34375"/>
     <use xlink:href="#DejaVuSans-6d" x="784.126953"/>
     <use xlink:href="#DejaVuSans-65" x="881.539062"/>
     <use xlink:href="#DejaVuSans-6e" x="943.0625"/>
     <use xlink:href="#DejaVuSans-73" x="1006.441406"/>
     <use xlink:href="#DejaVuSans-69" x="1058.541016"/>
     <use xlink:href="#DejaVuSans-6f" x="1086.324219"/>
     <use xlink:href="#DejaVuSans-6e" x="1147.505859"/>
     <use xlink:href="#DejaVuSans-20" x="1210.884766"/>
     <use xlink:href="#DejaVuSans-31" x="1242.671875"/>
    </g>
   </g>
  </g>
  <g id="axes_2">
   <g id="patch_7">
    <path d="M 478.9675 194.576875 
L 842.3625 194.576875 
L 842.3625 22.318125 
L 478.9675 22.318125 
z
" style="fill: #ffffff"/>
   </g>
   <g id="matplotlib.axis_3">
    <g id="xtick_6">
     <g id="line2d_13">
      <g>
       <use xlink:href="#mb23d481cca" x="487.830793" y="194.576875" style="stroke: #000000; stroke-width: 0.8"/>
      </g>
     </g>
     <g id="text_11">
      <!-- −2 -->
      <g transform="translate(471.614386 218.293437) scale(0.22 -0.22)">
       <use xlink:href="#DejaVuSans-2212"/>
       <use xlink:href="#DejaVuSans-32" x="83.789062"/>
      </g>
     </g>
    </g>
    <g id="xtick_7">
     <g id="line2d_14">
      <g>
       <use xlink:href="#mb23d481cca" x="576.46372" y="194.576875" style="stroke: #000000; stroke-width: 0.8"/>
      </g>
     </g>
     <g id="text_12">
      <!-- −1 -->
      <g transform="translate(560.247313 218.293437) scale(0.22 -0.22)">
       <use xlink:href="#DejaVuSans-2212"/>
       <use xlink:href="#DejaVuSans-31" x="83.789062"/>
      </g>
     </g>
    </g>
    <g id="xtick_8">
     <g id="line2d_15">
      <g>
       <use xlink:href="#mb23d481cca" x="665.096646" y="194.576875" style="stroke: #000000; stroke-width: 0.8"/>
      </g>
     </g>
     <g id="text_13">
      <!-- 0 -->
      <g transform="translate(658.097896 218.293437) scale(0.22 -0.22)">
       <use xlink:href="#DejaVuSans-30"/>
      </g>
     </g>
    </g>
    <g id="xtick_9">
     <g id="line2d_16">
      <g>
       <use xlink:href="#mb23d481cca" x="753.729573" y="194.576875" style="stroke: #000000; stroke-width: 0.8"/>
      </g>
     </g>
     <g id="text_14">
      <!-- 1 -->
      <g transform="translate(746.730823 218.293437) scale(0.22 -0.22)">
       <use xlink:href="#DejaVuSans-31"/>
      </g>
     </g>
    </g>
    <g id="xtick_10">
     <g id="line2d_17">
      <g>
       <use xlink:href="#mb23d481cca" x="842.3625" y="194.576875" style="stroke: #000000; stroke-width: 0.8"/>
      </g>
     </g>
     <g id="text_15">
      <!-- 2 -->
      <g transform="translate(835.36375 218.293437) scale(0.22 -0.22)">
       <use xlink:href="#DejaVuSans-32"/>
      </g>
     </g>
    </g>
    <g id="text_16">
     <!-- Normalized X_1 -->
     <g transform="translate(621.614219 234.467187) scale(0.1 -0.1)">
      <defs>
       <path id="DejaVuSans-5f" d="M 3263 -1063 
L 3263 -1509 
L -63 -1509 
L -63 -1063 
L 3263 -1063 
z
" transform="scale(0.015625)"/>
      </defs>
      <use xlink:href="#DejaVuSans-4e"/>
      <use xlink:href="#DejaVuSans-6f" x="74.804688"/>
      <use xlink:href="#DejaVuSans-72" x="135.986328"/>
      <use xlink:href="#DejaVuSans-6d" x="175.349609"/>
      <use xlink:href="#DejaVuSans-61" x="272.761719"/>
      <use xlink:href="#DejaVuSans-6c" x="334.041016"/>
      <use xlink:href="#DejaVuSans-69" x="361.824219"/>
      <use xlink:href="#DejaVuSans-7a" x="389.607422"/>
      <use xlink:href="#DejaVuSans-65" x="442.097656"/>
      <use xlink:href="#DejaVuSans-64" x="503.621094"/>
      <use xlink:href="#DejaVuSans-20" x="567.097656"/>
      <use xlink:href="#DejaVuSans-58" x="598.884766"/>
      <use xlink:href="#DejaVuSans-5f" x="667.390625"/>
      <use xlink:href="#DejaVuSans-31" x="717.390625"/>
     </g>
    </g>
   </g>
   <g id="matplotlib.axis_4">
    <g id="ytick_4">
     <g id="line2d_18">
      <g>
       <use xlink:href="#mb0906b77cf" x="478.9675" y="194.576875" style="stroke: #000000; stroke-width: 0.8"/>
      </g>
     </g>
     <g id="text_17">
      <!-- 0.0 -->
      <g transform="translate(433.8 203.695) scale(0.24 -0.24)">
       <use xlink:href="#DejaVuSans-30"/>
       <use xlink:href="#DejaVuSans-2e" x="63.623047"/>
       <use xlink:href="#DejaVuSans-30" x="95.410156"/>
      </g>
     </g>
    </g>
    <g id="ytick_5">
     <g id="line2d_19">
      <g>
       <use xlink:href="#mb0906b77cf" x="478.9675" y="108.4475" style="stroke: #000000; stroke-width: 0.8"/>
      </g>
     </g>
     <g id="text_18">
      <!-- 0.2 -->
      <g transform="translate(433.8 117.565625) scale(0.24 -0.24)">
       <use xlink:href="#DejaVuSans-30"/>
       <use xlink:href="#DejaVuSans-2e" x="63.623047"/>
       <use xlink:href="#DejaVuSans-32" x="95.410156"/>
      </g>
     </g>
    </g>
    <g id="ytick_6">
     <g id="line2d_20">
      <g>
       <use xlink:href="#mb0906b77cf" x="478.9675" y="22.318125" style="stroke: #000000; stroke-width: 0.8"/>
      </g>
     </g>
     <g id="text_19">
      <!-- 0.4 -->
      <g transform="translate(433.8 31.43625) scale(0.24 -0.24)">
       <use xlink:href="#DejaVuSans-30"/>
       <use xlink:href="#DejaVuSans-2e" x="63.623047"/>
       <use xlink:href="#DejaVuSans-34" x="95.410156"/>
      </g>
     </g>
    </g>
   </g>
   <g id="LineCollection_2">
    <path d="M 483.101903 95.867201 
L 483.101903 75.335407 
" clip-path="url(#p67fe69f318)" style="fill: none; stroke: #000000; stroke-width: 1.5"/>
    <path d="M 527.44958 70.779037 
L 527.44958 52.299603 
" clip-path="url(#p67fe69f318)" style="fill: none; stroke: #000000; stroke-width: 1.5"/>
    <path d="M 571.797256 97.54938 
L 571.797256 89.160594 
" clip-path="url(#p67fe69f318)" style="fill: none; stroke: #000000; stroke-width: 1.5"/>
    <path d="M 616.144933 112.745914 
L 616.144933 106.252233 
" clip-path="url(#p67fe69f318)" style="fill: none; stroke: #000000; stroke-width: 1.5"/>
    <path d="M 660.49261 65.26219 
L 660.49261 56.625565 
" clip-path="url(#p67fe69f318)" style="fill: none; stroke: #000000; stroke-width: 1.5"/>
    <path d="M 704.840287 47.516029 
L 704.840287 38.300589 
" clip-path="url(#p67fe69f318)" style="fill: none; stroke: #000000; stroke-width: 1.5"/>
    <path d="M 749.187964 39.329211 
L 749.187964 29.240548 
" clip-path="url(#p67fe69f318)" style="fill: none; stroke: #000000; stroke-width: 1.5"/>
    <path d="M 793.535641 74.805174 
L 793.535641 59.411547 
" clip-path="url(#p67fe69f318)" style="fill: none; stroke: #000000; stroke-width: 1.5"/>
    <path d="M 837.883317 43.015624 
L 837.883317 27.456745 
" clip-path="url(#p67fe69f318)" style="fill: none; stroke: #000000; stroke-width: 1.5"/>
    <path clip-path="url(#p67fe69f318)" style="fill: none; stroke: #000000; stroke-width: 1.5"/>
   </g>
   <g id="line2d_21">
    <g clip-path="url(#p67fe69f318)">
     <use xlink:href="#m77e7a4e799" x="483.101903" y="95.867201" style="stroke: #000000"/>
     <use xlink:href="#m77e7a4e799" x="527.44958" y="70.779037" style="stroke: #000000"/>
     <use xlink:href="#m77e7a4e799" x="571.797256" y="97.54938" style="stroke: #000000"/>
     <use xlink:href="#m77e7a4e799" x="616.144933" y="112.745914" style="stroke: #000000"/>
     <use xlink:href="#m77e7a4e799" x="660.49261" y="65.26219" style="stroke: #000000"/>
     <use xlink:href="#m77e7a4e799" x="704.840287" y="47.516029" style="stroke: #000000"/>
     <use xlink:href="#m77e7a4e799" x="749.187964" y="39.329211" style="stroke: #000000"/>
     <use xlink:href="#m77e7a4e799" x="793.535641" y="74.805174" style="stroke: #000000"/>
     <use xlink:href="#m77e7a4e799" x="837.883317" y="43.015624" style="stroke: #000000"/>
     <use xlink:href="#m77e7a4e799" x="882.230994" y="66.256003" style="stroke: #000000"/>
    </g>
   </g>
   <g id="line2d_22">
    <g clip-path="url(#p67fe69f318)">
     <use xlink:href="#m77e7a4e799" x="483.101903" y="75.335407" style="stroke: #000000"/>
     <use xlink:href="#m77e7a4e799" x="527.44958" y="52.299603" style="stroke: #000000"/>
     <use xlink:href="#m77e7a4e799" x="571.797256" y="89.160594" style="stroke: #000000"/>
     <use xlink:href="#m77e7a4e799" x="616.144933" y="106.252233" style="stroke: #000000"/>
     <use xlink:href="#m77e7a4e799" x="660.49261" y="56.625565" style="stroke: #000000"/>
     <use xlink:href="#m77e7a4e799" x="704.840287" y="38.300589" style="stroke: #000000"/>
     <use xlink:href="#m77e7a4e799" x="749.187964" y="29.240548" style="stroke: #000000"/>
     <use xlink:href="#m77e7a4e799" x="793.535641" y="59.411547" style="stroke: #000000"/>
     <use xlink:href="#m77e7a4e799" x="837.883317" y="27.456745" style="stroke: #000000"/>
     <use xlink:href="#m77e7a4e799" x="882.230994" y="28.913176" style="stroke: #000000"/>
    </g>
   </g>
   <g id="line2d_23">
    <path d="M 483.101903 76.765694 
L 527.44958 86.353677 
L 571.797256 86.701023 
L 616.144933 80.416405 
L 660.49261 70.108494 
L 704.840287 58.385961 
L 749.187964 47.857481 
L 793.535641 41.131723 
L 837.883317 40.817361 
L 857.56125 44.680253 
" clip-path="url(#p67fe69f318)" style="fill: none; stroke-dasharray: 18.5,8; stroke-dashoffset: 0; stroke: #a9a9a9; stroke-width: 5"/>
   </g>
   <g id="line2d_24">
    <path d="M 483.101903 85.601304 
L 527.44958 61.53932 
L 571.797256 93.354987 
L 616.144933 109.499074 
L 660.49261 60.943878 
L 704.840287 42.908309 
L 749.187964 34.28488 
L 793.535641 67.108361 
L 837.883317 35.236185 
L 857.56125 40.715414 
" clip-path="url(#p67fe69f318)" style="fill: none; stroke: #000000; stroke-width: 1.5; stroke-linecap: square"/>
    <g clip-path="url(#p67fe69f318)">
     <use xlink:href="#me2fee55cc1" x="483.101903" y="85.601304" style="stroke: #000000"/>
     <use xlink:href="#me2fee55cc1" x="527.44958" y="61.53932" style="stroke: #000000"/>
     <use xlink:href="#me2fee55cc1" x="571.797256" y="93.354987" style="stroke: #000000"/>
     <use xlink:href="#me2fee55cc1" x="616.144933" y="109.499074" style="stroke: #000000"/>
     <use xlink:href="#me2fee55cc1" x="660.49261" y="60.943878" style="stroke: #000000"/>
     <use xlink:href="#me2fee55cc1" x="704.840287" y="42.908309" style="stroke: #000000"/>
     <use xlink:href="#me2fee55cc1" x="749.187964" y="34.28488" style="stroke: #000000"/>
     <use xlink:href="#me2fee55cc1" x="793.535641" y="67.108361" style="stroke: #000000"/>
     <use xlink:href="#me2fee55cc1" x="837.883317" y="35.236185" style="stroke: #000000"/>
     <use xlink:href="#me2fee55cc1" x="882.230994" y="47.584589" style="stroke: #000000"/>
    </g>
   </g>
   <g id="patch_8">
    <path d="M 478.9675 194.576875 
L 478.9675 22.318125 
" style="fill: none; stroke: #000000; stroke-width: 0.8; stroke-linejoin: miter; stroke-linecap: square"/>
   </g>
   <g id="patch_9">
    <path d="M 842.3625 194.576875 
L 842.3625 22.318125 
" style="fill: none; stroke: #000000; stroke-width: 0.8; stroke-linejoin: miter; stroke-linecap: square"/>
   </g>
   <g id="patch_10">
    <path d="M 478.9675 194.576875 
L 842.3625 194.576875 
" style="fill: none; stroke: #000000; stroke-width: 0.8; stroke-linejoin: miter; stroke-linecap: square"/>
   </g>
   <g id="patch_11">
    <path d="M 478.9675 22.318125 
L 842.3625 22.318125 
" style="fill: none; stroke: #000000; stroke-width: 0.8; stroke-linejoin: miter; stroke-linecap: square"/>
   </g>
   <g id="text_20">
    <!-- RME Neuron: Dimension 2 -->
    <g transform="translate(582.288125 16.318125) scale(0.12 -0.12)">
     <use xlink:href="#DejaVuSans-52"/>
     <use xlink:href="#DejaVuSans-4d" x="69.482422"/>
     <use xlink:href="#DejaVuSans-45" x="155.761719"/>
     <use xlink:href="#DejaVuSans-20" x="218.945312"/>
     <use xlink:href="#DejaVuSans-4e" x="250.732422"/>
     <use xlink:href="#DejaVuSans-65" x="325.537109"/>
     <use xlink:href="#DejaVuSans-75" x="387.060547"/>
     <use xlink:href="#DejaVuSans-72" x="450.439453"/>
     <use xlink:href="#DejaVuSans-6f" x="489.302734"/>
     <use xlink:href="#DejaVuSans-6e" x="550.484375"/>
     <use xlink:href="#DejaVuSans-3a" x="613.863281"/>
     <use xlink:href="#DejaVuSans-20" x="647.554688"/>
     <use xlink:href="#DejaVuSans-44" x="679.341797"/>
     <use xlink:href="#DejaVuSans-69" x="756.34375"/>
     <use xlink:href="#DejaVuSans-6d" x="784.126953"/>
     <use xlink:href="#DejaVuSans-65" x="881.539062"/>
     <use xlink:href="#DejaVuSans-6e" x="943.0625"/>
     <use xlink:href="#DejaVuSans-73" x="1006.441406"/>
     <use xlink:href="#DejaVuSans-69" x="1058.541016"/>
     <use xlink:href="#DejaVuSans-6f" x="1086.324219"/>
     <use xlink:href="#DejaVuSans-6e" x="1147.505859"/>
     <use xlink:href="#DejaVuSans-20" x="1210.884766"/>
     <use xlink:href="#DejaVuSans-32" x="1242.671875"/>
    </g>
   </g>
  </g>
 </g>
 <defs>
  <clipPath id="p8d2693d8bc">
   <rect x="52.3675" y="22.318125" width="363.395" height="172.25875"/>
  </clipPath>
  <clipPath id="p67fe69f318">
   <rect x="478.9675" y="22.318125" width="363.395" height="172.25875"/>
  </clipPath>
 </defs>
</svg>
