<?xml version="1.0" encoding="utf-8" standalone="no"?>
<!DOCTYPE svg PUBLIC "-//W3C//DTD SVG 1.1//EN"
  "http://www.w3.org/Graphics/SVG/1.1/DTD/svg11.dtd">
<svg xmlns:xlink="http://www.w3.org/1999/xlink" width="856.5075pt" height="244.025pt" viewBox="0 0 856.5075 244.025" xmlns="http://www.w3.org/2000/svg" version="1.1">
 <metadata>
  <rdf:RDF xmlns:dc="http://purl.org/dc/elements/1.1/" xmlns:cc="http://creativecommons.org/ns#" xmlns:rdf="http://www.w3.org/1999/02/22-rdf-syntax-ns#">
   <cc:Work>
    <dc:type rdf:resource="http://purl.org/dc/dcmitype/StillImage"/>
    <dc:date>2024-12-12T11:57:19.254267</dc:date>
    <dc:format>image/svg+xml</dc:format>
    <dc:creator>
     <cc:Agent>
      <dc:title>Matplotlib v3.9.0, https://matplotlib.org/</dc:title>
     </cc:Agent>
    </dc:creator>
   </cc:Work>
  </rdf:RDF>
 </metadata>
 <defs>
  <style type="text/css">*{stroke-linejoin: round; stroke-linecap: butt}</style>
 </defs>
 <g id="figure_1">
  <g id="patch_1">
   <path d="M -0 244.025 
L 856.5075 244.025 
L 856.5075 0 
L -0 0 
z
" style="fill: #ffffff"/>
  </g>
  <g id="axes_1">
   <g id="patch_2">
    <path d="M 67.6375 194.576875 
L 430.3575 194.576875 
L 430.3575 22.318125 
L 67.6375 22.318125 
z
" style="fill: #ffffff"/>
   </g>
   <g id="matplotlib.axis_1">
    <g id="xtick_1">
     <g id="line2d_1">
      <defs>
       <path id="m7f8502fedd" d="M 0 0 
L 0 3.5 
" style="stroke: #000000; stroke-width: 0.8"/>
      </defs>
      <g>
       <use xlink:href="#m7f8502fedd" x="103.9095" y="194.576875" style="stroke: #000000; stroke-width: 0.8"/>
      </g>
     </g>
     <g id="text_1">
      <!-- −2 -->
      <g transform="translate(87.693094 218.293437) scale(0.22 -0.22)">
       <defs>
        <path id="DejaVuSans-2212" d="M 678 2272 
L 4684 2272 
L 4684 1741 
L 678 1741 
L 678 2272 
z
" transform="scale(0.015625)"/>
        <path id="DejaVuSans-32" d="M 1228 531 
L 3431 531 
L 3431 0 
L 469 0 
L 469 531 
Q 828 903 1448 1529 
Q 2069 2156 2228 2338 
Q 2531 2678 2651 2914 
Q 2772 3150 2772 3378 
Q 2772 3750 2511 3984 
Q 2250 4219 1831 4219 
Q 1534 4219 1204 4116 
Q 875 4013 500 3803 
L 500 4441 
Q 881 4594 1212 4672 
Q 1544 4750 1819 4750 
Q 2544 4750 2975 4387 
Q 3406 4025 3406 3419 
Q 3406 3131 3298 2873 
Q 3191 2616 2906 2266 
Q 2828 2175 2409 1742 
Q 1991 1309 1228 531 
z
" transform="scale(0.015625)"/>
       </defs>
       <use xlink:href="#DejaVuSans-2212"/>
       <use xlink:href="#DejaVuSans-32" x="83.789062"/>
      </g>
     </g>
    </g>
    <g id="xtick_2">
     <g id="line2d_2">
      <g>
       <use xlink:href="#m7f8502fedd" x="176.4535" y="194.576875" style="stroke: #000000; stroke-width: 0.8"/>
      </g>
     </g>
     <g id="text_2">
      <!-- −1 -->
      <g transform="translate(160.237094 218.293437) scale(0.22 -0.22)">
       <defs>
        <path id="DejaVuSans-31" d="M 794 531 
L 1825 531 
L 1825 4091 
L 703 3866 
L 703 4441 
L 1819 4666 
L 2450 4666 
L 2450 531 
L 3481 531 
L 3481 0 
L 794 0 
L 794 531 
z
" transform="scale(0.015625)"/>
       </defs>
       <use xlink:href="#DejaVuSans-2212"/>
       <use xlink:href="#DejaVuSans-31" x="83.789062"/>
      </g>
     </g>
    </g>
    <g id="xtick_3">
     <g id="line2d_3">
      <g>
       <use xlink:href="#m7f8502fedd" x="248.9975" y="194.576875" style="stroke: #000000; stroke-width: 0.8"/>
      </g>
     </g>
     <g id="text_3">
      <!-- 0 -->
      <g transform="translate(241.99875 218.293437) scale(0.22 -0.22)">
       <defs>
        <path id="DejaVuSans-30" d="M 2034 4250 
Q 1547 4250 1301 3770 
Q 1056 3291 1056 2328 
Q 1056 1369 1301 889 
Q 1547 409 2034 409 
Q 2525 409 2770 889 
Q 3016 1369 3016 2328 
Q 3016 3291 2770 3770 
Q 2525 4250 2034 4250 
z
M 2034 4750 
Q 2819 4750 3233 4129 
Q 3647 3509 3647 2328 
Q 3647 1150 3233 529 
Q 2819 -91 2034 -91 
Q 1250 -91 836 529 
Q 422 1150 422 2328 
Q 422 3509 836 4129 
Q 1250 4750 2034 4750 
z
" transform="scale(0.015625)"/>
       </defs>
       <use xlink:href="#DejaVuSans-30"/>
      </g>
     </g>
    </g>
    <g id="xtick_4">
     <g id="line2d_4">
      <g>
       <use xlink:href="#m7f8502fedd" x="321.5415" y="194.576875" style="stroke: #000000; stroke-width: 0.8"/>
      </g>
     </g>
     <g id="text_4">
      <!-- 1 -->
      <g transform="translate(314.54275 218.293437) scale(0.22 -0.22)">
       <use xlink:href="#DejaVuSans-31"/>
      </g>
     </g>
    </g>
    <g id="xtick_5">
     <g id="line2d_5">
      <g>
       <use xlink:href="#m7f8502fedd" x="394.0855" y="194.576875" style="stroke: #000000; stroke-width: 0.8"/>
      </g>
     </g>
     <g id="text_5">
      <!-- 2 -->
      <g transform="translate(387.08675 218.293437) scale(0.22 -0.22)">
       <use xlink:href="#DejaVuSans-32"/>
      </g>
     </g>
    </g>
    <g id="text_6">
     <!-- Normalized X -->
     <g transform="translate(215.627969 234.467187) scale(0.1 -0.1)">
      <defs>
       <path id="DejaVuSans-4e" d="M 628 4666 
L 1478 4666 
L 3547 763 
L 3547 4666 
L 4159 4666 
L 4159 0 
L 3309 0 
L 1241 3903 
L 1241 0 
L 628 0 
L 628 4666 
z
" transform="scale(0.015625)"/>
       <path id="DejaVuSans-6f" d="M 1959 3097 
Q 1497 3097 1228 2736 
Q 959 2375 959 1747 
Q 959 1119 1226 758 
Q 1494 397 1959 397 
Q 2419 397 2687 759 
Q 2956 1122 2956 1747 
Q 2956 2369 2687 2733 
Q 2419 3097 1959 3097 
z
M 1959 3584 
Q 2709 3584 3137 3096 
Q 3566 2609 3566 1747 
Q 3566 888 3137 398 
Q 2709 -91 1959 -91 
Q 1206 -91 779 398 
Q 353 888 353 1747 
Q 353 2609 779 3096 
Q 1206 3584 1959 3584 
z
" transform="scale(0.015625)"/>
       <path id="DejaVuSans-72" d="M 2631 2963 
Q 2534 3019 2420 3045 
Q 2306 3072 2169 3072 
Q 1681 3072 1420 2755 
Q 1159 2438 1159 1844 
L 1159 0 
L 581 0 
L 581 3500 
L 1159 3500 
L 1159 2956 
Q 1341 3275 1631 3429 
Q 1922 3584 2338 3584 
Q 2397 3584 2469 3576 
Q 2541 3569 2628 3553 
L 2631 2963 
z
" transform="scale(0.015625)"/>
       <path id="DejaVuSans-6d" d="M 3328 2828 
Q 3544 3216 3844 3400 
Q 4144 3584 4550 3584 
Q 5097 3584 5394 3201 
Q 5691 2819 5691 2113 
L 5691 0 
L 5113 0 
L 5113 2094 
Q 5113 2597 4934 2840 
Q 4756 3084 4391 3084 
Q 3944 3084 3684 2787 
Q 3425 2491 3425 1978 
L 3425 0 
L 2847 0 
L 2847 2094 
Q 2847 2600 2669 2842 
Q 2491 3084 2119 3084 
Q 1678 3084 1418 2786 
Q 1159 2488 1159 1978 
L 1159 0 
L 581 0 
L 581 3500 
L 1159 3500 
L 1159 2956 
Q 1356 3278 1631 3431 
Q 1906 3584 2284 3584 
Q 2666 3584 2933 3390 
Q 3200 3197 3328 2828 
z
" transform="scale(0.015625)"/>
       <path id="DejaVuSans-61" d="M 2194 1759 
Q 1497 1759 1228 1600 
Q 959 1441 959 1056 
Q 959 750 1161 570 
Q 1363 391 1709 391 
Q 2188 391 2477 730 
Q 2766 1069 2766 1631 
L 2766 1759 
L 2194 1759 
z
M 3341 1997 
L 3341 0 
L 2766 0 
L 2766 531 
Q 2569 213 2275 61 
Q 1981 -91 1556 -91 
Q 1019 -91 701 211 
Q 384 513 384 1019 
Q 384 1609 779 1909 
Q 1175 2209 1959 2209 
L 2766 2209 
L 2766 2266 
Q 2766 2663 2505 2880 
Q 2244 3097 1772 3097 
Q 1472 3097 1187 3025 
Q 903 2953 641 2809 
L 641 3341 
Q 956 3463 1253 3523 
Q 1550 3584 1831 3584 
Q 2591 3584 2966 3190 
Q 3341 2797 3341 1997 
z
" transform="scale(0.015625)"/>
       <path id="DejaVuSans-6c" d="M 603 4863 
L 1178 4863 
L 1178 0 
L 603 0 
L 603 4863 
z
" transform="scale(0.015625)"/>
       <path id="DejaVuSans-69" d="M 603 3500 
L 1178 3500 
L 1178 0 
L 603 0 
L 603 3500 
z
M 603 4863 
L 1178 4863 
L 1178 4134 
L 603 4134 
L 603 4863 
z
" transform="scale(0.015625)"/>
       <path id="DejaVuSans-7a" d="M 353 3500 
L 3084 3500 
L 3084 2975 
L 922 459 
L 3084 459 
L 3084 0 
L 275 0 
L 275 525 
L 2438 3041 
L 353 3041 
L 353 3500 
z
" transform="scale(0.015625)"/>
       <path id="DejaVuSans-65" d="M 3597 1894 
L 3597 1613 
L 953 1613 
Q 991 1019 1311 708 
Q 1631 397 2203 397 
Q 2534 397 2845 478 
Q 3156 559 3463 722 
L 3463 178 
Q 3153 47 2828 -22 
Q 2503 -91 2169 -91 
Q 1331 -91 842 396 
Q 353 884 353 1716 
Q 353 2575 817 3079 
Q 1281 3584 2069 3584 
Q 2775 3584 3186 3129 
Q 3597 2675 3597 1894 
z
M 3022 2063 
Q 3016 2534 2758 2815 
Q 2500 3097 2075 3097 
Q 1594 3097 1305 2825 
Q 1016 2553 972 2059 
L 3022 2063 
z
" transform="scale(0.015625)"/>
       <path id="DejaVuSans-64" d="M 2906 2969 
L 2906 4863 
L 3481 4863 
L 3481 0 
L 2906 0 
L 2906 525 
Q 2725 213 2448 61 
Q 2172 -91 1784 -91 
Q 1150 -91 751 415 
Q 353 922 353 1747 
Q 353 2572 751 3078 
Q 1150 3584 1784 3584 
Q 2172 3584 2448 3432 
Q 2725 3281 2906 2969 
z
M 947 1747 
Q 947 1113 1208 752 
Q 1469 391 1925 391 
Q 2381 391 2643 752 
Q 2906 1113 2906 1747 
Q 2906 2381 2643 2742 
Q 2381 3103 1925 3103 
Q 1469 3103 1208 2742 
Q 947 2381 947 1747 
z
" transform="scale(0.015625)"/>
       <path id="DejaVuSans-20" transform="scale(0.015625)"/>
       <path id="DejaVuSans-58" d="M 403 4666 
L 1081 4666 
L 2241 2931 
L 3406 4666 
L 4084 4666 
L 2584 2425 
L 4184 0 
L 3506 0 
L 2194 1984 
L 872 0 
L 191 0 
L 1856 2491 
L 403 4666 
z
" transform="scale(0.015625)"/>
      </defs>
      <use xlink:href="#DejaVuSans-4e"/>
      <use xlink:href="#DejaVuSans-6f" x="74.804688"/>
      <use xlink:href="#DejaVuSans-72" x="135.986328"/>
      <use xlink:href="#DejaVuSans-6d" x="175.349609"/>
      <use xlink:href="#DejaVuSans-61" x="272.761719"/>
      <use xlink:href="#DejaVuSans-6c" x="334.041016"/>
      <use xlink:href="#DejaVuSans-69" x="361.824219"/>
      <use xlink:href="#DejaVuSans-7a" x="389.607422"/>
      <use xlink:href="#DejaVuSans-65" x="442.097656"/>
      <use xlink:href="#DejaVuSans-64" x="503.621094"/>
      <use xlink:href="#DejaVuSans-20" x="567.097656"/>
      <use xlink:href="#DejaVuSans-58" x="598.884766"/>
     </g>
    </g>
   </g>
   <g id="matplotlib.axis_2">
    <g id="ytick_1">
     <g id="line2d_6">
      <defs>
       <path id="m103be2bb61" d="M 0 0 
L -3.5 0 
" style="stroke: #000000; stroke-width: 0.8"/>
      </defs>
      <g>
       <use xlink:href="#m103be2bb61" x="67.6375" y="165.272006" style="stroke: #000000; stroke-width: 0.8"/>
      </g>
     </g>
     <g id="text_7">
      <!-- 0.15 -->
      <g transform="translate(7.2 174.390131) scale(0.24 -0.24)">
       <defs>
        <path id="DejaVuSans-2e" d="M 684 794 
L 1344 794 
L 1344 0 
L 684 0 
L 684 794 
z
" transform="scale(0.015625)"/>
        <path id="DejaVuSans-35" d="M 691 4666 
L 3169 4666 
L 3169 4134 
L 1269 4134 
L 1269 2991 
Q 1406 3038 1543 3061 
Q 1681 3084 1819 3084 
Q 2600 3084 3056 2656 
Q 3513 2228 3513 1497 
Q 3513 744 3044 326 
Q 2575 -91 1722 -91 
Q 1428 -91 1123 -41 
Q 819 9 494 109 
L 494 744 
Q 775 591 1075 516 
Q 1375 441 1709 441 
Q 2250 441 2565 725 
Q 2881 1009 2881 1497 
Q 2881 1984 2565 2268 
Q 2250 2553 1709 2553 
Q 1456 2553 1204 2497 
Q 953 2441 691 2322 
L 691 4666 
z
" transform="scale(0.015625)"/>
       </defs>
       <use xlink:href="#DejaVuSans-30"/>
       <use xlink:href="#DejaVuSans-2e" x="63.623047"/>
       <use xlink:href="#DejaVuSans-31" x="95.410156"/>
       <use xlink:href="#DejaVuSans-35" x="159.033203"/>
      </g>
     </g>
    </g>
    <g id="ytick_2">
     <g id="line2d_7">
      <g>
       <use xlink:href="#m103be2bb61" x="67.6375" y="106.393649" style="stroke: #000000; stroke-width: 0.8"/>
      </g>
     </g>
     <g id="text_8">
      <!-- 0.20 -->
      <g transform="translate(7.2 115.511774) scale(0.24 -0.24)">
       <use xlink:href="#DejaVuSans-30"/>
       <use xlink:href="#DejaVuSans-2e" x="63.623047"/>
       <use xlink:href="#DejaVuSans-32" x="95.410156"/>
       <use xlink:href="#DejaVuSans-30" x="159.033203"/>
      </g>
     </g>
    </g>
    <g id="ytick_3">
     <g id="line2d_8">
      <g>
       <use xlink:href="#m103be2bb61" x="67.6375" y="47.515292" style="stroke: #000000; stroke-width: 0.8"/>
      </g>
     </g>
     <g id="text_9">
      <!-- 0.25 -->
      <g transform="translate(7.2 56.633417) scale(0.24 -0.24)">
       <use xlink:href="#DejaVuSans-30"/>
       <use xlink:href="#DejaVuSans-2e" x="63.623047"/>
       <use xlink:href="#DejaVuSans-32" x="95.410156"/>
       <use xlink:href="#DejaVuSans-35" x="159.033203"/>
      </g>
     </g>
    </g>
   </g>
   <g id="LineCollection_1">
    <path d="M 97.27165 186.746932 
L 97.27165 134.596757 
" clip-path="url(#p52d0d5d947)" style="fill: none; stroke: #000000; stroke-width: 1.5"/>
    <path d="M 134.317526 161.192894 
L 134.317526 128.808831 
" clip-path="url(#p52d0d5d947)" style="fill: none; stroke: #000000; stroke-width: 1.5"/>
    <path d="M 171.363401 148.876355 
L 171.363401 72.344356 
" clip-path="url(#p52d0d5d947)" style="fill: none; stroke: #000000; stroke-width: 1.5"/>
    <path d="M 208.409277 123.93161 
L 208.409277 89.561718 
" clip-path="url(#p52d0d5d947)" style="fill: none; stroke: #000000; stroke-width: 1.5"/>
    <path d="M 245.455152 60.933919 
L 245.455152 30.148068 
" clip-path="url(#p52d0d5d947)" style="fill: none; stroke: #000000; stroke-width: 1.5"/>
    <path d="M 282.501028 85.352491 
L 282.501028 42.104029 
" clip-path="url(#p52d0d5d947)" style="fill: none; stroke: #000000; stroke-width: 1.5"/>
    <path d="M 319.546903 88.550402 
L 319.546903 38.352335 
" clip-path="url(#p52d0d5d947)" style="fill: none; stroke: #000000; stroke-width: 1.5"/>
    <path d="M 356.592779 126.950417 
L 356.592779 83.516283 
" clip-path="url(#p52d0d5d947)" style="fill: none; stroke: #000000; stroke-width: 1.5"/>
    <path d="M 393.638655 143.323716 
L 393.638655 81.259954 
" clip-path="url(#p52d0d5d947)" style="fill: none; stroke: #000000; stroke-width: 1.5"/>
   </g>
   <g id="line2d_9">
    <defs>
     <path id="maeaad02fd8" d="M 5 0 
L -5 -0 
" style="stroke: #000000"/>
    </defs>
    <g clip-path="url(#p52d0d5d947)">
     <use xlink:href="#maeaad02fd8" x="97.27165" y="186.746932" style="stroke: #000000"/>
     <use xlink:href="#maeaad02fd8" x="134.317526" y="161.192894" style="stroke: #000000"/>
     <use xlink:href="#maeaad02fd8" x="171.363401" y="148.876355" style="stroke: #000000"/>
     <use xlink:href="#maeaad02fd8" x="208.409277" y="123.93161" style="stroke: #000000"/>
     <use xlink:href="#maeaad02fd8" x="245.455152" y="60.933919" style="stroke: #000000"/>
     <use xlink:href="#maeaad02fd8" x="282.501028" y="85.352491" style="stroke: #000000"/>
     <use xlink:href="#maeaad02fd8" x="319.546903" y="88.550402" style="stroke: #000000"/>
     <use xlink:href="#maeaad02fd8" x="356.592779" y="126.950417" style="stroke: #000000"/>
     <use xlink:href="#maeaad02fd8" x="393.638655" y="143.323716" style="stroke: #000000"/>
    </g>
   </g>
   <g id="line2d_10">
    <g clip-path="url(#p52d0d5d947)">
     <use xlink:href="#maeaad02fd8" x="97.27165" y="134.596757" style="stroke: #000000"/>
     <use xlink:href="#maeaad02fd8" x="134.317526" y="128.808831" style="stroke: #000000"/>
     <use xlink:href="#maeaad02fd8" x="171.363401" y="72.344356" style="stroke: #000000"/>
     <use xlink:href="#maeaad02fd8" x="208.409277" y="89.561718" style="stroke: #000000"/>
     <use xlink:href="#maeaad02fd8" x="245.455152" y="30.148068" style="stroke: #000000"/>
     <use xlink:href="#maeaad02fd8" x="282.501028" y="42.104029" style="stroke: #000000"/>
     <use xlink:href="#maeaad02fd8" x="319.546903" y="38.352335" style="stroke: #000000"/>
     <use xlink:href="#maeaad02fd8" x="356.592779" y="83.516283" style="stroke: #000000"/>
     <use xlink:href="#maeaad02fd8" x="393.638655" y="81.259954" style="stroke: #000000"/>
    </g>
   </g>
   <g id="line2d_11">
    <path d="M 97.27165 165.338547 
L 134.317526 138.823494 
L 171.363401 112.27433 
L 208.409277 88.727847 
L 245.455152 71.220838 
L 282.501028 62.790095 
L 319.546903 66.472412 
L 356.592779 85.30458 
L 393.638655 122.323392 
" clip-path="url(#p52d0d5d947)" style="fill: none; stroke-dasharray: 18.5,8; stroke-dashoffset: 0; stroke: #a9a9a9; stroke-width: 5"/>
   </g>
   <g id="line2d_12">
    <path d="M 97.27165 160.671844 
L 134.317526 145.000862 
L 171.363401 110.610356 
L 208.409277 106.746664 
L 245.455152 45.540994 
L 282.501028 63.72826 
L 319.546903 63.451368 
L 356.592779 105.23335 
L 393.638655 112.291835 
" clip-path="url(#p52d0d5d947)" style="fill: none; stroke: #000000; stroke-width: 1.5; stroke-linecap: square"/>
    <defs>
     <path id="mb0c6ca903c" d="M 0 3 
C 0.795609 3 1.55874 2.683901 2.12132 2.12132 
C 2.683901 1.55874 3 0.795609 3 0 
C 3 -0.795609 2.683901 -1.55874 2.12132 -2.12132 
C 1.55874 -2.683901 0.795609 -3 0 -3 
C -0.795609 -3 -1.55874 -2.683901 -2.12132 -2.12132 
C -2.683901 -1.55874 -3 -0.795609 -3 0 
C -3 0.795609 -2.683901 1.55874 -2.12132 2.12132 
C -1.55874 2.683901 -0.795609 3 0 3 
z
" style="stroke: #000000"/>
    </defs>
    <g clip-path="url(#p52d0d5d947)">
     <use xlink:href="#mb0c6ca903c" x="97.27165" y="160.671844" style="stroke: #000000"/>
     <use xlink:href="#mb0c6ca903c" x="134.317526" y="145.000862" style="stroke: #000000"/>
     <use xlink:href="#mb0c6ca903c" x="171.363401" y="110.610356" style="stroke: #000000"/>
     <use xlink:href="#mb0c6ca903c" x="208.409277" y="106.746664" style="stroke: #000000"/>
     <use xlink:href="#mb0c6ca903c" x="245.455152" y="45.540994" style="stroke: #000000"/>
     <use xlink:href="#mb0c6ca903c" x="282.501028" y="63.72826" style="stroke: #000000"/>
     <use xlink:href="#mb0c6ca903c" x="319.546903" y="63.451368" style="stroke: #000000"/>
     <use xlink:href="#mb0c6ca903c" x="356.592779" y="105.23335" style="stroke: #000000"/>
     <use xlink:href="#mb0c6ca903c" x="393.638655" y="112.291835" style="stroke: #000000"/>
    </g>
   </g>
   <g id="patch_3">
    <path d="M 67.6375 194.576875 
L 67.6375 22.318125 
" style="fill: none; stroke: #000000; stroke-width: 0.8; stroke-linejoin: miter; stroke-linecap: square"/>
   </g>
   <g id="patch_4">
    <path d="M 430.3575 194.576875 
L 430.3575 22.318125 
" style="fill: none; stroke: #000000; stroke-width: 0.8; stroke-linejoin: miter; stroke-linecap: square"/>
   </g>
   <g id="patch_5">
    <path d="M 67.6375 194.576875 
L 430.3575 194.576875 
" style="fill: none; stroke: #000000; stroke-width: 0.8; stroke-linejoin: miter; stroke-linecap: square"/>
   </g>
   <g id="patch_6">
    <path d="M 67.6375 22.318125 
L 430.3575 22.318125 
" style="fill: none; stroke: #000000; stroke-width: 0.8; stroke-linejoin: miter; stroke-linecap: square"/>
   </g>
   <g id="text_10">
    <!-- SMDD Neuron: Dimension 1 -->
    <g transform="translate(165.531875 16.318125) scale(0.12 -0.12)">
     <defs>
      <path id="DejaVuSans-53" d="M 3425 4513 
L 3425 3897 
Q 3066 4069 2747 4153 
Q 2428 4238 2131 4238 
Q 1616 4238 1336 4038 
Q 1056 3838 1056 3469 
Q 1056 3159 1242 3001 
Q 1428 2844 1947 2747 
L 2328 2669 
Q 3034 2534 3370 2195 
Q 3706 1856 3706 1288 
Q 3706 609 3251 259 
Q 2797 -91 1919 -91 
Q 1588 -91 1214 -16 
Q 841 59 441 206 
L 441 856 
Q 825 641 1194 531 
Q 1563 422 1919 422 
Q 2459 422 2753 634 
Q 3047 847 3047 1241 
Q 3047 1584 2836 1778 
Q 2625 1972 2144 2069 
L 1759 2144 
Q 1053 2284 737 2584 
Q 422 2884 422 3419 
Q 422 4038 858 4394 
Q 1294 4750 2059 4750 
Q 2388 4750 2728 4690 
Q 3069 4631 3425 4513 
z
" transform="scale(0.015625)"/>
      <path id="DejaVuSans-4d" d="M 628 4666 
L 1569 4666 
L 2759 1491 
L 3956 4666 
L 4897 4666 
L 4897 0 
L 4281 0 
L 4281 4097 
L 3078 897 
L 2444 897 
L 1241 4097 
L 1241 0 
L 628 0 
L 628 4666 
z
" transform="scale(0.015625)"/>
      <path id="DejaVuSans-44" d="M 1259 4147 
L 1259 519 
L 2022 519 
Q 2988 519 3436 956 
Q 3884 1394 3884 2338 
Q 3884 3275 3436 3711 
Q 2988 4147 2022 4147 
L 1259 4147 
z
M 628 4666 
L 1925 4666 
Q 3281 4666 3915 4102 
Q 4550 3538 4550 2338 
Q 4550 1131 3912 565 
Q 3275 0 1925 0 
L 628 0 
L 628 4666 
z
" transform="scale(0.015625)"/>
      <path id="DejaVuSans-75" d="M 544 1381 
L 544 3500 
L 1119 3500 
L 1119 1403 
Q 1119 906 1312 657 
Q 1506 409 1894 409 
Q 2359 409 2629 706 
Q 2900 1003 2900 1516 
L 2900 3500 
L 3475 3500 
L 3475 0 
L 2900 0 
L 2900 538 
Q 2691 219 2414 64 
Q 2138 -91 1772 -91 
Q 1169 -91 856 284 
Q 544 659 544 1381 
z
M 1991 3584 
L 1991 3584 
z
" transform="scale(0.015625)"/>
      <path id="DejaVuSans-6e" d="M 3513 2113 
L 3513 0 
L 2938 0 
L 2938 2094 
Q 2938 2591 2744 2837 
Q 2550 3084 2163 3084 
Q 1697 3084 1428 2787 
Q 1159 2491 1159 1978 
L 1159 0 
L 581 0 
L 581 3500 
L 1159 3500 
L 1159 2956 
Q 1366 3272 1645 3428 
Q 1925 3584 2291 3584 
Q 2894 3584 3203 3211 
Q 3513 2838 3513 2113 
z
" transform="scale(0.015625)"/>
      <path id="DejaVuSans-3a" d="M 750 794 
L 1409 794 
L 1409 0 
L 750 0 
L 750 794 
z
M 750 3309 
L 1409 3309 
L 1409 2516 
L 750 2516 
L 750 3309 
z
" transform="scale(0.015625)"/>
      <path id="DejaVuSans-73" d="M 2834 3397 
L 2834 2853 
Q 2591 2978 2328 3040 
Q 2066 3103 1784 3103 
Q 1356 3103 1142 2972 
Q 928 2841 928 2578 
Q 928 2378 1081 2264 
Q 1234 2150 1697 2047 
L 1894 2003 
Q 2506 1872 2764 1633 
Q 3022 1394 3022 966 
Q 3022 478 2636 193 
Q 2250 -91 1575 -91 
Q 1294 -91 989 -36 
Q 684 19 347 128 
L 347 722 
Q 666 556 975 473 
Q 1284 391 1588 391 
Q 1994 391 2212 530 
Q 2431 669 2431 922 
Q 2431 1156 2273 1281 
Q 2116 1406 1581 1522 
L 1381 1569 
Q 847 1681 609 1914 
Q 372 2147 372 2553 
Q 372 3047 722 3315 
Q 1072 3584 1716 3584 
Q 2034 3584 2315 3537 
Q 2597 3491 2834 3397 
z
" transform="scale(0.015625)"/>
     </defs>
     <use xlink:href="#DejaVuSans-53"/>
     <use xlink:href="#DejaVuSans-4d" x="63.476562"/>
     <use xlink:href="#DejaVuSans-44" x="149.755859"/>
     <use xlink:href="#DejaVuSans-44" x="226.757812"/>
     <use xlink:href="#DejaVuSans-20" x="303.759766"/>
     <use xlink:href="#DejaVuSans-4e" x="335.546875"/>
     <use xlink:href="#DejaVuSans-65" x="410.351562"/>
     <use xlink:href="#DejaVuSans-75" x="471.875"/>
     <use xlink:href="#DejaVuSans-72" x="535.253906"/>
     <use xlink:href="#DejaVuSans-6f" x="574.117188"/>
     <use xlink:href="#DejaVuSans-6e" x="635.298828"/>
     <use xlink:href="#DejaVuSans-3a" x="698.677734"/>
     <use xlink:href="#DejaVuSans-20" x="732.369141"/>
     <use xlink:href="#DejaVuSans-44" x="764.15625"/>
     <use xlink:href="#DejaVuSans-69" x="841.158203"/>
     <use xlink:href="#DejaVuSans-6d" x="868.941406"/>
     <use xlink:href="#DejaVuSans-65" x="966.353516"/>
     <use xlink:href="#DejaVuSans-6e" x="1027.876953"/>
     <use xlink:href="#DejaVuSans-73" x="1091.255859"/>
     <use xlink:href="#DejaVuSans-69" x="1143.355469"/>
     <use xlink:href="#DejaVuSans-6f" x="1171.138672"/>
     <use xlink:href="#DejaVuSans-6e" x="1232.320312"/>
     <use xlink:href="#DejaVuSans-20" x="1295.699219"/>
     <use xlink:href="#DejaVuSans-31" x="1327.486328"/>
    </g>
   </g>
  </g>
  <g id="axes_2">
   <g id="patch_7">
    <path d="M 486.5875 194.576875 
L 849.3075 194.576875 
L 849.3075 22.318125 
L 486.5875 22.318125 
z
" style="fill: #ffffff"/>
   </g>
   <g id="matplotlib.axis_3">
    <g id="xtick_6">
     <g id="line2d_13">
      <g>
       <use xlink:href="#m7f8502fedd" x="486.5875" y="194.576875" style="stroke: #000000; stroke-width: 0.8"/>
      </g>
     </g>
     <g id="text_11">
      <!-- −2 -->
      <g transform="translate(470.371094 218.293437) scale(0.22 -0.22)">
       <use xlink:href="#DejaVuSans-2212"/>
       <use xlink:href="#DejaVuSans-32" x="83.789062"/>
      </g>
     </g>
    </g>
    <g id="xtick_7">
     <g id="line2d_14">
      <g>
       <use xlink:href="#m7f8502fedd" x="563.618149" y="194.576875" style="stroke: #000000; stroke-width: 0.8"/>
      </g>
     </g>
     <g id="text_12">
      <!-- −1 -->
      <g transform="translate(547.401742 218.293437) scale(0.22 -0.22)">
       <use xlink:href="#DejaVuSans-2212"/>
       <use xlink:href="#DejaVuSans-31" x="83.789062"/>
      </g>
     </g>
    </g>
    <g id="xtick_8">
     <g id="line2d_15">
      <g>
       <use xlink:href="#m7f8502fedd" x="640.648797" y="194.576875" style="stroke: #000000; stroke-width: 0.8"/>
      </g>
     </g>
     <g id="text_13">
      <!-- 0 -->
      <g transform="translate(633.650047 218.293437) scale(0.22 -0.22)">
       <use xlink:href="#DejaVuSans-30"/>
      </g>
     </g>
    </g>
    <g id="xtick_9">
     <g id="line2d_16">
      <g>
       <use xlink:href="#m7f8502fedd" x="717.679446" y="194.576875" style="stroke: #000000; stroke-width: 0.8"/>
      </g>
     </g>
     <g id="text_14">
      <!-- 1 -->
      <g transform="translate(710.680696 218.293437) scale(0.22 -0.22)">
       <use xlink:href="#DejaVuSans-31"/>
      </g>
     </g>
    </g>
    <g id="xtick_10">
     <g id="line2d_17">
      <g>
       <use xlink:href="#m7f8502fedd" x="794.710095" y="194.576875" style="stroke: #000000; stroke-width: 0.8"/>
      </g>
     </g>
     <g id="text_15">
      <!-- 2 -->
      <g transform="translate(787.711345 218.293437) scale(0.22 -0.22)">
       <use xlink:href="#DejaVuSans-32"/>
      </g>
     </g>
    </g>
    <g id="text_16">
     <!-- Normalized X_1 -->
     <g transform="translate(628.896719 234.467187) scale(0.1 -0.1)">
      <defs>
       <path id="DejaVuSans-5f" d="M 3263 -1063 
L 3263 -1509 
L -63 -1509 
L -63 -1063 
L 3263 -1063 
z
" transform="scale(0.015625)"/>
      </defs>
      <use xlink:href="#DejaVuSans-4e"/>
      <use xlink:href="#DejaVuSans-6f" x="74.804688"/>
      <use xlink:href="#DejaVuSans-72" x="135.986328"/>
      <use xlink:href="#DejaVuSans-6d" x="175.349609"/>
      <use xlink:href="#DejaVuSans-61" x="272.761719"/>
      <use xlink:href="#DejaVuSans-6c" x="334.041016"/>
      <use xlink:href="#DejaVuSans-69" x="361.824219"/>
      <use xlink:href="#DejaVuSans-7a" x="389.607422"/>
      <use xlink:href="#DejaVuSans-65" x="442.097656"/>
      <use xlink:href="#DejaVuSans-64" x="503.621094"/>
      <use xlink:href="#DejaVuSans-20" x="567.097656"/>
      <use xlink:href="#DejaVuSans-58" x="598.884766"/>
      <use xlink:href="#DejaVuSans-5f" x="667.390625"/>
      <use xlink:href="#DejaVuSans-31" x="717.390625"/>
     </g>
    </g>
   </g>
   <g id="matplotlib.axis_4">
    <g id="ytick_4">
     <g id="line2d_18">
      <g>
       <use xlink:href="#m103be2bb61" x="486.5875" y="170.209942" style="stroke: #000000; stroke-width: 0.8"/>
      </g>
     </g>
     <g id="text_17">
      <!-- 0.1 -->
      <g transform="translate(441.42 179.328067) scale(0.24 -0.24)">
       <use xlink:href="#DejaVuSans-30"/>
       <use xlink:href="#DejaVuSans-2e" x="63.623047"/>
       <use xlink:href="#DejaVuSans-31" x="95.410156"/>
      </g>
     </g>
    </g>
    <g id="ytick_5">
     <g id="line2d_19">
      <g>
       <use xlink:href="#m103be2bb61" x="486.5875" y="88.28995" style="stroke: #000000; stroke-width: 0.8"/>
      </g>
     </g>
     <g id="text_18">
      <!-- 0.2 -->
      <g transform="translate(441.42 97.408075) scale(0.24 -0.24)">
       <use xlink:href="#DejaVuSans-30"/>
       <use xlink:href="#DejaVuSans-2e" x="63.623047"/>
       <use xlink:href="#DejaVuSans-32" x="95.410156"/>
      </g>
     </g>
    </g>
   </g>
   <g id="LineCollection_2">
    <path d="M 518.876179 59.536269 
L 518.876179 30.148068 
" clip-path="url(#p832447daea)" style="fill: none; stroke: #000000; stroke-width: 1.5"/>
    <path d="M 558.213241 72.648646 
L 558.213241 42.723816 
" clip-path="url(#p832447daea)" style="fill: none; stroke: #000000; stroke-width: 1.5"/>
    <path d="M 597.550303 81.005394 
L 597.550303 48.915488 
" clip-path="url(#p832447daea)" style="fill: none; stroke: #000000; stroke-width: 1.5"/>
    <path d="M 636.887365 94.125644 
L 636.887365 71.069022 
" clip-path="url(#p832447daea)" style="fill: none; stroke: #000000; stroke-width: 1.5"/>
    <path d="M 676.224427 84.969687 
L 676.224427 61.242083 
" clip-path="url(#p832447daea)" style="fill: none; stroke: #000000; stroke-width: 1.5"/>
    <path d="M 715.561489 104.57414 
L 715.561489 78.994357 
" clip-path="url(#p832447daea)" style="fill: none; stroke: #000000; stroke-width: 1.5"/>
    <path d="M 754.898551 123.867318 
L 754.898551 89.67096 
" clip-path="url(#p832447daea)" style="fill: none; stroke: #000000; stroke-width: 1.5"/>
    <path d="M 794.235613 130.395925 
L 794.235613 84.79359 
" clip-path="url(#p832447daea)" style="fill: none; stroke: #000000; stroke-width: 1.5"/>
    <path d="M 833.572675 186.746932 
L 833.572675 99.765205 
" clip-path="url(#p832447daea)" style="fill: none; stroke: #000000; stroke-width: 1.5"/>
   </g>
   <g id="line2d_20">
    <g clip-path="url(#p832447daea)">
     <use xlink:href="#maeaad02fd8" x="518.876179" y="59.536269" style="stroke: #000000"/>
     <use xlink:href="#maeaad02fd8" x="558.213241" y="72.648646" style="stroke: #000000"/>
     <use xlink:href="#maeaad02fd8" x="597.550303" y="81.005394" style="stroke: #000000"/>
     <use xlink:href="#maeaad02fd8" x="636.887365" y="94.125644" style="stroke: #000000"/>
     <use xlink:href="#maeaad02fd8" x="676.224427" y="84.969687" style="stroke: #000000"/>
     <use xlink:href="#maeaad02fd8" x="715.561489" y="104.57414" style="stroke: #000000"/>
     <use xlink:href="#maeaad02fd8" x="754.898551" y="123.867318" style="stroke: #000000"/>
     <use xlink:href="#maeaad02fd8" x="794.235613" y="130.395925" style="stroke: #000000"/>
     <use xlink:href="#maeaad02fd8" x="833.572675" y="186.746932" style="stroke: #000000"/>
    </g>
   </g>
   <g id="line2d_21">
    <g clip-path="url(#p832447daea)">
     <use xlink:href="#maeaad02fd8" x="518.876179" y="30.148068" style="stroke: #000000"/>
     <use xlink:href="#maeaad02fd8" x="558.213241" y="42.723816" style="stroke: #000000"/>
     <use xlink:href="#maeaad02fd8" x="597.550303" y="48.915488" style="stroke: #000000"/>
     <use xlink:href="#maeaad02fd8" x="636.887365" y="71.069022" style="stroke: #000000"/>
     <use xlink:href="#maeaad02fd8" x="676.224427" y="61.242083" style="stroke: #000000"/>
     <use xlink:href="#maeaad02fd8" x="715.561489" y="78.994357" style="stroke: #000000"/>
     <use xlink:href="#maeaad02fd8" x="754.898551" y="89.67096" style="stroke: #000000"/>
     <use xlink:href="#maeaad02fd8" x="794.235613" y="84.79359" style="stroke: #000000"/>
     <use xlink:href="#maeaad02fd8" x="833.572675" y="99.765205" style="stroke: #000000"/>
    </g>
   </g>
   <g id="line2d_22">
    <path d="M 518.876179 44.039148 
L 558.213241 58.452804 
L 597.550303 68.121004 
L 636.887365 75.07526 
L 676.224427 81.347087 
L 715.561489 88.967996 
L 754.898551 99.969502 
L 794.235613 116.383117 
L 833.572675 140.240354 
" clip-path="url(#p832447daea)" style="fill: none; stroke-dasharray: 18.5,8; stroke-dashoffset: 0; stroke: #a9a9a9; stroke-width: 5"/>
   </g>
   <g id="line2d_23">
    <path d="M 518.876179 44.842169 
L 558.213241 57.686231 
L 597.550303 64.960441 
L 636.887365 82.597333 
L 676.224427 73.105885 
L 715.561489 91.784248 
L 754.898551 106.769139 
L 794.235613 107.594758 
L 833.572675 143.256069 
" clip-path="url(#p832447daea)" style="fill: none; stroke: #000000; stroke-width: 1.5; stroke-linecap: square"/>
    <g clip-path="url(#p832447daea)">
     <use xlink:href="#mb0c6ca903c" x="518.876179" y="44.842169" style="stroke: #000000"/>
     <use xlink:href="#mb0c6ca903c" x="558.213241" y="57.686231" style="stroke: #000000"/>
     <use xlink:href="#mb0c6ca903c" x="597.550303" y="64.960441" style="stroke: #000000"/>
     <use xlink:href="#mb0c6ca903c" x="636.887365" y="82.597333" style="stroke: #000000"/>
     <use xlink:href="#mb0c6ca903c" x="676.224427" y="73.105885" style="stroke: #000000"/>
     <use xlink:href="#mb0c6ca903c" x="715.561489" y="91.784248" style="stroke: #000000"/>
     <use xlink:href="#mb0c6ca903c" x="754.898551" y="106.769139" style="stroke: #000000"/>
     <use xlink:href="#mb0c6ca903c" x="794.235613" y="107.594758" style="stroke: #000000"/>
     <use xlink:href="#mb0c6ca903c" x="833.572675" y="143.256069" style="stroke: #000000"/>
    </g>
   </g>
   <g id="patch_8">
    <path d="M 486.5875 194.576875 
L 486.5875 22.318125 
" style="fill: none; stroke: #000000; stroke-width: 0.8; stroke-linejoin: miter; stroke-linecap: square"/>
   </g>
   <g id="patch_9">
    <path d="M 849.3075 194.576875 
L 849.3075 22.318125 
" style="fill: none; stroke: #000000; stroke-width: 0.8; stroke-linejoin: miter; stroke-linecap: square"/>
   </g>
   <g id="patch_10">
    <path d="M 486.5875 194.576875 
L 849.3075 194.576875 
" style="fill: none; stroke: #000000; stroke-width: 0.8; stroke-linejoin: miter; stroke-linecap: square"/>
   </g>
   <g id="patch_11">
    <path d="M 486.5875 22.318125 
L 849.3075 22.318125 
" style="fill: none; stroke: #000000; stroke-width: 0.8; stroke-linejoin: miter; stroke-linecap: square"/>
   </g>
   <g id="text_19">
    <!-- SMDD Neuron: Dimension 2 -->
    <g transform="translate(584.481875 16.318125) scale(0.12 -0.12)">
     <use xlink:href="#DejaVuSans-53"/>
     <use xlink:href="#DejaVuSans-4d" x="63.476562"/>
     <use xlink:href="#DejaVuSans-44" x="149.755859"/>
     <use xlink:href="#DejaVuSans-44" x="226.757812"/>
     <use xlink:href="#DejaVuSans-20" x="303.759766"/>
     <use xlink:href="#DejaVuSans-4e" x="335.546875"/>
     <use xlink:href="#DejaVuSans-65" x="410.351562"/>
     <use xlink:href="#DejaVuSans-75" x="471.875"/>
     <use xlink:href="#DejaVuSans-72" x="535.253906"/>
     <use xlink:href="#DejaVuSans-6f" x="574.117188"/>
     <use xlink:href="#DejaVuSans-6e" x="635.298828"/>
     <use xlink:href="#DejaVuSans-3a" x="698.677734"/>
     <use xlink:href="#DejaVuSans-20" x="732.369141"/>
     <use xlink:href="#DejaVuSans-44" x="764.15625"/>
     <use xlink:href="#DejaVuSans-69" x="841.158203"/>
     <use xlink:href="#DejaVuSans-6d" x="868.941406"/>
     <use xlink:href="#DejaVuSans-65" x="966.353516"/>
     <use xlink:href="#DejaVuSans-6e" x="1027.876953"/>
     <use xlink:href="#DejaVuSans-73" x="1091.255859"/>
     <use xlink:href="#DejaVuSans-69" x="1143.355469"/>
     <use xlink:href="#DejaVuSans-6f" x="1171.138672"/>
     <use xlink:href="#DejaVuSans-6e" x="1232.320312"/>
     <use xlink:href="#DejaVuSans-20" x="1295.699219"/>
     <use xlink:href="#DejaVuSans-32" x="1327.486328"/>
    </g>
   </g>
  </g>
 </g>
 <defs>
  <clipPath id="p52d0d5d947">
   <rect x="67.6375" y="22.318125" width="362.72" height="172.25875"/>
  </clipPath>
  <clipPath id="p832447daea">
   <rect x="486.5875" y="22.318125" width="362.72" height="172.25875"/>
  </clipPath>
 </defs>
</svg>
