<?xml version="1.0" encoding="utf-8" standalone="no"?>
<!DOCTYPE svg PUBLIC "-//W3C//DTD SVG 1.1//EN"
  "http://www.w3.org/Graphics/SVG/1.1/DTD/svg11.dtd">
<svg xmlns:xlink="http://www.w3.org/1999/xlink" width="856.51625pt" height="244.025pt" viewBox="0 0 856.51625 244.025" xmlns="http://www.w3.org/2000/svg" version="1.1">
 <metadata>
  <rdf:RDF xmlns:dc="http://purl.org/dc/elements/1.1/" xmlns:cc="http://creativecommons.org/ns#" xmlns:rdf="http://www.w3.org/1999/02/22-rdf-syntax-ns#">
   <cc:Work>
    <dc:type rdf:resource="http://purl.org/dc/dcmitype/StillImage"/>
    <dc:date>2024-12-12T10:18:34.871297</dc:date>
    <dc:format>image/svg+xml</dc:format>
    <dc:creator>
     <cc:Agent>
      <dc:title>Matplotlib v3.9.0, https://matplotlib.org/</dc:title>
     </cc:Agent>
    </dc:creator>
   </cc:Work>
  </rdf:RDF>
 </metadata>
 <defs>
  <style type="text/css">*{stroke-linejoin: round; stroke-linecap: butt}</style>
 </defs>
 <g id="figure_1">
  <g id="patch_1">
   <path d="M 0 244.025 
L 856.51625 244.025 
L 856.51625 0 
L 0 0 
z
" style="fill: #ffffff"/>
  </g>
  <g id="axes_1">
   <g id="patch_2">
    <path d="M 52.3675 194.576875 
L 419.2275 194.576875 
L 419.2275 22.318125 
L 52.3675 22.318125 
z
" style="fill: #ffffff"/>
   </g>
   <g id="matplotlib.axis_1">
    <g id="xtick_1">
     <g id="line2d_1">
      <defs>
       <path id="me2e0785db2" d="M 0 0 
L 0 3.5 
" style="stroke: #000000; stroke-width: 0.8"/>
      </defs>
      <g>
       <use xlink:href="#me2e0785db2" x="80.192356" y="194.576875" style="stroke: #000000; stroke-width: 0.8"/>
      </g>
     </g>
     <g id="text_1">
      <!-- −2 -->
      <g transform="translate(63.97595 218.293437) scale(0.22 -0.22)">
       <defs>
        <path id="DejaVuSans-2212" d="M 678 2272 
L 4684 2272 
L 4684 1741 
L 678 1741 
L 678 2272 
z
" transform="scale(0.015625)"/>
        <path id="DejaVuSans-32" d="M 1228 531 
L 3431 531 
L 3431 0 
L 469 0 
L 469 531 
Q 828 903 1448 1529 
Q 2069 2156 2228 2338 
Q 2531 2678 2651 2914 
Q 2772 3150 2772 3378 
Q 2772 3750 2511 3984 
Q 2250 4219 1831 4219 
Q 1534 4219 1204 4116 
Q 875 4013 500 3803 
L 500 4441 
Q 881 4594 1212 4672 
Q 1544 4750 1819 4750 
Q 2544 4750 2975 4387 
Q 3406 4025 3406 3419 
Q 3406 3131 3298 2873 
Q 3191 2616 2906 2266 
Q 2828 2175 2409 1742 
Q 1991 1309 1228 531 
z
" transform="scale(0.015625)"/>
       </defs>
       <use xlink:href="#DejaVuSans-2212"/>
       <use xlink:href="#DejaVuSans-32" x="83.789062"/>
      </g>
     </g>
    </g>
    <g id="xtick_2">
     <g id="line2d_2">
      <g>
       <use xlink:href="#me2e0785db2" x="153.953744" y="194.576875" style="stroke: #000000; stroke-width: 0.8"/>
      </g>
     </g>
     <g id="text_2">
      <!-- −1 -->
      <g transform="translate(137.737338 218.293437) scale(0.22 -0.22)">
       <defs>
        <path id="DejaVuSans-31" d="M 794 531 
L 1825 531 
L 1825 4091 
L 703 3866 
L 703 4441 
L 1819 4666 
L 2450 4666 
L 2450 531 
L 3481 531 
L 3481 0 
L 794 0 
L 794 531 
z
" transform="scale(0.015625)"/>
       </defs>
       <use xlink:href="#DejaVuSans-2212"/>
       <use xlink:href="#DejaVuSans-31" x="83.789062"/>
      </g>
     </g>
    </g>
    <g id="xtick_3">
     <g id="line2d_3">
      <g>
       <use xlink:href="#me2e0785db2" x="227.715132" y="194.576875" style="stroke: #000000; stroke-width: 0.8"/>
      </g>
     </g>
     <g id="text_3">
      <!-- 0 -->
      <g transform="translate(220.716382 218.293437) scale(0.22 -0.22)">
       <defs>
        <path id="DejaVuSans-30" d="M 2034 4250 
Q 1547 4250 1301 3770 
Q 1056 3291 1056 2328 
Q 1056 1369 1301 889 
Q 1547 409 2034 409 
Q 2525 409 2770 889 
Q 3016 1369 3016 2328 
Q 3016 3291 2770 3770 
Q 2525 4250 2034 4250 
z
M 2034 4750 
Q 2819 4750 3233 4129 
Q 3647 3509 3647 2328 
Q 3647 1150 3233 529 
Q 2819 -91 2034 -91 
Q 1250 -91 836 529 
Q 422 1150 422 2328 
Q 422 3509 836 4129 
Q 1250 4750 2034 4750 
z
" transform="scale(0.015625)"/>
       </defs>
       <use xlink:href="#DejaVuSans-30"/>
      </g>
     </g>
    </g>
    <g id="xtick_4">
     <g id="line2d_4">
      <g>
       <use xlink:href="#me2e0785db2" x="301.476519" y="194.576875" style="stroke: #000000; stroke-width: 0.8"/>
      </g>
     </g>
     <g id="text_4">
      <!-- 1 -->
      <g transform="translate(294.477769 218.293437) scale(0.22 -0.22)">
       <use xlink:href="#DejaVuSans-31"/>
      </g>
     </g>
    </g>
    <g id="xtick_5">
     <g id="line2d_5">
      <g>
       <use xlink:href="#me2e0785db2" x="375.237907" y="194.576875" style="stroke: #000000; stroke-width: 0.8"/>
      </g>
     </g>
     <g id="text_5">
      <!-- 2 -->
      <g transform="translate(368.239157 218.293437) scale(0.22 -0.22)">
       <use xlink:href="#DejaVuSans-32"/>
      </g>
     </g>
    </g>
    <g id="text_6">
     <!-- Normalized X -->
     <g transform="translate(202.427969 234.467187) scale(0.1 -0.1)">
      <defs>
       <path id="DejaVuSans-4e" d="M 628 4666 
L 1478 4666 
L 3547 763 
L 3547 4666 
L 4159 4666 
L 4159 0 
L 3309 0 
L 1241 3903 
L 1241 0 
L 628 0 
L 628 4666 
z
" transform="scale(0.015625)"/>
       <path id="DejaVuSans-6f" d="M 1959 3097 
Q 1497 3097 1228 2736 
Q 959 2375 959 1747 
Q 959 1119 1226 758 
Q 1494 397 1959 397 
Q 2419 397 2687 759 
Q 2956 1122 2956 1747 
Q 2956 2369 2687 2733 
Q 2419 3097 1959 3097 
z
M 1959 3584 
Q 2709 3584 3137 3096 
Q 3566 2609 3566 1747 
Q 3566 888 3137 398 
Q 2709 -91 1959 -91 
Q 1206 -91 779 398 
Q 353 888 353 1747 
Q 353 2609 779 3096 
Q 1206 3584 1959 3584 
z
" transform="scale(0.015625)"/>
       <path id="DejaVuSans-72" d="M 2631 2963 
Q 2534 3019 2420 3045 
Q 2306 3072 2169 3072 
Q 1681 3072 1420 2755 
Q 1159 2438 1159 1844 
L 1159 0 
L 581 0 
L 581 3500 
L 1159 3500 
L 1159 2956 
Q 1341 3275 1631 3429 
Q 1922 3584 2338 3584 
Q 2397 3584 2469 3576 
Q 2541 3569 2628 3553 
L 2631 2963 
z
" transform="scale(0.015625)"/>
       <path id="DejaVuSans-6d" d="M 3328 2828 
Q 3544 3216 3844 3400 
Q 4144 3584 4550 3584 
Q 5097 3584 5394 3201 
Q 5691 2819 5691 2113 
L 5691 0 
L 5113 0 
L 5113 2094 
Q 5113 2597 4934 2840 
Q 4756 3084 4391 3084 
Q 3944 3084 3684 2787 
Q 3425 2491 3425 1978 
L 3425 0 
L 2847 0 
L 2847 2094 
Q 2847 2600 2669 2842 
Q 2491 3084 2119 3084 
Q 1678 3084 1418 2786 
Q 1159 2488 1159 1978 
L 1159 0 
L 581 0 
L 581 3500 
L 1159 3500 
L 1159 2956 
Q 1356 3278 1631 3431 
Q 1906 3584 2284 3584 
Q 2666 3584 2933 3390 
Q 3200 3197 3328 2828 
z
" transform="scale(0.015625)"/>
       <path id="DejaVuSans-61" d="M 2194 1759 
Q 1497 1759 1228 1600 
Q 959 1441 959 1056 
Q 959 750 1161 570 
Q 1363 391 1709 391 
Q 2188 391 2477 730 
Q 2766 1069 2766 1631 
L 2766 1759 
L 2194 1759 
z
M 3341 1997 
L 3341 0 
L 2766 0 
L 2766 531 
Q 2569 213 2275 61 
Q 1981 -91 1556 -91 
Q 1019 -91 701 211 
Q 384 513 384 1019 
Q 384 1609 779 1909 
Q 1175 2209 1959 2209 
L 2766 2209 
L 2766 2266 
Q 2766 2663 2505 2880 
Q 2244 3097 1772 3097 
Q 1472 3097 1187 3025 
Q 903 2953 641 2809 
L 641 3341 
Q 956 3463 1253 3523 
Q 1550 3584 1831 3584 
Q 2591 3584 2966 3190 
Q 3341 2797 3341 1997 
z
" transform="scale(0.015625)"/>
       <path id="DejaVuSans-6c" d="M 603 4863 
L 1178 4863 
L 1178 0 
L 603 0 
L 603 4863 
z
" transform="scale(0.015625)"/>
       <path id="DejaVuSans-69" d="M 603 3500 
L 1178 3500 
L 1178 0 
L 603 0 
L 603 3500 
z
M 603 4863 
L 1178 4863 
L 1178 4134 
L 603 4134 
L 603 4863 
z
" transform="scale(0.015625)"/>
       <path id="DejaVuSans-7a" d="M 353 3500 
L 3084 3500 
L 3084 2975 
L 922 459 
L 3084 459 
L 3084 0 
L 275 0 
L 275 525 
L 2438 3041 
L 353 3041 
L 353 3500 
z
" transform="scale(0.015625)"/>
       <path id="DejaVuSans-65" d="M 3597 1894 
L 3597 1613 
L 953 1613 
Q 991 1019 1311 708 
Q 1631 397 2203 397 
Q 2534 397 2845 478 
Q 3156 559 3463 722 
L 3463 178 
Q 3153 47 2828 -22 
Q 2503 -91 2169 -91 
Q 1331 -91 842 396 
Q 353 884 353 1716 
Q 353 2575 817 3079 
Q 1281 3584 2069 3584 
Q 2775 3584 3186 3129 
Q 3597 2675 3597 1894 
z
M 3022 2063 
Q 3016 2534 2758 2815 
Q 2500 3097 2075 3097 
Q 1594 3097 1305 2825 
Q 1016 2553 972 2059 
L 3022 2063 
z
" transform="scale(0.015625)"/>
       <path id="DejaVuSans-64" d="M 2906 2969 
L 2906 4863 
L 3481 4863 
L 3481 0 
L 2906 0 
L 2906 525 
Q 2725 213 2448 61 
Q 2172 -91 1784 -91 
Q 1150 -91 751 415 
Q 353 922 353 1747 
Q 353 2572 751 3078 
Q 1150 3584 1784 3584 
Q 2172 3584 2448 3432 
Q 2725 3281 2906 2969 
z
M 947 1747 
Q 947 1113 1208 752 
Q 1469 391 1925 391 
Q 2381 391 2643 752 
Q 2906 1113 2906 1747 
Q 2906 2381 2643 2742 
Q 2381 3103 1925 3103 
Q 1469 3103 1208 2742 
Q 947 2381 947 1747 
z
" transform="scale(0.015625)"/>
       <path id="DejaVuSans-20" transform="scale(0.015625)"/>
       <path id="DejaVuSans-58" d="M 403 4666 
L 1081 4666 
L 2241 2931 
L 3406 4666 
L 4084 4666 
L 2584 2425 
L 4184 0 
L 3506 0 
L 2194 1984 
L 872 0 
L 191 0 
L 1856 2491 
L 403 4666 
z
" transform="scale(0.015625)"/>
      </defs>
      <use xlink:href="#DejaVuSans-4e"/>
      <use xlink:href="#DejaVuSans-6f" x="74.804688"/>
      <use xlink:href="#DejaVuSans-72" x="135.986328"/>
      <use xlink:href="#DejaVuSans-6d" x="175.349609"/>
      <use xlink:href="#DejaVuSans-61" x="272.761719"/>
      <use xlink:href="#DejaVuSans-6c" x="334.041016"/>
      <use xlink:href="#DejaVuSans-69" x="361.824219"/>
      <use xlink:href="#DejaVuSans-7a" x="389.607422"/>
      <use xlink:href="#DejaVuSans-65" x="442.097656"/>
      <use xlink:href="#DejaVuSans-64" x="503.621094"/>
      <use xlink:href="#DejaVuSans-20" x="567.097656"/>
      <use xlink:href="#DejaVuSans-58" x="598.884766"/>
     </g>
    </g>
   </g>
   <g id="matplotlib.axis_2">
    <g id="ytick_1">
     <g id="line2d_6">
      <defs>
       <path id="mb9ad160738" d="M 0 0 
L -3.5 0 
" style="stroke: #000000; stroke-width: 0.8"/>
      </defs>
      <g>
       <use xlink:href="#mb9ad160738" x="52.3675" y="170.956725" style="stroke: #000000; stroke-width: 0.8"/>
      </g>
     </g>
     <g id="text_7">
      <!-- 0.1 -->
      <g transform="translate(7.2 180.07485) scale(0.24 -0.24)">
       <defs>
        <path id="DejaVuSans-2e" d="M 684 794 
L 1344 794 
L 1344 0 
L 684 0 
L 684 794 
z
" transform="scale(0.015625)"/>
       </defs>
       <use xlink:href="#DejaVuSans-30"/>
       <use xlink:href="#DejaVuSans-2e" x="63.623047"/>
       <use xlink:href="#DejaVuSans-31" x="95.410156"/>
      </g>
     </g>
    </g>
    <g id="ytick_2">
     <g id="line2d_7">
      <g>
       <use xlink:href="#mb9ad160738" x="52.3675" y="116.574352" style="stroke: #000000; stroke-width: 0.8"/>
      </g>
     </g>
     <g id="text_8">
      <!-- 0.2 -->
      <g transform="translate(7.2 125.692477) scale(0.24 -0.24)">
       <use xlink:href="#DejaVuSans-30"/>
       <use xlink:href="#DejaVuSans-2e" x="63.623047"/>
       <use xlink:href="#DejaVuSans-32" x="95.410156"/>
      </g>
     </g>
    </g>
    <g id="ytick_3">
     <g id="line2d_8">
      <g>
       <use xlink:href="#mb9ad160738" x="52.3675" y="62.191979" style="stroke: #000000; stroke-width: 0.8"/>
      </g>
     </g>
     <g id="text_9">
      <!-- 0.3 -->
      <g transform="translate(7.2 71.310104) scale(0.24 -0.24)">
       <defs>
        <path id="DejaVuSans-33" d="M 2597 2516 
Q 3050 2419 3304 2112 
Q 3559 1806 3559 1356 
Q 3559 666 3084 287 
Q 2609 -91 1734 -91 
Q 1441 -91 1130 -33 
Q 819 25 488 141 
L 488 750 
Q 750 597 1062 519 
Q 1375 441 1716 441 
Q 2309 441 2620 675 
Q 2931 909 2931 1356 
Q 2931 1769 2642 2001 
Q 2353 2234 1838 2234 
L 1294 2234 
L 1294 2753 
L 1863 2753 
Q 2328 2753 2575 2939 
Q 2822 3125 2822 3475 
Q 2822 3834 2567 4026 
Q 2313 4219 1838 4219 
Q 1578 4219 1281 4162 
Q 984 4106 628 3988 
L 628 4550 
Q 988 4650 1302 4700 
Q 1616 4750 1894 4750 
Q 2613 4750 3031 4423 
Q 3450 4097 3450 3541 
Q 3450 3153 3228 2886 
Q 3006 2619 2597 2516 
z
" transform="scale(0.015625)"/>
       </defs>
       <use xlink:href="#DejaVuSans-30"/>
       <use xlink:href="#DejaVuSans-2e" x="63.623047"/>
       <use xlink:href="#DejaVuSans-33" x="95.410156"/>
      </g>
     </g>
    </g>
   </g>
   <g id="LineCollection_1">
    <path d="M 69.042955 184.274953 
L 69.042955 165.967741 
" clip-path="url(#pd6fe8d3969)" style="fill: none; stroke: #000000; stroke-width: 1.5"/>
    <path d="M 110.731591 176.065229 
L 110.731591 165.025495 
" clip-path="url(#pd6fe8d3969)" style="fill: none; stroke: #000000; stroke-width: 1.5"/>
    <path d="M 152.420227 143.235885 
L 152.420227 125.889043 
" clip-path="url(#pd6fe8d3969)" style="fill: none; stroke: #000000; stroke-width: 1.5"/>
    <path d="M 194.108864 109.242285 
L 194.108864 94.617924 
" clip-path="url(#pd6fe8d3969)" style="fill: none; stroke: #000000; stroke-width: 1.5"/>
    <path d="M 235.7975 109.688598 
L 235.7975 95.641099 
" clip-path="url(#pd6fe8d3969)" style="fill: none; stroke: #000000; stroke-width: 1.5"/>
    <path d="M 277.486136 91.707622 
L 277.486136 74.148825 
" clip-path="url(#pd6fe8d3969)" style="fill: none; stroke: #000000; stroke-width: 1.5"/>
    <path d="M 319.174773 120.844373 
L 319.174773 101.649045 
" clip-path="url(#pd6fe8d3969)" style="fill: none; stroke: #000000; stroke-width: 1.5"/>
    <path d="M 360.863409 106.566415 
L 360.863409 75.63728 
" clip-path="url(#pd6fe8d3969)" style="fill: none; stroke: #000000; stroke-width: 1.5"/>
    <path d="M 402.552045 77.039647 
L 402.552045 30.148068 
" clip-path="url(#pd6fe8d3969)" style="fill: none; stroke: #000000; stroke-width: 1.5"/>
   </g>
   <g id="line2d_9">
    <defs>
     <path id="mf1d45c7ed2" d="M 5 0 
L -5 -0 
" style="stroke: #000000"/>
    </defs>
    <g clip-path="url(#pd6fe8d3969)">
     <use xlink:href="#mf1d45c7ed2" x="69.042955" y="184.274953" style="stroke: #000000"/>
     <use xlink:href="#mf1d45c7ed2" x="110.731591" y="176.065229" style="stroke: #000000"/>
     <use xlink:href="#mf1d45c7ed2" x="152.420227" y="143.235885" style="stroke: #000000"/>
     <use xlink:href="#mf1d45c7ed2" x="194.108864" y="109.242285" style="stroke: #000000"/>
     <use xlink:href="#mf1d45c7ed2" x="235.7975" y="109.688598" style="stroke: #000000"/>
     <use xlink:href="#mf1d45c7ed2" x="277.486136" y="91.707622" style="stroke: #000000"/>
     <use xlink:href="#mf1d45c7ed2" x="319.174773" y="120.844373" style="stroke: #000000"/>
     <use xlink:href="#mf1d45c7ed2" x="360.863409" y="106.566415" style="stroke: #000000"/>
     <use xlink:href="#mf1d45c7ed2" x="402.552045" y="77.039647" style="stroke: #000000"/>
    </g>
   </g>
   <g id="line2d_10">
    <g clip-path="url(#pd6fe8d3969)">
     <use xlink:href="#mf1d45c7ed2" x="69.042955" y="165.967741" style="stroke: #000000"/>
     <use xlink:href="#mf1d45c7ed2" x="110.731591" y="165.025495" style="stroke: #000000"/>
     <use xlink:href="#mf1d45c7ed2" x="152.420227" y="125.889043" style="stroke: #000000"/>
     <use xlink:href="#mf1d45c7ed2" x="194.108864" y="94.617924" style="stroke: #000000"/>
     <use xlink:href="#mf1d45c7ed2" x="235.7975" y="95.641099" style="stroke: #000000"/>
     <use xlink:href="#mf1d45c7ed2" x="277.486136" y="74.148825" style="stroke: #000000"/>
     <use xlink:href="#mf1d45c7ed2" x="319.174773" y="101.649045" style="stroke: #000000"/>
     <use xlink:href="#mf1d45c7ed2" x="360.863409" y="75.63728" style="stroke: #000000"/>
     <use xlink:href="#mf1d45c7ed2" x="402.552045" y="30.148068" style="stroke: #000000"/>
    </g>
   </g>
   <g id="line2d_11">
    <path d="M 69.042955 186.746932 
L 110.731591 151.212079 
L 152.420227 128.169225 
L 194.108864 114.228681 
L 235.7975 106.000758 
L 277.486136 100.095767 
L 319.174773 93.124017 
L 360.863409 81.69582 
L 402.552045 62.421486 
" clip-path="url(#pd6fe8d3969)" style="fill: none; stroke-dasharray: 18.5,8; stroke-dashoffset: 0; stroke: #a9a9a9; stroke-width: 5"/>
   </g>
   <g id="line2d_12">
    <path d="M 69.042955 175.121347 
L 110.731591 170.545362 
L 152.420227 134.562464 
L 194.108864 101.930105 
L 235.7975 102.664848 
L 277.486136 82.928224 
L 319.174773 111.246709 
L 360.863409 91.101848 
L 402.552045 53.593858 
" clip-path="url(#pd6fe8d3969)" style="fill: none; stroke: #000000; stroke-width: 1.5; stroke-linecap: square"/>
    <defs>
     <path id="md8b125defe" d="M 0 3 
C 0.795609 3 1.55874 2.683901 2.12132 2.12132 
C 2.683901 1.55874 3 0.795609 3 0 
C 3 -0.795609 2.683901 -1.55874 2.12132 -2.12132 
C 1.55874 -2.683901 0.795609 -3 0 -3 
C -0.795609 -3 -1.55874 -2.683901 -2.12132 -2.12132 
C -2.683901 -1.55874 -3 -0.795609 -3 0 
C -3 0.795609 -2.683901 1.55874 -2.12132 2.12132 
C -1.55874 2.683901 -0.795609 3 0 3 
z
" style="stroke: #000000"/>
    </defs>
    <g clip-path="url(#pd6fe8d3969)">
     <use xlink:href="#md8b125defe" x="69.042955" y="175.121347" style="stroke: #000000"/>
     <use xlink:href="#md8b125defe" x="110.731591" y="170.545362" style="stroke: #000000"/>
     <use xlink:href="#md8b125defe" x="152.420227" y="134.562464" style="stroke: #000000"/>
     <use xlink:href="#md8b125defe" x="194.108864" y="101.930105" style="stroke: #000000"/>
     <use xlink:href="#md8b125defe" x="235.7975" y="102.664848" style="stroke: #000000"/>
     <use xlink:href="#md8b125defe" x="277.486136" y="82.928224" style="stroke: #000000"/>
     <use xlink:href="#md8b125defe" x="319.174773" y="111.246709" style="stroke: #000000"/>
     <use xlink:href="#md8b125defe" x="360.863409" y="91.101848" style="stroke: #000000"/>
     <use xlink:href="#md8b125defe" x="402.552045" y="53.593858" style="stroke: #000000"/>
    </g>
   </g>
   <g id="patch_3">
    <path d="M 52.3675 194.576875 
L 52.3675 22.318125 
" style="fill: none; stroke: #000000; stroke-width: 0.8; stroke-linejoin: miter; stroke-linecap: square"/>
   </g>
   <g id="patch_4">
    <path d="M 419.2275 194.576875 
L 419.2275 22.318125 
" style="fill: none; stroke: #000000; stroke-width: 0.8; stroke-linejoin: miter; stroke-linecap: square"/>
   </g>
   <g id="patch_5">
    <path d="M 52.3675 194.576875 
L 419.2275 194.576875 
" style="fill: none; stroke: #000000; stroke-width: 0.8; stroke-linejoin: miter; stroke-linecap: square"/>
   </g>
   <g id="patch_6">
    <path d="M 52.3675 22.318125 
L 419.2275 22.318125 
" style="fill: none; stroke: #000000; stroke-width: 0.8; stroke-linejoin: miter; stroke-linecap: square"/>
   </g>
   <g id="text_10">
    <!-- SMDV Neuron: Dimension 1 -->
    <g transform="translate(152.9525 16.318125) scale(0.12 -0.12)">
     <defs>
      <path id="DejaVuSans-53" d="M 3425 4513 
L 3425 3897 
Q 3066 4069 2747 4153 
Q 2428 4238 2131 4238 
Q 1616 4238 1336 4038 
Q 1056 3838 1056 3469 
Q 1056 3159 1242 3001 
Q 1428 2844 1947 2747 
L 2328 2669 
Q 3034 2534 3370 2195 
Q 3706 1856 3706 1288 
Q 3706 609 3251 259 
Q 2797 -91 1919 -91 
Q 1588 -91 1214 -16 
Q 841 59 441 206 
L 441 856 
Q 825 641 1194 531 
Q 1563 422 1919 422 
Q 2459 422 2753 634 
Q 3047 847 3047 1241 
Q 3047 1584 2836 1778 
Q 2625 1972 2144 2069 
L 1759 2144 
Q 1053 2284 737 2584 
Q 422 2884 422 3419 
Q 422 4038 858 4394 
Q 1294 4750 2059 4750 
Q 2388 4750 2728 4690 
Q 3069 4631 3425 4513 
z
" transform="scale(0.015625)"/>
      <path id="DejaVuSans-4d" d="M 628 4666 
L 1569 4666 
L 2759 1491 
L 3956 4666 
L 4897 4666 
L 4897 0 
L 4281 0 
L 4281 4097 
L 3078 897 
L 2444 897 
L 1241 4097 
L 1241 0 
L 628 0 
L 628 4666 
z
" transform="scale(0.015625)"/>
      <path id="DejaVuSans-44" d="M 1259 4147 
L 1259 519 
L 2022 519 
Q 2988 519 3436 956 
Q 3884 1394 3884 2338 
Q 3884 3275 3436 3711 
Q 2988 4147 2022 4147 
L 1259 4147 
z
M 628 4666 
L 1925 4666 
Q 3281 4666 3915 4102 
Q 4550 3538 4550 2338 
Q 4550 1131 3912 565 
Q 3275 0 1925 0 
L 628 0 
L 628 4666 
z
" transform="scale(0.015625)"/>
      <path id="DejaVuSans-56" d="M 1831 0 
L 50 4666 
L 709 4666 
L 2188 738 
L 3669 4666 
L 4325 4666 
L 2547 0 
L 1831 0 
z
" transform="scale(0.015625)"/>
      <path id="DejaVuSans-75" d="M 544 1381 
L 544 3500 
L 1119 3500 
L 1119 1403 
Q 1119 906 1312 657 
Q 1506 409 1894 409 
Q 2359 409 2629 706 
Q 2900 1003 2900 1516 
L 2900 3500 
L 3475 3500 
L 3475 0 
L 2900 0 
L 2900 538 
Q 2691 219 2414 64 
Q 2138 -91 1772 -91 
Q 1169 -91 856 284 
Q 544 659 544 1381 
z
M 1991 3584 
L 1991 3584 
z
" transform="scale(0.015625)"/>
      <path id="DejaVuSans-6e" d="M 3513 2113 
L 3513 0 
L 2938 0 
L 2938 2094 
Q 2938 2591 2744 2837 
Q 2550 3084 2163 3084 
Q 1697 3084 1428 2787 
Q 1159 2491 1159 1978 
L 1159 0 
L 581 0 
L 581 3500 
L 1159 3500 
L 1159 2956 
Q 1366 3272 1645 3428 
Q 1925 3584 2291 3584 
Q 2894 3584 3203 3211 
Q 3513 2838 3513 2113 
z
" transform="scale(0.015625)"/>
      <path id="DejaVuSans-3a" d="M 750 794 
L 1409 794 
L 1409 0 
L 750 0 
L 750 794 
z
M 750 3309 
L 1409 3309 
L 1409 2516 
L 750 2516 
L 750 3309 
z
" transform="scale(0.015625)"/>
      <path id="DejaVuSans-73" d="M 2834 3397 
L 2834 2853 
Q 2591 2978 2328 3040 
Q 2066 3103 1784 3103 
Q 1356 3103 1142 2972 
Q 928 2841 928 2578 
Q 928 2378 1081 2264 
Q 1234 2150 1697 2047 
L 1894 2003 
Q 2506 1872 2764 1633 
Q 3022 1394 3022 966 
Q 3022 478 2636 193 
Q 2250 -91 1575 -91 
Q 1294 -91 989 -36 
Q 684 19 347 128 
L 347 722 
Q 666 556 975 473 
Q 1284 391 1588 391 
Q 1994 391 2212 530 
Q 2431 669 2431 922 
Q 2431 1156 2273 1281 
Q 2116 1406 1581 1522 
L 1381 1569 
Q 847 1681 609 1914 
Q 372 2147 372 2553 
Q 372 3047 722 3315 
Q 1072 3584 1716 3584 
Q 2034 3584 2315 3537 
Q 2597 3491 2834 3397 
z
" transform="scale(0.015625)"/>
     </defs>
     <use xlink:href="#DejaVuSans-53"/>
     <use xlink:href="#DejaVuSans-4d" x="63.476562"/>
     <use xlink:href="#DejaVuSans-44" x="149.755859"/>
     <use xlink:href="#DejaVuSans-56" x="225.007812"/>
     <use xlink:href="#DejaVuSans-20" x="293.416016"/>
     <use xlink:href="#DejaVuSans-4e" x="325.203125"/>
     <use xlink:href="#DejaVuSans-65" x="400.007812"/>
     <use xlink:href="#DejaVuSans-75" x="461.53125"/>
     <use xlink:href="#DejaVuSans-72" x="524.910156"/>
     <use xlink:href="#DejaVuSans-6f" x="563.773438"/>
     <use xlink:href="#DejaVuSans-6e" x="624.955078"/>
     <use xlink:href="#DejaVuSans-3a" x="688.333984"/>
     <use xlink:href="#DejaVuSans-20" x="722.025391"/>
     <use xlink:href="#DejaVuSans-44" x="753.8125"/>
     <use xlink:href="#DejaVuSans-69" x="830.814453"/>
     <use xlink:href="#DejaVuSans-6d" x="858.597656"/>
     <use xlink:href="#DejaVuSans-65" x="956.009766"/>
     <use xlink:href="#DejaVuSans-6e" x="1017.533203"/>
     <use xlink:href="#DejaVuSans-73" x="1080.912109"/>
     <use xlink:href="#DejaVuSans-69" x="1133.011719"/>
     <use xlink:href="#DejaVuSans-6f" x="1160.794922"/>
     <use xlink:href="#DejaVuSans-6e" x="1221.976562"/>
     <use xlink:href="#DejaVuSans-20" x="1285.355469"/>
     <use xlink:href="#DejaVuSans-31" x="1317.142578"/>
    </g>
   </g>
  </g>
  <g id="axes_2">
   <g id="patch_7">
    <path d="M 475.4575 194.576875 
L 842.3175 194.576875 
L 842.3175 22.318125 
L 475.4575 22.318125 
z
" style="fill: #ffffff"/>
   </g>
   <g id="matplotlib.axis_3">
    <g id="xtick_6">
     <g id="line2d_13">
      <g>
       <use xlink:href="#me2e0785db2" x="482.650833" y="194.576875" style="stroke: #000000; stroke-width: 0.8"/>
      </g>
     </g>
     <g id="text_11">
      <!-- −2 -->
      <g transform="translate(466.434427 218.293437) scale(0.22 -0.22)">
       <use xlink:href="#DejaVuSans-2212"/>
       <use xlink:href="#DejaVuSans-32" x="83.789062"/>
      </g>
     </g>
    </g>
    <g id="xtick_7">
     <g id="line2d_14">
      <g>
       <use xlink:href="#me2e0785db2" x="554.584167" y="194.576875" style="stroke: #000000; stroke-width: 0.8"/>
      </g>
     </g>
     <g id="text_12">
      <!-- −1 -->
      <g transform="translate(538.36776 218.293437) scale(0.22 -0.22)">
       <use xlink:href="#DejaVuSans-2212"/>
       <use xlink:href="#DejaVuSans-31" x="83.789062"/>
      </g>
     </g>
    </g>
    <g id="xtick_8">
     <g id="line2d_15">
      <g>
       <use xlink:href="#me2e0785db2" x="626.5175" y="194.576875" style="stroke: #000000; stroke-width: 0.8"/>
      </g>
     </g>
     <g id="text_13">
      <!-- 0 -->
      <g transform="translate(619.51875 218.293437) scale(0.22 -0.22)">
       <use xlink:href="#DejaVuSans-30"/>
      </g>
     </g>
    </g>
    <g id="xtick_9">
     <g id="line2d_16">
      <g>
       <use xlink:href="#me2e0785db2" x="698.450833" y="194.576875" style="stroke: #000000; stroke-width: 0.8"/>
      </g>
     </g>
     <g id="text_14">
      <!-- 1 -->
      <g transform="translate(691.452083 218.293437) scale(0.22 -0.22)">
       <use xlink:href="#DejaVuSans-31"/>
      </g>
     </g>
    </g>
    <g id="xtick_10">
     <g id="line2d_17">
      <g>
       <use xlink:href="#me2e0785db2" x="770.384167" y="194.576875" style="stroke: #000000; stroke-width: 0.8"/>
      </g>
     </g>
     <g id="text_15">
      <!-- 2 -->
      <g transform="translate(763.385417 218.293437) scale(0.22 -0.22)">
       <use xlink:href="#DejaVuSans-32"/>
      </g>
     </g>
    </g>
    <g id="xtick_11">
     <g id="line2d_18">
      <g>
       <use xlink:href="#me2e0785db2" x="842.3175" y="194.576875" style="stroke: #000000; stroke-width: 0.8"/>
      </g>
     </g>
     <g id="text_16">
      <!-- 3 -->
      <g transform="translate(835.31875 218.293437) scale(0.22 -0.22)">
       <use xlink:href="#DejaVuSans-33"/>
      </g>
     </g>
    </g>
    <g id="text_17">
     <!-- Normalized X_1 -->
     <g transform="translate(619.836719 234.467187) scale(0.1 -0.1)">
      <defs>
       <path id="DejaVuSans-5f" d="M 3263 -1063 
L 3263 -1509 
L -63 -1509 
L -63 -1063 
L 3263 -1063 
z
" transform="scale(0.015625)"/>
      </defs>
      <use xlink:href="#DejaVuSans-4e"/>
      <use xlink:href="#DejaVuSans-6f" x="74.804688"/>
      <use xlink:href="#DejaVuSans-72" x="135.986328"/>
      <use xlink:href="#DejaVuSans-6d" x="175.349609"/>
      <use xlink:href="#DejaVuSans-61" x="272.761719"/>
      <use xlink:href="#DejaVuSans-6c" x="334.041016"/>
      <use xlink:href="#DejaVuSans-69" x="361.824219"/>
      <use xlink:href="#DejaVuSans-7a" x="389.607422"/>
      <use xlink:href="#DejaVuSans-65" x="442.097656"/>
      <use xlink:href="#DejaVuSans-64" x="503.621094"/>
      <use xlink:href="#DejaVuSans-20" x="567.097656"/>
      <use xlink:href="#DejaVuSans-58" x="598.884766"/>
      <use xlink:href="#DejaVuSans-5f" x="667.390625"/>
      <use xlink:href="#DejaVuSans-31" x="717.390625"/>
     </g>
    </g>
   </g>
   <g id="matplotlib.axis_4">
    <g id="ytick_4">
     <g id="line2d_19">
      <g>
       <use xlink:href="#mb9ad160738" x="475.4575" y="161.268137" style="stroke: #000000; stroke-width: 0.8"/>
      </g>
     </g>
     <g id="text_18">
      <!-- 0.2 -->
      <g transform="translate(430.29 170.386262) scale(0.24 -0.24)">
       <use xlink:href="#DejaVuSans-30"/>
       <use xlink:href="#DejaVuSans-2e" x="63.623047"/>
       <use xlink:href="#DejaVuSans-32" x="95.410156"/>
      </g>
     </g>
    </g>
    <g id="ytick_5">
     <g id="line2d_20">
      <g>
       <use xlink:href="#mb9ad160738" x="475.4575" y="71.694221" style="stroke: #000000; stroke-width: 0.8"/>
      </g>
     </g>
     <g id="text_19">
      <!-- 0.4 -->
      <g transform="translate(430.29 80.812346) scale(0.24 -0.24)">
       <defs>
        <path id="DejaVuSans-34" d="M 2419 4116 
L 825 1625 
L 2419 1625 
L 2419 4116 
z
M 2253 4666 
L 3047 4666 
L 3047 1625 
L 3713 1625 
L 3713 1100 
L 3047 1100 
L 3047 0 
L 2419 0 
L 2419 1100 
L 313 1100 
L 313 1709 
L 2253 4666 
z
" transform="scale(0.015625)"/>
       </defs>
       <use xlink:href="#DejaVuSans-30"/>
       <use xlink:href="#DejaVuSans-2e" x="63.623047"/>
       <use xlink:href="#DejaVuSans-34" x="95.410156"/>
      </g>
     </g>
    </g>
   </g>
   <g id="LineCollection_2">
    <path d="M 512.433203 169.382032 
L 512.433203 153.146765 
" clip-path="url(#p4cc21c8ed1)" style="fill: none; stroke: #000000; stroke-width: 1.5"/>
    <path d="M 553.088655 186.746932 
L 553.088655 173.73698 
" clip-path="url(#p4cc21c8ed1)" style="fill: none; stroke: #000000; stroke-width: 1.5"/>
    <path d="M 593.744108 166.504358 
L 593.744108 156.189181 
" clip-path="url(#p4cc21c8ed1)" style="fill: none; stroke: #000000; stroke-width: 1.5"/>
    <path d="M 634.39956 176.986315 
L 634.39956 164.927874 
" clip-path="url(#p4cc21c8ed1)" style="fill: none; stroke: #000000; stroke-width: 1.5"/>
    <path d="M 675.055012 145.786451 
L 675.055012 133.781993 
" clip-path="url(#p4cc21c8ed1)" style="fill: none; stroke: #000000; stroke-width: 1.5"/>
    <path d="M 715.710465 153.911339 
L 715.710465 129.893145 
" clip-path="url(#p4cc21c8ed1)" style="fill: none; stroke: #000000; stroke-width: 1.5"/>
    <path d="M 756.365917 168.585903 
L 756.365917 142.755562 
" clip-path="url(#p4cc21c8ed1)" style="fill: none; stroke: #000000; stroke-width: 1.5"/>
    <path d="M 797.021369 104.200486 
L 797.021369 72.549618 
" clip-path="url(#p4cc21c8ed1)" style="fill: none; stroke: #000000; stroke-width: 1.5"/>
    <path d="M 837.676821 119.438714 
L 837.676821 30.148068 
" clip-path="url(#p4cc21c8ed1)" style="fill: none; stroke: #000000; stroke-width: 1.5"/>
   </g>
   <g id="line2d_21">
    <g clip-path="url(#p4cc21c8ed1)">
     <use xlink:href="#mf1d45c7ed2" x="512.433203" y="169.382032" style="stroke: #000000"/>
     <use xlink:href="#mf1d45c7ed2" x="553.088655" y="186.746932" style="stroke: #000000"/>
     <use xlink:href="#mf1d45c7ed2" x="593.744108" y="166.504358" style="stroke: #000000"/>
     <use xlink:href="#mf1d45c7ed2" x="634.39956" y="176.986315" style="stroke: #000000"/>
     <use xlink:href="#mf1d45c7ed2" x="675.055012" y="145.786451" style="stroke: #000000"/>
     <use xlink:href="#mf1d45c7ed2" x="715.710465" y="153.911339" style="stroke: #000000"/>
     <use xlink:href="#mf1d45c7ed2" x="756.365917" y="168.585903" style="stroke: #000000"/>
     <use xlink:href="#mf1d45c7ed2" x="797.021369" y="104.200486" style="stroke: #000000"/>
     <use xlink:href="#mf1d45c7ed2" x="837.676821" y="119.438714" style="stroke: #000000"/>
    </g>
   </g>
   <g id="line2d_22">
    <g clip-path="url(#p4cc21c8ed1)">
     <use xlink:href="#mf1d45c7ed2" x="512.433203" y="153.146765" style="stroke: #000000"/>
     <use xlink:href="#mf1d45c7ed2" x="553.088655" y="173.73698" style="stroke: #000000"/>
     <use xlink:href="#mf1d45c7ed2" x="593.744108" y="156.189181" style="stroke: #000000"/>
     <use xlink:href="#mf1d45c7ed2" x="634.39956" y="164.927874" style="stroke: #000000"/>
     <use xlink:href="#mf1d45c7ed2" x="675.055012" y="133.781993" style="stroke: #000000"/>
     <use xlink:href="#mf1d45c7ed2" x="715.710465" y="129.893145" style="stroke: #000000"/>
     <use xlink:href="#mf1d45c7ed2" x="756.365917" y="142.755562" style="stroke: #000000"/>
     <use xlink:href="#mf1d45c7ed2" x="797.021369" y="72.549618" style="stroke: #000000"/>
     <use xlink:href="#mf1d45c7ed2" x="837.676821" y="30.148068" style="stroke: #000000"/>
    </g>
   </g>
   <g id="line2d_23">
    <path d="M 512.433203 167.180046 
L 553.088655 167.589532 
L 593.744108 166.841463 
L 634.39956 163.762891 
L 675.055012 157.180868 
L 715.710465 145.922446 
L 756.365917 128.814679 
L 797.021369 104.684618 
L 837.676821 72.359317 
" clip-path="url(#p4cc21c8ed1)" style="fill: none; stroke-dasharray: 18.5,8; stroke-dashoffset: 0; stroke: #a9a9a9; stroke-width: 5"/>
   </g>
   <g id="line2d_24">
    <path d="M 512.433203 161.264399 
L 553.088655 180.241956 
L 593.744108 161.34677 
L 634.39956 170.957095 
L 675.055012 139.784222 
L 715.710465 141.902242 
L 756.365917 155.670733 
L 797.021369 88.375052 
L 837.676821 74.793391 
" clip-path="url(#p4cc21c8ed1)" style="fill: none; stroke: #000000; stroke-width: 1.5; stroke-linecap: square"/>
    <g clip-path="url(#p4cc21c8ed1)">
     <use xlink:href="#md8b125defe" x="512.433203" y="161.264399" style="stroke: #000000"/>
     <use xlink:href="#md8b125defe" x="553.088655" y="180.241956" style="stroke: #000000"/>
     <use xlink:href="#md8b125defe" x="593.744108" y="161.34677" style="stroke: #000000"/>
     <use xlink:href="#md8b125defe" x="634.39956" y="170.957095" style="stroke: #000000"/>
     <use xlink:href="#md8b125defe" x="675.055012" y="139.784222" style="stroke: #000000"/>
     <use xlink:href="#md8b125defe" x="715.710465" y="141.902242" style="stroke: #000000"/>
     <use xlink:href="#md8b125defe" x="756.365917" y="155.670733" style="stroke: #000000"/>
     <use xlink:href="#md8b125defe" x="797.021369" y="88.375052" style="stroke: #000000"/>
     <use xlink:href="#md8b125defe" x="837.676821" y="74.793391" style="stroke: #000000"/>
    </g>
   </g>
   <g id="patch_8">
    <path d="M 475.4575 194.576875 
L 475.4575 22.318125 
" style="fill: none; stroke: #000000; stroke-width: 0.8; stroke-linejoin: miter; stroke-linecap: square"/>
   </g>
   <g id="patch_9">
    <path d="M 842.3175 194.576875 
L 842.3175 22.318125 
" style="fill: none; stroke: #000000; stroke-width: 0.8; stroke-linejoin: miter; stroke-linecap: square"/>
   </g>
   <g id="patch_10">
    <path d="M 475.4575 194.576875 
L 842.3175 194.576875 
" style="fill: none; stroke: #000000; stroke-width: 0.8; stroke-linejoin: miter; stroke-linecap: square"/>
   </g>
   <g id="patch_11">
    <path d="M 475.4575 22.318125 
L 842.3175 22.318125 
" style="fill: none; stroke: #000000; stroke-width: 0.8; stroke-linejoin: miter; stroke-linecap: square"/>
   </g>
   <g id="text_20">
    <!-- SMDV Neuron: Dimension 2 -->
    <g transform="translate(576.0425 16.318125) scale(0.12 -0.12)">
     <use xlink:href="#DejaVuSans-53"/>
     <use xlink:href="#DejaVuSans-4d" x="63.476562"/>
     <use xlink:href="#DejaVuSans-44" x="149.755859"/>
     <use xlink:href="#DejaVuSans-56" x="225.007812"/>
     <use xlink:href="#DejaVuSans-20" x="293.416016"/>
     <use xlink:href="#DejaVuSans-4e" x="325.203125"/>
     <use xlink:href="#DejaVuSans-65" x="400.007812"/>
     <use xlink:href="#DejaVuSans-75" x="461.53125"/>
     <use xlink:href="#DejaVuSans-72" x="524.910156"/>
     <use xlink:href="#DejaVuSans-6f" x="563.773438"/>
     <use xlink:href="#DejaVuSans-6e" x="624.955078"/>
     <use xlink:href="#DejaVuSans-3a" x="688.333984"/>
     <use xlink:href="#DejaVuSans-20" x="722.025391"/>
     <use xlink:href="#DejaVuSans-44" x="753.8125"/>
     <use xlink:href="#DejaVuSans-69" x="830.814453"/>
     <use xlink:href="#DejaVuSans-6d" x="858.597656"/>
     <use xlink:href="#DejaVuSans-65" x="956.009766"/>
     <use xlink:href="#DejaVuSans-6e" x="1017.533203"/>
     <use xlink:href="#DejaVuSans-73" x="1080.912109"/>
     <use xlink:href="#DejaVuSans-69" x="1133.011719"/>
     <use xlink:href="#DejaVuSans-6f" x="1160.794922"/>
     <use xlink:href="#DejaVuSans-6e" x="1221.976562"/>
     <use xlink:href="#DejaVuSans-20" x="1285.355469"/>
     <use xlink:href="#DejaVuSans-32" x="1317.142578"/>
    </g>
   </g>
  </g>
 </g>
 <defs>
  <clipPath id="pd6fe8d3969">
   <rect x="52.3675" y="22.318125" width="366.86" height="172.25875"/>
  </clipPath>
  <clipPath id="p4cc21c8ed1">
   <rect x="475.4575" y="22.318125" width="366.86" height="172.25875"/>
  </clipPath>
 </defs>
</svg>
